<svg width="43" height="46" viewBox="0 0 43 46" fill="none" xmlns="http://www.w3.org/2000/svg">
<path d="M40.5152 32.9998C40.5858 31.7292 39.395 31.0918 38.6093 31.5527C38.2754 30.1127 37.3917 28.7927 36.5905 27.5786C34.7905 24.844 33.4479 23.0546 32.8648 22.2407C32.5811 21.8419 32.2592 21.3901 31.818 21.0718C30.7472 20.2995 29.3333 20.1139 28.6973 21.3061C27.383 19.9367 25.7467 20.1823 25.1157 21.2687C24.2686 20.9059 23.4286 21.1099 22.8265 21.7325C22.4785 21.2242 22.326 21.028 22.2731 20.9553C24.5616 18.568 25.8801 15.1741 25.6521 11.1485C25.4474 7.52729 22.5745 3.09435 19.0945 1.30847C17.4145 0.440232 15.1274 -0.0397684 13.2639 0.00258452C12.2256 0.0308198 9.58132 0.433173 8.13638 1.20258C3.38508 2.76894 -0.0412715 7.3007 0.000375568 12.6075C0.0370815 16.6134 2.10108 20.2579 5.08273 22.2831C6.11621 23.0071 7.26056 23.5583 8.47096 23.9151C10.7912 24.8715 14.0933 24.8715 15.918 24.4755C16.6521 24.3132 17.3651 24.0943 18.0427 23.8191C19.9677 26.716 21.4274 28.9332 23.2747 31.2711C22.4799 31.0402 21.8813 30.9887 21.1472 30.8906C19.6303 30.6838 17.094 30.34 16.5618 32.4294C16.35 33.2765 16.506 33.9929 17.1674 34.5379C17.4674 35.0496 17.9037 35.5191 18.258 35.7421C19.3211 36.4071 19.8681 36.4275 30.359 38.8791C30.023 39.5228 30.1034 40.384 30.6039 40.9198C31.1743 41.5311 32.1703 41.8042 32.8543 41.3454C33.9611 43.5831 33.8383 43.3593 34.6959 44.9991C34.9359 45.4572 34.7601 45.652 35.9679 45.7614C36.3554 46.2329 37.1107 45.772 36.8587 45.2108C36.0515 43.3941 35.0449 41.6727 33.8573 40.0783C34.1644 39.8878 34.3881 39.7325 34.5872 39.5983C36.8185 38.1372 38.9736 36.6887 40.1256 34.2576C40.8703 35.26 41.1999 35.6793 41.8867 36.9068C41.9584 37.0232 42.0723 37.1074 42.2046 37.1418C42.3369 37.1762 42.4773 37.1582 42.5967 37.0916C42.716 37.0249 42.805 36.9147 42.845 36.784C42.885 36.6533 42.873 36.5122 42.8114 36.3901C41.9291 34.8132 41.5486 34.4278 40.5152 32.9998ZM1.0592 12.5983C1.0112 6.62235 5.78579 1.72282 11.7011 1.67553C20.5027 1.56611 25.5851 11.728 20.4964 18.8447C19.038 17.4929 17.6404 17.8233 17.1505 18.9675C16.5576 19.9318 16.5505 20.9313 16.9818 21.9866C14.7576 23.2318 12.2841 23.6031 9.8552 23.1576C8.81388 22.89 7.79689 22.5353 6.81496 22.0974C6.18108 21.76 5.95943 21.5934 5.67496 21.4014C2.81685 19.4059 1.09238 16.1143 1.0592 12.5983ZM39.2743 33.6005C38.2613 35.9645 35.9383 37.4461 33.786 38.8621C33.4698 39.076 32.9411 39.4339 32.6623 39.4939C32.2437 39.5842 32.207 39.5405 32.1371 39.46C32.0538 39.2638 32.2077 38.6038 32.3418 38.4816C32.4001 38.4539 32.4527 38.4156 32.4971 38.3687C32.8881 38.3878 33.2446 38.3863 33.7366 38.2769C33.8737 38.2463 33.9929 38.1625 34.0682 38.044C34.1434 37.9254 34.1685 37.7819 34.1379 37.6448C34.1073 37.5078 34.0235 37.3885 33.905 37.3133C33.7864 37.238 33.6428 37.2129 33.5058 37.2435C31.134 37.7793 20.5768 34.8365 18.9124 34.2308C17.9644 33.8701 17.3418 33.6795 17.5881 32.6892C17.8648 31.6056 19.362 31.7172 21.0046 31.9395C21.9907 32.0736 23.1674 32.1633 24.1063 32.7753C24.223 32.8519 24.3653 32.8792 24.5021 32.8512C24.6389 32.8231 24.759 32.742 24.8361 32.6256C24.9456 32.4619 25.0726 32.3038 25.2152 32.1555C25.291 32.0769 25.3405 31.9767 25.3569 31.8687C25.3733 31.7607 25.3559 31.6503 25.307 31.5527C23.4117 27.7621 22.8914 27.496 20.4399 23.9758C19.2491 22.2492 19.2858 22.1708 18.8171 21.4438C18.3576 20.6736 18.186 20.5049 18.0498 19.6755C18.0498 19.4518 18.1366 19.2993 18.2658 19.1708C19.5378 17.9165 23.2599 24.3746 24.1656 25.9092C24.2371 26.03 24.3537 26.1175 24.4897 26.1524C24.6257 26.1873 24.77 26.1667 24.8908 26.0952C25.0117 26.0237 25.0992 25.9071 25.1341 25.771C25.1689 25.635 25.1484 25.4907 25.0768 25.3699C24.3413 24.1191 24.0392 23.6016 23.4484 22.6762C23.5627 22.4214 23.9065 22.1595 24.1931 22.1496C25.1764 22.1143 25.2604 22.8534 26.9128 25.3233C26.9611 25.3959 27.0266 25.4554 27.1034 25.4966C27.1803 25.5377 27.2661 25.5592 27.3533 25.5591C27.7698 25.5591 28.0303 25.0903 27.7931 24.7353C26.61 22.9614 26.4731 22.6078 25.9832 21.9555C25.9825 21.9534 25.9804 21.9527 25.979 21.9506C26.099 21.4473 26.8239 21.1734 27.5968 21.7353C27.971 22.0071 28.2646 22.408 28.5265 22.8012C29.3863 24.0901 29.3178 24.46 29.8091 24.46C29.901 24.46 29.9913 24.4361 30.0712 24.3906C30.151 24.3451 30.2177 24.2796 30.2645 24.2005C30.3114 24.1215 30.3369 24.0316 30.3384 23.9397C30.34 23.8478 30.3177 23.7571 30.2736 23.6765C30.0482 23.2559 29.808 22.8434 29.5536 22.4398C29.5571 22.3918 29.5627 22.3438 29.5521 22.2943C29.4872 21.988 29.6736 21.6026 29.9227 21.532C30.2093 21.4473 30.7719 21.6231 31.199 21.9308C31.8307 22.3861 35.1364 27.2941 35.7067 28.1602C36.6265 29.5558 37.7919 31.2463 37.6776 32.8995C37.671 32.9698 37.6785 33.0408 37.6997 33.1081C37.721 33.1755 37.7555 33.2379 37.8012 33.2917C37.8469 33.3455 37.903 33.3897 37.966 33.4215C38.0291 33.4533 38.0978 33.4722 38.1683 33.4771C38.2387 33.4819 38.3095 33.4727 38.3763 33.4498C38.4431 33.4269 38.5046 33.3908 38.5573 33.3438C38.61 33.2967 38.6527 33.2396 38.683 33.1758C38.7133 33.112 38.7304 33.0428 38.7336 32.9722C38.7434 32.8268 38.7321 32.6835 38.7279 32.5395C38.7991 32.5559 38.873 32.5571 38.9448 32.5431C39.0165 32.5291 39.0845 32.5003 39.1444 32.4583C39.1479 32.4555 39.1797 32.4513 39.2347 32.4767C39.6159 32.644 39.438 33.2193 39.2743 33.6005Z" fill="black"/>
<path d="M14.471 15.4494C13.9945 17.7576 11.2084 17.6842 10.295 16.2047C10.2175 16.0935 10.1004 16.0162 9.96772 15.9887C9.83502 15.9611 9.69681 15.9855 9.5815 16.0567C9.46619 16.1279 9.38253 16.2406 9.34772 16.3715C9.3129 16.5025 9.32957 16.6419 9.39431 16.7609C9.87007 17.5317 10.7418 18.1339 11.8367 18.2835L11.7774 18.8468C11.768 18.9169 11.7727 18.9882 11.7913 19.0564C11.8099 19.1246 11.842 19.1885 11.8857 19.2441C11.9294 19.2997 11.9838 19.346 12.0456 19.3803C12.1075 19.4145 12.1756 19.4361 12.2459 19.4436C12.3163 19.4511 12.3874 19.4444 12.4551 19.4239C12.5228 19.4035 12.5857 19.3697 12.6402 19.3245C12.6946 19.2794 12.7394 19.2238 12.772 19.161C12.8046 19.0982 12.8242 19.0295 12.8298 18.959L12.9032 18.2652C15.3752 17.8423 16.2505 14.9045 15.0498 13.1157C13.7552 11.1887 10.3875 10.84 9.81995 9.27716C9.54254 8.51269 10.084 7.46798 10.7327 6.87363C11.375 6.28563 12.9421 5.79927 13.7235 6.09151C13.8544 6.13755 13.9982 6.13032 14.1239 6.07137C14.2496 6.01242 14.3471 5.90647 14.3954 5.77633C14.4437 5.6462 14.439 5.50229 14.3822 5.37561C14.3255 5.24893 14.2212 5.14961 14.092 5.09904C13.7581 4.9741 13.36 4.93951 12.9442 4.9621L12.9597 4.2661C12.9613 4.19657 12.9492 4.12741 12.924 4.06257C12.8989 3.99772 12.8612 3.93847 12.8132 3.88819C12.7651 3.83792 12.7076 3.7976 12.644 3.76954C12.5804 3.74149 12.5118 3.72624 12.4423 3.72469C12.1592 3.73527 11.9087 3.94986 11.9009 4.2421L11.8811 5.13998C11.1484 5.34327 10.4552 5.69127 10.0176 6.09292C9.12113 6.91386 8.36583 8.37363 8.82466 9.63857C9.80795 12.347 15.1649 12.0845 14.471 15.4494ZM26.0037 4.62822C26.3411 4.62822 26.3171 4.47222 28.2696 2.90092C28.3249 2.85704 28.3709 2.80255 28.4048 2.74064C28.4387 2.67874 28.4599 2.61067 28.4672 2.54045C28.4744 2.47023 28.4675 2.39927 28.4469 2.33175C28.4263 2.26423 28.3924 2.20151 28.3472 2.14728C28.3021 2.09305 28.2465 2.0484 28.1838 2.01597C28.1211 1.98354 28.0525 1.96397 27.9821 1.95842C27.9118 1.95288 27.841 1.96146 27.774 1.98367C27.707 2.00588 27.6451 2.04126 27.592 2.08775L25.6649 3.69222C25.2858 4.00704 25.5096 4.62822 26.0037 4.62822ZM26.8 7.95857C26.8164 8.08608 26.8787 8.20325 26.9752 8.2882C27.0717 8.37315 27.1959 8.42007 27.3244 8.42022C27.8771 8.42022 29.596 8.01786 31.0056 7.30422C31.068 7.27303 31.1237 7.22981 31.1693 7.17705C31.215 7.12428 31.2497 7.06302 31.2716 6.99677C31.2935 6.93052 31.3021 6.86059 31.2969 6.79101C31.2917 6.72143 31.2728 6.65357 31.2412 6.59133C31.2097 6.52909 31.1662 6.4737 31.1131 6.42834C31.0601 6.38298 30.9986 6.34855 30.9323 6.32703C30.8659 6.30551 30.7959 6.29732 30.7264 6.30293C30.6568 6.30855 30.5891 6.32785 30.527 6.35974C29.5023 6.87875 28.3966 7.21894 27.2574 7.36563C27.1884 7.37451 27.1218 7.3969 27.0615 7.43151C27.0012 7.46612 26.9483 7.51227 26.9058 7.56733C26.8633 7.6224 26.8321 7.68529 26.814 7.75242C26.7958 7.81955 26.791 7.8896 26.8 7.95857ZM27.7832 10.4863C27.6526 10.4349 27.5068 10.4376 27.3781 10.4936C27.2494 10.5497 27.1482 10.6546 27.0968 10.7853C27.0454 10.9159 27.048 11.0617 27.1041 11.1904C27.1601 11.3192 27.265 11.4204 27.3957 11.4717L29.8663 12.4423C30.5298 12.7007 30.8948 11.7096 30.2545 11.4569L27.7832 10.4863ZM37.0183 39.6809C36.1924 39.9372 35.9842 41.015 36.4635 41.3143C36.7444 41.7802 37.3614 41.9666 37.847 41.7379C38.3651 41.4943 38.6122 40.8414 38.387 40.312C38.1696 39.7995 37.5562 39.5165 37.0183 39.6809Z" fill="black"/>
</svg>
