<svg width="33" height="39" viewBox="0 0 33 39" fill="none" xmlns="http://www.w3.org/2000/svg">
<path d="M0.037447 38.1938C0.0962706 38.4291 0.331565 38.5468 0.566859 38.4879C10.6257 35.2527 21.7433 35.0174 31.861 37.8409C32.0963 37.8997 32.3316 37.7821 32.3904 37.5468C32.4492 37.3115 32.3316 37.0762 32.0963 37.0174C31.6845 36.8997 31.3316 36.8409 30.9198 36.7232C31.2139 35.9585 31.3316 35.135 31.0963 34.3703C30.9786 33.9585 30.8022 33.5468 30.7433 33.0762C30.6845 32.3703 30.9198 31.7232 31.1551 31.0762C32.2139 27.7232 31.3316 23.9585 29.4492 21.0174C27.5669 18.0762 24.3904 15.6056 21.2727 14.135C20.3904 11.7232 17.8022 10.4879 16.4492 10.4291C16.4492 9.95854 16.3904 8.6056 16.3904 8.66442C16.5669 8.72324 16.6845 8.72324 16.861 8.78207C18.7433 9.07619 20.7433 8.13501 21.7433 6.42913C21.861 6.25266 21.8022 6.07619 21.6845 5.89972C21.3316 5.48795 20.4492 6.07619 18.5669 5.84089C17.5669 5.72324 16.5669 5.3703 15.9786 4.6056C15.0374 3.48795 15.2139 2.01736 15.6845 0.546774C15.8022 0.193833 15.3904 -0.159108 15.0374 0.0761859C12.0374 2.01736 12.0963 6.6056 15.5669 8.3703C15.5669 8.48795 15.6257 9.84089 15.6257 10.4879C13.6845 10.6644 11.6845 12.6056 11.0374 14.3703V14.4879C6.09627 16.7232 1.97862 21.135 1.62568 26.6056C1.56686 27.3115 2.27274 33.2527 2.15509 33.9585C2.03745 34.0174 1.97862 34.0174 1.9198 34.135C1.33156 35.0762 1.33156 36.2527 1.86098 37.1938C1.33156 37.3703 0.860976 37.4879 0.331565 37.6644C0.0962706 37.7232 -0.0802 37.9585 0.037447 38.1938ZM13.8022 4.84089C13.5669 3.84089 13.861 2.66442 14.4492 1.78207C14.3316 2.3703 14.3316 3.07619 14.4492 3.72324C14.8022 6.19383 16.6257 7.72324 20.0963 6.95854C19.2727 7.66442 18.0963 8.01736 17.0374 7.84089C15.508 7.66442 14.1551 6.3703 13.8022 4.84089ZM6.62568 33.7232C8.97862 33.3115 11.2727 33.0174 13.508 32.8997V32.9585C13.861 34.3703 13.5669 34.8409 13.6845 35.135C11.3316 35.3115 8.97862 35.6056 6.68451 36.0174C6.86098 35.7821 6.74333 35.7232 6.62568 33.7232ZM14.508 35.0762C14.6257 34.7232 14.508 33.4879 14.3904 32.8409C17.4492 32.7232 20.4492 32.7821 23.3316 33.135L23.3904 34.6644C23.3904 34.9585 23.6257 35.0762 23.861 35.0762C24.0963 35.0762 24.2727 34.8997 24.2727 34.6056L24.2139 33.1938C25.9786 33.4291 27.6845 33.7232 29.3316 34.135C29.7433 34.7232 29.6257 35.7232 29.0963 36.1938C24.3316 35.2527 19.3904 34.8409 14.508 35.0762ZM19.5669 13.8409C17.0374 12.8997 14.8022 12.8997 12.1551 13.9585C14.1551 10.4291 17.8022 10.4879 19.5669 13.8409ZM15.861 14.0762C22.3904 13.9585 31.2727 22.2527 29.7433 30.3115C29.6845 30.6056 29.6257 30.9585 29.508 31.2527C29.3316 31.8997 29.1551 32.5468 29.2139 33.3115C21.2727 31.4291 12.508 31.4879 3.09627 33.4879C3.03745 32.135 2.50804 27.135 2.56686 26.6644C2.97862 19.4291 10.9786 14.135 15.861 14.0762ZM2.74333 34.4291C3.74333 34.1938 4.74333 34.0174 5.74333 33.8409C5.9198 35.6056 5.74333 35.8997 6.09627 36.135C4.97862 36.3703 3.80215 36.6644 2.68451 36.9585C1.86098 35.7821 2.68451 34.5468 2.74333 34.4291Z" fill="black"/>
<path d="M18.0374 17.6642C20.9786 18.6054 23.3903 20.8995 24.5668 23.723C24.6844 23.9583 24.9197 24.076 25.155 23.9583C25.3903 23.8407 25.508 23.6054 25.3903 23.3701C24.155 20.2524 21.4491 17.8407 18.2727 16.7818C18.0374 16.723 17.8021 16.8407 17.7433 17.076C17.6844 17.3701 17.8021 17.6054 18.0374 17.6642ZM25.155 24.5465C24.9786 24.723 24.9786 25.0171 25.155 25.1936C25.3315 25.3701 25.6256 25.3701 25.8021 25.1936L25.8609 25.1348C26.0374 24.9583 26.0374 24.6642 25.8609 24.4877C25.6844 24.3112 25.3903 24.3112 25.2138 24.4877L25.155 24.5465Z" fill="black"/>
</svg>
