<svg width="24" height="24" viewBox="0 0 24 24" fill="none" xmlns="http://www.w3.org/2000/svg">
<path d="M12 3.10619L11.4925 3.65837C11.7794 3.92214 12.2206 3.92214 12.5075 3.65837L12 3.10619ZM10.5915 8.19616C9.90132 7.69302 9.16512 7.08116 8.60883 6.43631C8.03452 5.77057 7.75 5.18237 7.75 4.7148H6.25C6.25 5.73233 6.82845 6.66889 7.47305 7.41611C8.13569 8.18423 8.97435 8.87353 9.70794 9.40829L10.5915 8.19616ZM7.75 4.7148C7.75 3.65616 8.27002 3.05235 8.8955 2.84186C9.54754 2.62242 10.5199 2.76439 11.4925 3.65837L12.5075 2.55402C11.2302 1.37992 9.70254 0.987599 8.41707 1.4202C7.10502 1.86174 6.25 3.09627 6.25 4.7148H7.75ZM14.2921 9.4083C15.0257 8.87354 15.8643 8.18425 16.527 7.41612C17.1716 6.6689 17.75 5.73233 17.75 4.71479H16.25C16.25 5.18238 15.9655 5.77059 15.3912 6.43633C14.8349 7.08117 14.0987 7.69303 13.4085 8.19617L14.2921 9.4083ZM17.75 4.71479C17.75 3.09626 16.895 1.86174 15.5829 1.4202C14.2975 0.987599 12.7698 1.37992 11.4925 2.55402L12.5075 3.65837C13.4801 2.76439 14.4525 2.62242 15.1045 2.84185C15.73 3.05234 16.25 3.65616 16.25 4.71479H17.75ZM9.70794 9.40829C10.463 9.95873 11.0618 10.426 12 10.426V8.92602C11.635 8.92602 11.4347 8.81078 10.5915 8.19616L9.70794 9.40829ZM13.4085 8.19617C12.5653 8.81078 12.365 8.92602 12 8.92602V10.426C12.9382 10.426 13.537 9.95874 14.2921 9.4083L13.4085 8.19617Z" fill="#99A1AF"/>
<path d="M5 20.3884H7.25993C8.27079 20.3884 9.29253 20.4937 10.2763 20.6964C12.0166 21.0549 13.8488 21.0983 15.6069 20.8138C16.4738 20.6734 17.326 20.4589 18.0975 20.0865C18.7939 19.7504 19.6469 19.2766 20.2199 18.7459C20.7921 18.216 21.388 17.3487 21.8109 16.6707C22.1736 16.0894 21.9982 15.3762 21.4245 14.943C20.7873 14.4619 19.8417 14.462 19.2046 14.9433L17.3974 16.3084C16.697 16.8375 15.932 17.3245 15.0206 17.4699C14.911 17.4874 14.7962 17.5033 14.6764 17.5172M14.6764 17.5172C14.6403 17.5214 14.6038 17.5254 14.5668 17.5292M14.6764 17.5172C14.8222 17.486 14.9669 17.396 15.1028 17.2775C15.746 16.7161 15.7866 15.77 15.2285 15.1431C15.0991 14.9977 14.9475 14.8764 14.7791 14.7759C11.9817 13.1074 7.62942 14.3782 5 16.2429M14.6764 17.5172C14.6399 17.525 14.6033 17.5292 14.5668 17.5292M14.5668 17.5292C14.0434 17.5829 13.4312 17.5968 12.7518 17.5326" stroke="#99A1AF" stroke-width="1.5" stroke-linecap="round"/>
<path d="M5 15.5C5 14.6716 4.32843 14 3.5 14C2.67157 14 2 14.6716 2 15.5V20.5C2 21.3284 2.67157 22 3.5 22C4.32843 22 5 21.3284 5 20.5V15.5Z" stroke="#99A1AF" stroke-width="1.5"/>
</svg>
