<svg width="46" height="38" viewBox="0 0 46 38" fill="none" xmlns="http://www.w3.org/2000/svg">
<path d="M22.3886 15.9281C16.3999 16.8098 14.7446 17.2841 10.9886 17.8559C10.9187 17.8666 10.8516 17.8913 10.7914 17.9283C10.7312 17.9654 10.679 18.0142 10.638 18.0717C10.5969 18.1293 10.5678 18.1945 10.5524 18.2635C10.5369 18.3325 10.5355 18.4039 10.5481 18.4735C11.398 23.1521 11.5399 26.7818 12.2239 31.2782C12.2347 31.3485 12.2595 31.4159 12.2969 31.4764C12.3342 31.5369 12.3834 31.5892 12.4414 31.6303C12.4994 31.6714 12.5651 31.7004 12.6346 31.7156C12.7041 31.7308 12.7759 31.7318 12.8457 31.7187C16.4394 31.0368 20.9464 30.5653 24.5754 29.877C24.6977 29.8538 24.8079 29.7882 24.8867 29.6918C24.9654 29.5953 25.0077 29.4742 25.006 29.3498C24.9417 24.4227 24.0502 20.5347 22.9794 16.3213C22.9471 16.1942 22.8688 16.0837 22.7596 16.011C22.6505 15.9384 22.5182 15.9089 22.3886 15.9281ZM13.1909 30.578C12.6029 26.5156 12.4222 23.0815 11.6846 18.8194C15.6093 18.1982 16.205 17.9215 22.0702 17.0455C23.0387 20.8876 23.8335 24.4926 23.9394 28.9185C20.5907 29.5255 16.577 29.9695 13.1902 30.5773L13.1909 30.578Z" fill="black"/>
<path d="M19.1549 21.6155L17.4622 19.3086C17.4291 19.2638 17.3842 19.2291 17.3324 19.2084C17.2807 19.1877 17.2242 19.1819 17.1693 19.1915C17.1144 19.2012 17.0633 19.226 17.0218 19.2632C16.9802 19.3003 16.9499 19.3484 16.9342 19.4018L16.1323 22.1484L13.4146 23.0456C13.3616 23.0631 13.3145 23.0951 13.2787 23.1379C13.2429 23.1808 13.2198 23.2328 13.212 23.2881C13.2042 23.3434 13.2121 23.3998 13.2347 23.4508C13.2573 23.5019 13.2937 23.5457 13.3398 23.5771L15.7045 25.1886L15.7186 28.0503C15.719 28.1061 15.7349 28.1606 15.7646 28.2078C15.7943 28.255 15.8366 28.293 15.8868 28.3174C15.9369 28.3419 15.9929 28.3518 16.0483 28.3461C16.1038 28.3405 16.1566 28.3194 16.2008 28.2853L18.4638 26.5348L21.1899 27.4058C21.2431 27.4228 21.3 27.4245 21.3541 27.4109C21.4082 27.3972 21.4575 27.3687 21.4962 27.3285C21.535 27.2884 21.5618 27.2382 21.5735 27.1836C21.5852 27.129 21.5815 27.0723 21.5626 27.0197L20.5963 24.3261L22.2678 22.0037C22.3006 21.9584 22.3199 21.9048 22.3238 21.849C22.3276 21.7932 22.3157 21.7375 22.2895 21.6881C22.2632 21.6387 22.2237 21.5977 22.1753 21.5696C22.127 21.5415 22.0717 21.5276 22.0158 21.5293L19.1549 21.6155ZM37.7083 14.5813L25.4986 16.7364C25.3679 16.759 25.2504 16.83 25.1695 16.9351C25.0885 17.0402 25.05 17.1719 25.0616 17.3041C25.0731 17.4363 25.1339 17.5593 25.2318 17.6488C25.3297 17.7383 25.4577 17.7878 25.5904 17.7875C25.6765 17.7875 24.8775 17.9181 37.8918 15.6232C37.9626 15.6138 38.0306 15.5901 38.092 15.5536C38.1533 15.5172 38.2067 15.4687 38.2488 15.4111C38.2909 15.3535 38.321 15.288 38.3372 15.2185C38.3534 15.149 38.3553 15.0769 38.3429 15.0067C38.3306 14.9364 38.3041 14.8693 38.2651 14.8095C38.2262 14.7497 38.1756 14.6984 38.1163 14.6587C38.057 14.619 37.9903 14.5917 37.9202 14.5784C37.8501 14.5651 37.778 14.5661 37.7083 14.5813ZM37.1386 20.3992C33.8293 21.4733 30.378 22.0463 26.8991 22.099C26.7587 22.1 26.6245 22.1568 26.5259 22.2568C26.4273 22.3568 26.3726 22.4919 26.3736 22.6323C26.3746 22.7727 26.4314 22.9069 26.5314 23.0055C26.6314 23.1041 26.7665 23.1588 26.9069 23.1578H26.9146C30.4992 23.1038 34.0555 22.5138 37.4655 21.4072C37.5991 21.3639 37.7101 21.2692 37.774 21.1441C37.8379 21.0189 37.8494 20.8735 37.8061 20.7398C37.7627 20.6062 37.6681 20.4952 37.5429 20.4313C37.4177 20.3674 37.2723 20.3559 37.1386 20.3992ZM33.6205 25.6446C31.6432 26.3499 29.5695 26.7481 27.4716 26.8256C27.3312 26.8281 27.1975 26.8863 27.1 26.9874C27.0025 27.0885 26.9492 27.2241 26.9517 27.3645C26.9542 27.5049 27.0124 27.6386 27.1135 27.7361C27.2146 27.8336 27.3502 27.8869 27.4906 27.8844C28.0511 27.8209 30.6001 27.8456 33.9763 26.6421C34.0418 26.6187 34.102 26.5827 34.1536 26.536C34.2052 26.4894 34.247 26.433 34.2768 26.3702C34.3066 26.3074 34.3237 26.2393 34.3272 26.1699C34.3307 26.1004 34.3205 26.031 34.2971 25.9655C34.2738 25.9 34.2377 25.8397 34.1911 25.7882C34.1444 25.7366 34.0881 25.6947 34.0253 25.6649C33.9624 25.6351 33.8944 25.618 33.8249 25.6145C33.7555 25.6111 33.686 25.6213 33.6205 25.6446Z" fill="black"/>
<path d="M43.3949 31.776C43.5481 31.3348 44.0352 19.7985 39.0834 3.54349C39.0472 3.4288 38.9724 3.33014 38.8719 3.26417C38.7713 3.1982 38.651 3.16895 38.5314 3.18137C38.3945 3.16725 38.8985 3.13196 35.3634 3.40866C35.3486 3.31408 35.3401 3.21808 35.3189 3.12561C34.9533 1.49925 33.6086 0.225841 32.0493 0.0267817C30.3827 -0.185689 28.6886 0.887958 28.1916 2.46913C28.0391 2.97249 27.9802 3.49958 28.018 4.02419C26.8787 4.12655 25.7401 4.23031 24.6008 4.34184C24.5931 4.30231 24.5909 4.26066 24.5818 4.22114C24.2154 2.59549 22.8707 1.32137 21.3114 1.12302C19.642 0.911958 17.95 1.98419 17.4538 3.56537C17.2987 4.07813 17.2413 4.61542 17.2843 5.14937C15.8338 5.32584 14.3931 5.51643 12.9601 5.71902C12.5789 4.11525 11.2483 2.86161 9.70317 2.66608C8.04011 2.45643 6.34247 3.52725 5.84553 5.10772C5.70435 5.55878 5.61117 6.25125 5.71211 6.88655C2.40576 7.49149 2.36411 7.48372 2.22011 7.73784C1.68858 8.36184 1.1027 10.8783 1.03423 11.2842C-0.000592568 17.4014 -0.00553378 22.3849 0.000819157 28.9489C0.00152504 30.1835 0.158231 31.2593 1.37941 31.5578C4.498 32.3202 8.53 35.7967 8.72764 36.3296C8.84764 36.6508 9.32905 37.0185 10.0603 36.9875C12.5366 38.1367 7.96458 36.4595 42.4632 33.7828C43.138 33.7313 44.1093 33.8357 44.6959 33.4447C45.0552 33.2054 45.3643 32.7783 45.0411 32.3738C44.6945 31.9404 43.9455 31.8444 43.3949 31.776ZM29.2018 2.78678C29.5441 1.6969 30.7646 0.930311 31.9152 1.07784C33.0234 1.21831 34.0208 2.17761 34.2862 3.35855C34.2954 3.40161 34.2982 3.44678 34.306 3.49055C32.5695 3.6289 30.8246 3.77361 29.0754 3.92749C29.0472 3.57243 29.0895 3.14325 29.2018 2.78678ZM18.4646 3.88231C18.8055 2.79313 20.0246 2.02372 21.1773 2.17408C22.2855 2.31384 23.2808 3.27243 23.5476 4.45125C21.8048 4.62772 20.0683 4.81902 18.3375 5.02302C18.3105 4.63823 18.3536 4.25173 18.4646 3.88231ZM6.85494 5.42466C7.19729 4.33619 8.41211 3.56184 9.56906 3.71643C10.6349 3.85196 11.5914 4.74702 11.8992 5.86584C10.1627 6.11996 8.44317 6.39243 6.74623 6.69172C6.6944 6.2664 6.73141 5.83495 6.85494 5.42466ZM3.11023 8.70984C3.92553 11.3265 6.55423 16.9658 7.83258 28.6545C5.85142 28.7091 3.88716 29.0357 1.99494 29.6251C1.79094 21.7362 2.12341 15.5329 3.11023 8.70984ZM2.18764 30.6705C4.04959 30.077 5.98685 29.7528 7.94058 29.7077C8.27305 33.0889 8.2187 33.4468 8.31682 34.387C4.30317 31.1188 3.96929 31.1343 2.18764 30.6705ZM10.6385 35.8602C9.92129 34.4555 10.8573 26.5531 6.58105 14.7875C16.7987 12.9755 27.5634 12.024 37.8319 10.9023C37.9714 10.887 38.0992 10.817 38.1871 10.7075C38.275 10.598 38.3158 10.4581 38.3006 10.3185C38.2688 10.027 38.0076 9.80325 37.7168 9.84984C27.2923 10.9863 16.4669 11.9456 6.20623 13.7774C5.61047 12.2251 7.48811 17.0385 4.078 8.27149C6.66858 7.76466 9.31564 7.3129 12.0114 6.91831C11.9703 7.56165 11.7783 8.18627 11.4509 8.74161C11.0394 8.72466 10.6131 8.92302 10.4415 9.30137L10.4966 9.21384C10.1881 9.22937 9.93823 9.51878 9.90647 9.82584C9.8747 10.1329 10.0265 10.4378 10.2488 10.6531C10.7203 11.1091 11.5427 11.1649 12.0396 10.7371C12.4314 10.3997 12.538 9.79125 12.3319 9.32961C12.8027 8.55829 13.0586 7.67505 13.0731 6.77149C16.5389 6.28161 20.0627 5.86796 23.6048 5.50937C23.5415 6.1564 23.3265 6.77939 22.9773 7.32772C22.6003 7.34537 22.2305 7.53666 22.0738 7.88255L22.1288 7.79502C21.8203 7.81125 21.5698 8.10066 21.538 8.40772C21.5062 8.71478 21.6587 9.01972 21.8811 9.23361C22.3519 9.69031 23.1742 9.74608 23.6712 9.31831C24.0891 8.95831 24.1836 8.28984 23.9182 7.82043C24.3756 7.07572 24.6439 6.23572 24.6813 5.39784C27.9029 5.08161 31.1295 4.8049 34.3279 4.55078C34.2651 5.03032 34.1184 5.49506 33.8945 5.92372C33.4413 5.84678 32.9323 6.0409 32.7411 6.46372L32.7954 6.3769C32.4876 6.39243 32.2378 6.68184 32.2053 6.9889C32.1735 7.29596 32.326 7.6009 32.5483 7.81549C33.0192 8.27149 33.8415 8.32796 34.3385 7.90019C34.6822 7.60372 34.8043 7.09972 34.6914 6.66843C35.0987 5.98725 35.3415 5.22913 35.4022 4.46678C36.334 4.39408 37.2651 4.32137 38.1891 4.25078C41.1587 14.1049 42.4582 22.4364 42.3749 31.1244C30.6474 32.3343 19.5601 34.4583 10.6385 35.8602Z" fill="black"/>
</svg>
