<svg width="33" height="32" viewBox="0 0 33 32" fill="none" xmlns="http://www.w3.org/2000/svg">
<path d="M28.4597 12.3087L28.367 12.4937C28.148 12.9321 28.8108 13.261 29.0288 12.8241L29.1215 12.6392C29.34 12.2017 28.6782 11.8713 28.4597 12.3087Z" fill="black"/>
<path d="M25.869 4.02665C24.5779 3.86687 23.2642 4.06906 21.4154 5.56035C18.9634 7.53591 20.1184 5.51448 16.4449 4.51832C14.2144 3.9364 11.6076 4.37037 9.78785 6.05202C7.08687 8.21498 6.30621 11.6823 7.33492 14.5909C8.22752 17.1159 10.3535 18.9814 12.475 20.6162C12.7068 20.7948 12.947 20.9752 13.2143 21.0877C12.8257 21.1301 12.5781 21.1222 11.7555 21.1592C9.93235 21.2593 8.87552 22.1198 7.11991 22.4675C7.0558 22.1992 6.99268 21.93 6.91624 21.6637C6.7101 20.9471 5.98714 20.453 5.1838 20.4851C3.31673 20.5635 3.62495 20.7109 2.11246 20.7696C1.23317 20.8041 -0.124476 20.8219 0.00916808 21.71C0.396785 24.3025 0.182757 26.1173 0.519086 28.0288C0.603908 28.5116 1.33229 28.3824 1.24747 27.9006C0.957497 26.252 1.10594 24.091 0.750374 21.6676C0.97525 21.5542 1.72533 21.5251 2.14155 21.5088C3.69547 21.4472 3.37739 21.3017 5.21487 21.2238C5.66857 21.211 6.09465 21.4817 6.20511 21.8679C6.98478 24.5831 7.09032 27.398 6.51284 30.0295C5.23311 29.9644 4.0027 29.8475 2.69388 29.7893C2.22687 29.7607 2.12824 30.5029 2.71311 30.5315C3.90407 31.4463 2.95722 31.4231 7.12928 31.4177C7.47103 31.4177 7.74374 31.1968 7.7615 30.8935C7.80243 30.1922 7.83448 29.4737 7.87887 28.7794C15.7703 32.5495 23.6917 30.9754 28.5656 25.8831C28.9616 25.4698 29.3437 25.023 29.5519 24.4549C29.682 24.0989 29.7836 23.5515 29.6529 23.1086C29.9188 22.2101 29.2224 21.5286 28.4635 21.6405C27.8421 21.7298 25.5411 23.2117 24.0833 23.7334C21.2684 24.7409 20.7249 24.6808 20.4315 24.7533C22.9959 22.8329 28.5222 18.6974 30.4415 15.9407C31.9338 13.7974 32.3421 11.0131 31.5067 8.67262C30.6284 6.20391 28.3624 4.33684 25.869 4.02665ZM24.3328 24.4298C25.7497 23.9233 28.1774 22.4291 28.5744 22.3718C28.6245 22.3648 28.6755 22.3686 28.724 22.3829C28.7725 22.3972 28.8174 22.4217 28.8556 22.4547C28.8939 22.4878 28.9246 22.5287 28.9458 22.5746C28.9669 22.6205 28.978 22.6704 28.9783 22.721C28.9837 23.2931 28.0556 24.1082 27.5117 24.6137C20.9533 30.4176 15.3476 29.3623 7.71662 27.3778C7.683 27.3497 7.6441 27.3286 7.60221 27.3157C7.65582 25.9326 7.54641 24.548 7.27624 23.1905C8.50862 22.9439 9.80117 22.3018 10.8457 22.0291C11.3378 21.9132 11.8458 21.893 11.7965 21.8974C11.9059 21.8974 11.794 21.8925 12.403 21.8738C13.3425 21.8466 13.9826 21.8072 14.779 21.356C15.8013 20.7765 16.6653 19.4687 18.0718 19.049C18.1882 19.049 18.5245 18.8843 19.0985 19.0105C19.8333 19.1639 20.2574 19.839 19.2588 20.7923C19.2095 20.8386 17.8065 22.1904 17.8558 22.1904C17.8001 22.2328 17.7567 22.2989 17.3109 22.72C15.6139 24.3967 14.638 24.7005 14.4822 24.8494C14.4078 24.8426 14.3331 24.8586 14.2681 24.8953C14.203 24.932 14.1508 24.9877 14.1182 25.0549C14.0857 25.1222 14.0744 25.1977 14.086 25.2715C14.0975 25.3453 14.1313 25.4138 14.1828 25.4678C14.8648 26.1908 17.0283 26.0266 20.0676 25.5566C20.6603 25.42 21.1096 25.5842 24.3328 24.4298ZM17.1822 23.8548C17.6285 24.1556 18.3529 24.56 19.2228 24.9352C18.0777 25.1009 16.3216 25.315 15.3501 25.1858C16.0052 24.8065 16.6192 24.3608 17.1822 23.8548ZM29.8344 15.5171C27.9767 18.187 22.378 22.3704 19.9443 24.1931C19.3752 23.7384 18.7886 23.3063 18.1857 22.8975C18.238 22.8458 18.2893 22.7974 18.3416 22.7447L18.3401 22.7432C19.8156 21.2134 20.2042 21.0428 20.4808 20.4002C20.8443 19.3922 20.2688 18.4977 19.2529 18.2866C17.1057 17.8156 15.5237 20.0175 14.6321 20.563C13.9777 20.1251 13.1807 19.5712 12.4159 18.942C3.81333 11.9042 9.88895 3.5695 16.255 5.2324C18.3253 5.79459 18.3628 6.46528 19.3047 6.97125C19.3624 7.01268 19.9709 7.31942 20.4394 7.9832C20.7156 8.37525 21.3281 7.96051 21.044 7.55662C20.8993 7.35757 20.7371 7.1719 20.5592 7.00183C21.9563 6.43963 23.0778 4.42265 25.7778 4.75996C28.0009 5.03613 30.0228 6.7084 30.8104 8.92067C31.5664 11.0402 31.1926 13.5676 29.8344 15.5171Z" fill="black"/>
<path d="M5.76443 22.7888C5.77972 22.4229 5.50553 21.978 5.16476 22.0244C4.4132 21.6693 3.77753 22.449 4.12668 23.0738C4.2904 23.3672 5.72843 23.6784 5.76443 22.7888ZM27.3916 6.48522C26.9526 6.26922 26.6257 6.933 27.0651 7.149C28.4079 7.80982 29.268 9.36965 29.1097 10.858C29.0574 11.3462 29.7927 11.4271 29.8445 10.9364C30.0353 9.1502 29.0032 7.2782 27.3916 6.48522ZM13.389 7.38275C13.8062 7.13075 13.4275 6.49705 13.0059 6.74955C11.3972 7.72302 10.3522 9.56691 10.3438 11.4478C10.3354 13.3287 11.3646 15.1814 12.9649 16.1687C13.3826 16.4252 13.7688 15.7959 13.353 15.539C10.3305 13.6744 10.3414 9.22664 13.389 7.38275ZM25.6527 2.76144C25.7642 3.23683 26.4851 3.07064 26.3727 2.59327L26.0043 1.0216C25.8934 0.545217 25.1724 0.713381 25.2843 1.19026L25.6527 2.76144ZM28.2067 3.59387C28.8153 3.59387 28.3744 2.74467 29.6729 0.560998C29.9239 0.139354 29.2862 -0.235934 29.0372 0.182751C28.4904 1.10142 28.0887 2.09897 27.8462 3.14018C27.8336 3.1944 27.8334 3.25078 27.8456 3.30511C27.8578 3.35943 27.8821 3.41029 27.9167 3.45391C27.9513 3.49752 27.9954 3.53276 28.0455 3.557C28.0956 3.58123 28.1511 3.59384 28.2067 3.59387ZM31.6711 2.50746L30.0077 4.17135C29.661 4.51804 30.1882 5.03683 30.5305 4.69409L32.1943 3.0302C32.2307 2.99634 32.2598 2.95551 32.28 2.91014C32.3003 2.86477 32.3111 2.81579 32.312 2.76613C32.3129 2.71647 32.3038 2.66714 32.2851 2.62109C32.2665 2.57503 32.2389 2.5332 32.2037 2.49807C32.1686 2.46295 32.1268 2.43527 32.0807 2.41666C32.0347 2.39806 31.9853 2.38893 31.9357 2.3898C31.886 2.39068 31.837 2.40155 31.7917 2.42176C31.7463 2.44198 31.705 2.47112 31.6711 2.50746Z" fill="black"/>
</svg>
