<svg width="35" height="38" viewBox="0 0 35 38" fill="none" xmlns="http://www.w3.org/2000/svg">
<path d="M15.8973 25.4813C15.6621 25.4813 15.4268 25.6578 15.4268 25.9519C15.4268 26.246 15.6032 26.4225 15.8973 26.4225H24.3091C24.5444 26.4225 24.7797 26.246 24.7797 25.9519C24.7797 25.6578 24.6032 25.4813 24.3091 25.4813C22.3091 25.5401 17.8973 25.4813 15.8973 25.4813ZM19.8973 15.9519V16.1872C19.6032 16.3048 19.3679 16.4813 19.1326 16.7166C18.6032 17.1872 18.3091 18.0695 18.7209 18.7166C19.4856 19.893 21.8973 18.9519 21.3091 20.3636C21.0738 21.0107 20.1326 21.0695 19.6032 20.4225C19.4268 20.246 19.1915 20.1872 18.9562 20.3636C18.7797 20.5401 18.7209 20.7754 18.8973 21.0107C19.1915 21.3636 19.6032 21.6578 20.015 21.7166V21.7754C20.015 22.0107 20.1915 22.246 20.4856 22.246C20.7797 22.246 20.9562 22.0695 20.9562 21.7754V21.7166C21.4856 21.5989 21.9562 21.1872 22.1915 20.7166C22.5444 19.7754 22.1915 18.6578 20.2503 18.5401C19.8385 18.5401 19.6032 18.4225 19.4856 18.246C19.3091 18.0107 19.5444 17.5989 19.7797 17.3636C20.3091 16.8342 20.8385 16.893 21.0738 17.1283C21.2503 17.3048 21.4856 17.3636 21.7209 17.1872C21.8973 17.0107 21.9562 16.7754 21.7797 16.5401C21.5444 16.3048 21.2503 16.1283 20.8973 16.0695C20.8973 15.9519 20.8973 15.8342 20.8385 15.7166C20.7797 15.4813 20.5444 15.3636 20.3091 15.4225C19.9562 15.4813 19.8385 15.7166 19.8973 15.9519Z" fill="black"/>
<path d="M0.544402 10.2459C0.662049 10.3047 0.779696 10.4223 0.897343 10.4812C1.7797 10.2459 2.60323 10.187 3.5444 10.187C3.95617 10.6576 4.66205 10.9518 5.25028 10.8929C5.89734 10.8341 6.42676 10.4812 6.5444 9.95175C9.19146 11.6576 12.662 14.0694 15.8385 15.0694C15.0738 16.1282 14.6032 17.4223 14.6032 18.7753C14.6032 20.0694 15.015 21.3635 15.7797 22.3635L12.4268 22.3047C12.3091 22.3047 12.1915 22.3635 12.0738 22.4223C10.3091 24.3047 8.72087 26.3047 7.19146 28.4223C7.07381 28.54 7.07381 28.7753 7.19146 28.9518C7.13264 29.1282 7.19146 28.3047 7.19146 36.0694C7.19146 36.3047 7.36793 36.54 7.66205 36.54C7.89734 36.6576 7.89734 36.5988 9.07381 36.5988C13.7797 38.187 29.4856 38.0694 34.4856 37.7753C33.7797 36.8929 32.7797 36.4223 31.6621 36.187C31.8385 36.1282 31.8973 35.9518 31.8973 35.7753C31.8973 28.8341 31.8973 29.3047 31.8385 29.1282C31.9562 28.9518 31.9562 28.7753 31.8385 28.6576C30.6032 26.6576 29.2503 24.7165 27.9562 22.6576C28.0738 22.5988 27.8973 22.54 27.7797 22.54C26.7209 22.54 25.7209 22.54 24.6621 22.4812C26.6621 19.7753 26.1915 15.9518 23.5444 13.9518C25.015 14.1282 25.5444 12.5988 25.2503 11.1282C24.8973 9.48116 23.7797 7.77528 22.2503 6.53999C16.7209 1.95175 14.2503 2.59881 5.72087 1.59881C5.83852 0.304694 4.48558 -0.460011 3.60323 0.304694C3.36793 0.187047 3.30911 0.245871 1.89734 0.245871C1.66205 0.245871 1.42676 0.481165 1.42676 0.716459C1.42676 0.951753 1.60323 1.12822 1.83852 1.12822H3.01499C2.60323 2.48116 2.30911 6.95175 3.13264 8.89293C2.19146 8.95175 1.25028 9.12822 0.309108 9.36352C0.0738138 9.42234 -0.0438333 9.65763 0.0149902 9.89293C0.0738138 10.187 0.309108 10.3047 0.544402 10.2459ZM8.25029 29.2459C15.8973 29.4223 23.6032 29.2459 31.1915 29.4223V35.4223L8.25029 35.7753V29.2459ZM30.8385 28.54C23.5444 28.3635 15.8385 28.54 8.5444 28.3635C9.83852 26.5988 11.2503 24.8929 12.7209 23.2459L16.6621 23.3047C17.6621 24.2459 18.9562 24.7165 20.3091 24.7165C21.6032 24.7165 22.8973 24.2459 23.8973 23.3635C25.1326 23.3635 26.3091 23.3635 27.5444 23.4223C28.6032 25.187 29.7209 26.7753 30.8385 28.54ZM25.015 18.7753C25.015 21.4812 22.9562 23.8341 20.3091 23.8341C19.1326 23.8341 18.015 23.3635 17.1326 22.54C16.1326 21.5988 15.5444 20.187 15.5444 18.7753C15.5444 17.54 15.9562 16.3047 16.8385 15.3047C17.4268 15.4223 18.2503 15.4223 18.4856 15.3635C19.3091 15.2459 20.015 14.54 19.7797 13.7165C22.6621 13.4812 25.015 15.8929 25.015 18.7753ZM19.1326 13.0106C18.4856 12.5988 17.2503 12.1282 16.1326 10.8929C15.4268 10.187 14.8385 9.12822 14.8385 8.48116C14.8973 8.48116 15.2503 8.30469 15.9562 8.59881C19.6032 10.0694 20.5444 13.7165 22.4268 12.7753C22.5444 13.0694 22.6621 13.3047 22.8385 13.4812C21.6621 12.8929 20.4268 12.7165 19.1326 13.0106ZM17.1326 8.24587C19.3091 8.95175 21.015 10.0106 22.015 12.0106C21.6032 12.3047 20.8385 11.4223 20.5444 11.0694C19.7797 10.187 18.4856 9.01058 17.1326 8.24587ZM4.42676 0.89293C4.60323 0.89293 4.7797 1.12822 4.83852 1.24587V1.48116H4.66205C4.42676 1.42234 4.19146 1.59881 4.19146 1.83411C4.13264 2.0694 4.30911 2.30469 4.5444 2.30469C13.9562 3.53999 16.1326 2.59881 21.7209 7.24587C23.0738 8.36352 24.0738 9.95175 24.4268 11.3635C24.6032 12.0694 24.4856 13.2459 23.662 13.1282C23.4268 13.0106 22.9562 11.7165 22.5444 11.0694C21.5444 9.36352 19.9562 8.18705 17.3679 7.36352C16.4856 7.0694 14.3679 6.89293 14.015 7.95175C13.662 9.0694 14.6032 10.5988 15.4856 11.4812C16.9562 13.0106 18.1915 13.3635 18.8973 13.8341C19.0738 13.9518 19.015 14.0106 19.015 14.0694C18.9562 14.2459 18.7209 14.4223 18.4268 14.4812C15.0738 14.8929 8.83852 9.18705 5.89734 8.36352C5.66205 8.30469 5.42676 8.24587 5.25028 8.12822C5.01499 8.01058 4.7797 8.0694 4.66205 8.30469C4.5444 8.53999 4.60323 8.77528 4.83852 8.89293C5.01499 9.01058 5.25028 9.0694 5.42676 9.12822C5.42676 9.18705 5.5444 9.48116 5.19146 9.48116C4.42676 9.53999 4.01499 8.77528 3.7797 8.01058C3.30911 6.12822 3.5444 2.36352 3.95617 1.30469C3.95617 1.24587 4.13264 0.834106 4.42676 0.89293Z" fill="black"/>
</svg>
