<svg width="33" height="37" viewBox="0 0 33 37" fill="none" xmlns="http://www.w3.org/2000/svg">
<path fill-rule="evenodd" clip-rule="evenodd" d="M0.76692 13.2844C0.61524 13.895 0.56844 13.989 0.53188 14.6143C0.5218 14.7864 0.48476 14.6897 0.46356 14.8493L0.4194 15.1972C0.41996 15.39 0.39852 15.7017 0.34244 15.8868C0.3174 15.9695 0.29908 16.0674 0.25684 16.1408C0.22756 16.0824 0.22236 15.8956 0.21588 15.8193C0.17676 15.9147 0.21412 15.89 0.13348 15.8034C0.1086 15.8283 0.09012 16.0376 0.06516 15.9008C-0.01972 15.436 -0.00675982 14.2189 0.0210002 13.7306C0.0622002 13.0064 0.20868 12.0032 0.43316 11.3408C0.58932 10.88 0.78044 10.2804 0.98884 9.82691C1.05572 9.68139 1.11524 9.49547 1.19156 9.38011C1.20476 9.36003 1.21612 9.33499 1.22388 9.31131C1.33972 8.95195 2.1442 7.58379 2.4158 7.17435L2.86124 6.54355C3.45284 5.74131 4.40252 4.72171 5.14708 4.09459L5.48596 3.80267C5.60468 3.69155 6.51156 2.97099 6.6742 2.87083L7.37284 2.41131C7.59356 2.27723 8.62772 1.70507 8.88628 1.58875C10.812 0.72299 11.8943 0.36243 14.0232 0.0893899C15.1804 -0.0589301 16.8871 -0.0215702 18.0489 0.19323L18.5718 0.27571C19.4631 0.42483 20.5803 0.76275 21.4069 1.15019L21.8615 1.40435C22.1588 1.56499 22.3598 1.65659 22.6562 1.85931C22.8656 2.00251 23.2013 2.23139 23.3808 2.39171L23.2219 1.91715C23.1896 1.89227 23.2439 1.86755 23.2405 1.85243C23.234 1.81803 23.105 1.28451 23.122 1.23379C23.1379 1.18635 23.0296 1.16611 23.0838 1.13043C23.1294 1.10035 23.0774 1.05491 23.0738 1.01387C23.0732 1.00643 23.1272 0.88451 23.1945 0.91227L23.2204 0.92275C23.263 0.88851 23.251 0.91219 23.2974 0.89219C23.3247 0.88043 23.3108 0.81603 23.4464 0.88851C23.7878 1.07131 23.9752 1.38443 24.1565 1.74259C24.1728 1.77475 24.1976 1.76803 24.1834 1.79547C24.3333 2.04787 24.4684 2.25843 24.5773 2.54059C24.7132 2.81331 24.6912 2.49003 24.6898 3.12355C24.6893 3.33507 24.4937 3.48979 24.2945 3.44827L24.0736 3.50563C24.0591 3.50971 24.0464 3.52291 24.0317 3.52563C23.8586 3.55707 23.7886 3.60907 23.752 3.61763C23.5731 3.65979 23.4361 3.72523 23.2092 3.75291L22.9017 3.77019L22.786 3.78883C22.7016 3.79387 22.064 3.86803 22.0052 3.80771C21.9637 3.76515 21.7632 3.68659 21.6587 3.51715L21.5594 3.30403C21.5829 3.24099 21.5666 3.22723 21.5817 3.22163C21.6046 3.21315 21.585 3.15675 21.6113 3.14147C21.67 3.10731 22.0683 2.92107 22.1657 2.92443C22.2148 2.92611 22.1834 2.87939 22.352 2.82283C22.4136 2.80219 22.375 2.77707 22.4139 2.76819C22.4252 2.76547 22.4372 2.76771 22.4444 2.74451C22.4453 2.74227 22.4468 2.74083 22.4476 2.74179C22.474 2.74819 22.49 2.70715 22.5092 2.68259L22.5675 2.66483L22.649 2.61427C22.4981 2.56851 22.1079 2.34235 21.7709 2.24171C21.465 2.15035 21.2175 2.04555 20.9402 1.95475L20.3768 1.79355C20.1843 1.78419 20.0126 1.68755 19.8727 1.68651L19.5694 1.62139C19.4779 1.60683 19.3858 1.59811 19.2939 1.58859C19.1557 1.57403 18.9454 1.50563 18.8293 1.49299C18.634 1.47291 18.4404 1.43195 18.2445 1.41651L17.1911 1.29491C16.0692 1.18075 14.8364 1.22683 13.7301 1.37459C12.7817 1.50123 12.2904 1.64035 11.3914 1.89787C10.9772 2.01651 10.1683 2.31275 9.77956 2.49131C9.70124 2.52819 9.62292 2.56283 9.54228 2.59147C9.26764 2.68443 9.03036 2.84883 8.77076 2.97043C8.44116 3.12147 7.40348 3.79243 7.12476 3.99475C6.59476 4.37939 6.06236 4.75355 5.57212 5.19483L5.11396 5.61203L4.23812 6.52067C3.96996 6.80091 3.45548 7.46587 3.23116 7.79547C2.33292 9.11523 1.8706 10.042 1.31556 11.542C1.25196 11.714 1.2438 11.8604 1.14708 11.9928C1.06572 12.1041 0.7994 13.1428 0.76692 13.2844ZM32.0601 16.8492C32.0588 16.9344 32.0665 17.0191 32.0642 17.1033L31.9435 18.7639C31.8132 19.767 31.6596 20.4095 31.371 21.3909C31.142 22.1696 30.5826 23.3399 30.1877 24.0598C29.9956 24.41 29.3968 25.338 29.1115 25.571C28.9792 25.6789 28.812 25.8809 28.6597 26.0274L28.7736 26.0083C28.8011 25.9831 28.8128 26.0388 28.8277 26.0392C28.8665 26.0409 29.0128 26.0406 29.0559 26.0675C29.0955 26.0922 29.129 25.9902 29.1529 26.0506C29.173 26.1016 29.8505 26.0468 29.8843 26.0521C29.8846 26.0522 30.0017 26.1153 29.9448 26.2133C29.9693 26.2538 29.952 26.2496 29.9621 26.2944C29.9688 26.3235 30.0277 26.3212 29.9457 26.4405C29.8396 26.5952 28.8366 26.9265 28.783 26.9632C28.7531 26.9952 28.7507 26.9566 28.7424 26.9724L28.4596 27.0862C28.2689 27.1518 28.0661 27.1806 27.8872 27.2797C27.8584 27.2989 27.8723 27.2668 27.8161 27.303L27.6895 27.3408C27.3671 27.4256 27.048 27.1996 27.0182 26.8708C26.992 26.5616 26.8902 26.3467 26.9284 25.8738C26.9293 25.8624 26.9371 25.8506 26.9384 25.8392C26.9431 25.8007 26.9349 25.7417 26.9571 25.714C26.9717 25.6735 26.9278 24.9904 27.0001 24.9491C27.0516 24.9197 27.1347 24.7723 27.3476 24.6876L27.5744 24.633C27.6328 24.6661 27.6488 24.6488 27.6509 24.6658C27.6536 24.6861 27.7146 24.6789 27.7252 24.7045C27.7477 24.7594 27.9398 25.111 27.9194 25.1948C27.91 25.2337 27.9761 25.2631 27.974 25.3136C27.9703 25.4064 28.0282 25.4179 28.0296 25.4389C28.0321 25.4776 28.0516 25.466 28.05 25.4726C28.041 25.5103 28.0945 25.5173 28.1028 25.5464C28.2157 25.3864 28.2641 25.2309 28.4098 25.0259C28.4501 24.9691 28.6855 24.6052 28.7049 24.5217C28.7362 24.3879 28.8336 24.3113 28.8566 24.2038C28.858 24.1973 28.8603 24.191 28.8634 24.1852C28.9385 24.0772 28.9677 23.9515 29.0119 23.8322L29.1649 23.5466L29.9533 21.7102C30.4715 20.1888 30.5997 19.6185 30.8041 18.0028L30.8652 17.3338C30.9048 17.1393 30.8716 16.9421 30.887 16.7472C30.9228 16.2565 30.7684 14.4595 30.7135 13.9161C30.6597 13.4212 30.4513 12.4593 30.3086 11.9486C30.0108 10.9176 29.6276 10.0175 29.155 9.08339C29.1027 8.97995 29.0206 8.90435 29.0188 8.78275C29.0177 8.70587 28.4347 7.72691 28.3748 7.59907C28.2846 7.40635 28.0177 7.21259 28.0314 7.11995C28.0388 7.06947 27.8904 6.86739 27.8711 6.85035C27.6705 6.67291 27.6136 6.49467 27.5496 6.27419C27.5988 6.28347 27.6879 6.37299 27.7295 6.40851C27.7125 6.32931 27.7049 6.37595 27.7992 6.36163C27.8067 6.33043 27.7204 6.21611 27.806 6.26827C28.0024 6.38795 28.7303 7.10027 28.899 7.28531C29.3419 7.77091 29.5738 8.01619 29.9142 8.59923C29.9991 8.75003 30.5489 9.74011 30.5773 9.87315C30.581 9.88955 30.5892 9.90683 30.5983 9.92051C30.8127 10.245 31.3305 11.7432 31.4768 12.2538C31.7563 13.275 31.9009 14.3689 32.0216 15.4219C32.0261 15.4601 32.0316 15.4988 32.0312 15.5376C32.028 15.6578 32.0448 15.7762 32.0512 15.8956C32.0724 16.2308 32.0627 16.519 32.0601 16.8492ZM26.7447 18.2424C26.5716 19.5066 26.0066 21.2806 25.2932 22.4844C25.0432 22.9062 24.8757 23.2821 24.5553 23.6831L24.3764 23.9472L23.9132 24.5248C23.6237 24.9295 22.6883 25.7511 22.2617 26.0674C21.8513 26.3717 21.5508 26.6323 21.0721 26.8844L20.2856 27.2861C20.0406 27.404 19.9323 27.4984 19.6324 27.6386L19.1469 27.8344C18.8155 27.9495 18.7924 28.0148 18.5084 28.0959L18.5307 27.4145L18.5721 26.7874C18.596 26.3783 18.6524 26.0752 18.4514 25.6738C18.3752 25.5216 18.2924 25.4071 18.174 25.2885C18.6604 24.6619 19.0469 23.8733 19.3482 23.1488C19.4346 22.9412 19.5309 22.7675 19.6028 22.5691C20.0064 21.4548 20.2821 20.2285 20.4212 19.0562L20.5578 17.6488L20.5888 16.9757C20.8575 16.9752 21.1267 16.9744 21.3949 16.9734C21.4874 16.9729 21.5789 16.9643 21.6714 16.968C21.8518 16.9752 22.0321 16.9784 22.2129 16.9734C22.56 16.9638 22.9075 16.9839 23.255 16.958L23.7942 16.927C23.8748 16.9238 23.9564 16.9334 24.037 16.9211C24.1718 16.9001 24.3048 16.8637 24.446 16.8751C24.4524 16.8751 24.4605 16.8741 24.4669 16.8724C24.5892 16.8349 24.7004 16.8772 24.8422 16.8304L25.4657 16.8004C25.7549 16.8027 25.9892 16.7384 26.2268 16.748C26.7085 16.7673 26.5903 16.7028 26.889 16.6555C26.8854 17.0851 26.8086 17.8216 26.7447 18.2424ZM17.7118 29.5434L14.8884 29.5985C14.3714 29.61 13.8543 29.6356 13.3372 29.6244L13.4984 29.1403C13.5413 28.9327 13.5869 28.864 13.5991 28.8019C13.6862 28.3579 13.7044 27.8894 13.7052 27.4383C13.7052 27.4283 13.7048 27.4173 13.7071 27.4073L13.7522 26.097L13.7472 25.8442C13.954 25.9101 13.7884 25.9428 14.3269 26.0059L14.8279 26.0355C15.6105 26.0964 16.1538 26.0904 16.9476 26.0264C17.0613 26.0172 17.1972 25.9941 17.3179 26.1092C17.3472 26.1372 17.3797 26.1428 17.3825 26.178C17.3884 26.1921 17.455 26.2236 17.4827 26.3921C17.4983 26.7317 17.4783 27.129 17.5068 27.4893L17.5533 28.1415C17.5656 28.1706 17.5293 28.1535 17.5524 28.2431C17.5736 28.325 17.5583 28.7856 17.6308 29.0123L17.8229 29.5433H17.7118V29.5434ZM11.1729 29.6804L9.18036 29.792L8.57236 29.844C8.60452 29.7277 8.55652 29.4703 8.617 29.4332C8.68396 29.392 8.58804 29.2 8.62292 29.0688C8.67452 28.8748 8.68516 28.2663 8.71356 28.2321C8.77116 28.1628 8.73596 28.106 8.73996 28.0272L8.78372 26.3908C8.78836 26.1667 8.95244 26.0401 9.17948 26.0387L9.68636 26.0651C10.1509 26.0874 10.3503 26.0852 10.8177 26.0651C10.892 26.0614 10.9657 26.0564 11.04 26.0614C11.1638 26.0687 11.2859 26.0364 11.4098 26.0573H12.5102L12.518 26.6412L12.528 27.5625L12.5589 27.8768C12.5621 27.9236 12.5526 27.9711 12.5648 28.0175C12.5858 28.0958 12.6222 28.1737 12.6108 28.2557C12.61 28.2672 12.6289 28.277 12.6309 28.3832C12.6332 28.5014 12.6613 28.4127 12.6733 28.6205C12.6828 28.7841 12.6822 28.9464 12.7188 29.1074C12.7604 29.2898 12.7141 29.4688 12.7635 29.536C12.7885 29.5705 12.8072 29.6061 12.82 29.643L11.1729 29.6804ZM7.94884 25.3769C7.97484 25.3847 8.00124 25.3911 8.02716 25.3974C8.07628 25.4116 8.14996 25.4945 8.02444 25.3345C8.059 25.3619 8.09276 25.3883 8.12644 25.4156L8.05444 25.504C8.01076 25.4603 7.96476 25.4161 7.94884 25.3769ZM7.71516 24.7772C7.58196 24.6401 7.45316 24.4708 7.29572 24.318C7.22684 24.2512 6.80516 23.7077 6.77244 23.5948C6.74332 23.4944 6.50508 23.1861 6.4154 23.0537C5.98228 22.4141 5.9418 22.3061 5.62428 21.6104C5.335 20.9766 4.92932 19.7479 4.80308 19.0468L4.717 18.5084C4.70948 18.0942 4.64588 17.936 4.61772 17.5739L4.5758 16.7249C4.65164 16.7268 5.01756 16.7008 5.07268 16.7536C5.14116 16.8192 5.4842 16.7264 5.70076 16.7596C5.90596 16.791 6.38748 16.8115 6.61116 16.8206C6.70716 16.8245 7.08308 16.8244 7.13676 16.8502C7.25708 16.908 7.36076 16.8723 7.48924 16.8766C8.74692 16.9083 10.0233 16.9077 11.2817 16.9336C11.3004 17.2959 11.4763 18.3562 11.5504 18.713L11.8251 19.9486C11.4773 19.9486 11.2794 19.9476 10.9279 20.1285C10.3972 20.4016 10.0723 20.9258 10.0748 21.5258L10.0821 22.0145L10.0931 22.9473L10.1232 23.2652C10.1259 23.3131 10.1168 23.3613 10.1286 23.4087C10.1496 23.4875 10.1864 23.5663 10.1755 23.6487C10.1752 23.653 10.1761 23.6572 10.1782 23.661C10.2157 23.7328 10.1726 23.7997 10.2192 23.8828C10.2513 23.9403 10.2352 24.3044 10.2824 24.5113C10.3185 24.6693 10.2932 24.8514 10.3093 24.9003C9.88956 24.9348 9.58556 24.9404 9.16068 24.9458C8.80844 24.9506 8.46852 25.0911 8.2106 25.3292L7.71516 24.7772ZM4.58036 15.8468L4.56804 16.3313C4.58076 16.33 4.59396 16.3276 4.60676 16.3259L5.74444 16.1487C6.8462 15.9828 7.09236 15.9832 8.17108 15.9574L8.67028 15.946C8.84436 15.9266 8.88316 15.9565 8.93396 15.9474L9.71964 15.9242L11.2085 15.89C11.1836 15.128 11.2316 14.5132 11.2996 13.7604C11.321 13.5239 11.4612 12.3814 11.5196 12.1977C11.5288 12.1695 11.5342 12.1362 11.5365 12.1062C11.5757 11.6553 11.916 10.3864 12.0357 9.95059C12.5306 8.14883 13.4037 6.32419 14.5234 4.83139L14.1126 4.88243C13.2041 5.01339 12.1295 5.32899 11.338 5.68675L10.6986 5.99963C10.0612 6.32211 9.1994 6.92059 8.67004 7.36827C7.0846 8.70899 5.97044 10.4295 5.2742 12.3336C5.00348 13.074 4.851 13.75 4.71492 14.5229C4.66172 14.8236 4.5862 15.5412 4.58036 15.8468ZM14.7509 6.42675C14.2033 7.31803 13.6922 8.25267 13.3349 9.24595C12.6636 11.1123 12.3064 12.7322 12.1294 14.699C12.1111 14.9024 12.1289 15.1115 12.066 15.2916L12.0168 15.8828L14.3009 15.8591C14.4312 15.8554 14.5605 15.8445 14.6899 15.8381L16.125 15.8208C16.2097 15.8204 16.2944 15.8095 16.3796 15.8095L18.0046 15.7726L19.3714 15.7476C19.3384 14.8447 19.2763 14.0552 19.1396 13.1616C19.0714 12.7161 18.9795 12.1448 18.8722 11.7214C18.7502 11.2399 18.6266 10.7444 18.4764 10.2704L18.0761 9.11307C17.9156 8.68427 17.7828 8.40619 17.6093 7.99587C17.4304 7.57243 17.3128 7.41747 17.1252 7.05947C16.8087 6.45563 16.1927 5.60243 15.7624 5.07507C15.7588 5.08051 15.7543 5.08459 15.7501 5.08963C15.314 5.60587 15.1123 5.88635 14.7509 6.42675ZM10.9557 24.8878C12.7167 24.8195 13.4882 24.9634 15.1476 24.8418C15.275 24.8324 15.3233 24.8554 15.4264 24.8455C15.3328 24.5399 15.2605 24.2084 15.195 23.8964C15.1209 23.5437 15.1408 22.8492 15.1167 22.7222C15.0932 22.5984 15.1292 22.6076 15.118 22.5669L15.0698 21.5076C15.0603 21.3205 14.9018 21.1134 14.6932 21.0749C14.5306 21.0449 13.9475 21.0888 13.7472 21.1072C13.6423 21.1164 13.6313 21.0974 13.4657 21.1136L12.9024 21.1236C12.8527 21.125 12.8022 21.136 12.7525 21.135C12.3495 21.1313 12.0349 21.163 11.648 21.1783C11.4702 21.1853 11.3165 21.3157 11.3178 21.4971L11.2709 22.7901L11.24 23.5853C11.1812 24.3995 11.1543 24.0872 11.0624 24.5449C11.0274 24.7183 11.0046 24.7428 10.9557 24.8878ZM18.1244 24.1987C18.1945 24.027 18.2514 23.8516 18.3248 23.6795C18.4352 23.4168 18.5081 23.0839 18.5839 22.8055C18.6545 22.546 18.9216 21.6449 18.9346 21.4191C18.9481 21.1828 19.0321 20.9534 19.0348 20.7919C19.0348 20.7805 19.0361 20.7673 19.0398 20.7568C19.0944 20.525 19.1036 20.2991 19.1208 20.0714C19.1304 19.9352 19.1618 19.8013 19.1805 19.667L19.2675 18.7625C19.2965 18.1876 19.3727 17.5626 19.3727 16.9785L18.5342 16.9931L16.6864 16.9921C16.4732 16.9716 16.2628 17.004 16.0506 16.9958C15.7982 16.9868 15.5395 17.0104 15.2868 17.0131C14.189 17.0244 13.092 16.9791 11.9944 16.9548C11.9844 17.2125 11.9999 17.4699 11.9872 17.7268C11.9776 18.0137 12.1181 18.683 12.0719 18.7898C12.025 18.898 12.166 19.7829 12.1894 19.9489L12.5711 19.9516C12.6972 19.9735 12.8207 19.9403 12.9459 19.9484C13.0943 19.9583 13.2475 19.9345 13.3959 19.9316L14.3159 19.9448C14.6893 19.9624 14.9901 19.966 15.3365 20.1662C15.7967 20.432 16.0577 20.9025 16.0908 21.4278C16.1057 21.6652 16.0589 23.1114 16.047 23.4176C16.0429 23.499 16.0785 23.5532 16.0201 23.6258C15.9929 23.6596 15.9809 24.2759 15.93 24.4716C15.8963 24.6008 15.9874 24.7974 15.9268 24.8391L16.3712 24.8359C16.4368 24.8345 16.5028 24.8245 16.5684 24.8222C16.7432 24.8168 17.2727 24.8029 17.437 24.8764C17.6269 24.9613 17.6046 24.9073 17.8578 25.0544C17.8688 25.0253 17.8801 24.9944 17.8938 24.9633C18.0719 24.5544 18.0651 24.3345 18.1244 24.1987ZM17.4936 4.89459L17.0719 4.83907C17.598 5.50963 18.0359 6.25555 18.4405 7.00107C18.633 7.36795 18.8169 7.79187 18.9852 8.17155C20.0005 10.462 20.5758 13.2417 20.6012 15.7352C20.6463 15.7347 20.6918 15.7338 20.7364 15.7338L22.9882 15.7789C23.0055 15.7812 23.0237 15.7808 23.0406 15.7808C23.5212 15.7813 25.1159 15.8013 25.5192 15.9138C25.6644 15.9539 25.8156 15.9698 25.966 15.988C26.2124 16.0169 26.6315 16.1073 26.8841 16.1698C26.8514 14.1098 26.2621 11.9386 25.1798 10.1788C23.768 7.88339 21.5601 6.02179 18.958 5.22723C18.3642 5.04579 18.0768 4.99507 17.4936 4.89459ZM19.1979 34.7181C19.1416 34.9335 19.1596 34.9485 19.003 35.1416C18.7846 35.4109 18.5322 35.4656 18.2119 35.5356C17.8946 35.6049 17.2449 35.25 17.2217 34.6576C17.2217 34.6329 17.2085 34.6093 17.2136 34.5847C17.2397 34.4627 17.2165 34.4753 17.2591 34.3128L17.3379 34.0404C17.346 34.0195 17.3698 34.0095 17.372 33.9835C17.3757 33.9407 17.3748 33.8888 17.4108 33.8664C17.4199 33.8581 17.3911 33.8536 17.4408 33.8072C17.5082 33.7444 17.3853 33.8114 17.5497 33.6542C17.5552 33.6492 17.5624 33.6456 17.5688 33.641L18.7831 33.6182C18.8225 33.6574 19.0004 33.8159 18.9872 33.8582C18.9684 33.9177 19.0112 33.9178 19.0327 33.9524C19.1742 34.1804 19.2494 34.4576 19.1979 34.7181ZM10.5107 34.7181C10.4572 34.9136 10.5223 34.7653 10.43 34.9755C10.3781 35.0938 10.202 35.2863 10.0734 35.3549C9.86132 35.468 9.75764 35.4846 9.525 35.5357C9.37796 35.568 9.1218 35.5016 8.86052 35.2948C8.75148 35.2084 8.70484 35.1606 8.63644 35.0224C8.57885 34.9086 8.54432 34.7847 8.53484 34.6576C8.53436 34.6329 8.52116 34.6093 8.5262 34.5847C8.55252 34.4648 8.52908 34.4723 8.57172 34.3128L8.65052 34.0404C8.65916 34.0195 8.68284 34.0095 8.68516 33.9835C8.68884 33.9407 8.68748 33.8888 8.7234 33.8664C8.73428 33.8565 8.7042 33.8541 8.75436 33.8072C8.8162 33.7494 8.70708 33.7927 8.86228 33.6542C8.92428 33.5988 8.94188 33.6205 9.09732 33.6232L10.108 33.6296C10.1458 33.6676 10.3119 33.8156 10.2997 33.8583C10.282 33.9201 10.3227 33.9162 10.3452 33.9525C10.4859 34.1787 10.5643 34.4612 10.5107 34.7181ZM27.3968 20.6098C27.7247 19.7463 27.9394 18.6458 28.0449 17.7245C28.1697 16.6349 28.1322 15.2366 27.9416 14.1456C27.326 10.591 25.3678 7.49699 22.3209 5.52267C21.1762 4.78091 20.2862 4.39971 19.0385 4.02971C16.2443 3.20107 13.0912 3.56563 10.4948 4.87179C8.83708 5.70867 7.26644 7.00603 6.17124 8.53083C6.10476 8.62243 6.03508 8.70979 5.97036 8.80275C5.02332 10.1739 4.25084 11.8894 3.935 13.5421C3.9106 13.6922 3.86748 13.7918 3.83572 13.9862C3.52044 15.9146 3.57812 18.0509 4.19052 19.9288C4.62116 21.2495 5.3462 22.6362 6.2346 23.7232C6.66468 24.2493 7.46276 25.147 8.02812 25.54C7.8202 25.8372 7.76564 26.1128 7.77988 26.4572L7.81084 27.1864C7.82172 27.2252 7.7862 27.2182 7.80948 27.3404C7.83332 27.4656 7.81388 28.1516 7.8878 28.4995C7.99908 29.0232 8.10252 29.3784 8.23708 29.8717L6.827 29.9892C6.75852 29.9941 6.15692 30.0297 6.2386 30.063C6.30052 30.078 6.36708 30.068 6.42492 30.0899C6.39492 30.1472 6.33036 30.1219 6.4682 30.1496L6.14028 30.1856C6.411 30.2576 7.03724 30.2968 7.30668 30.2798L7.85324 30.3126C7.99004 30.358 8.57636 30.3056 8.84564 30.3285C9.27028 30.3646 9.8778 30.3801 10.3131 30.3955C10.4736 30.4012 11.0528 30.407 11.1529 30.4315C11.3555 30.481 11.5204 30.4559 11.7168 30.4611C14.832 30.5353 17.9497 30.5728 21.0671 30.6424L21.0703 32.409C20.7948 32.4122 20.5201 32.4308 20.2423 32.4136C20.0414 32.4012 19.836 32.4108 19.6324 32.4108L17.2883 32.4122C17.0168 32.4172 16.7449 32.4213 16.473 32.4259L12.7142 32.4323C12.5671 32.4332 12.4196 32.4414 12.2729 32.4382C11.9846 32.4309 11.6959 32.4264 11.4071 32.4323C10.8524 32.4414 10.2963 32.4223 9.74196 32.4482L8.87892 32.4792C8.74956 32.4819 8.6202 32.4724 8.49132 32.4846C8.27452 32.5056 8.06276 32.5424 7.83732 32.5306C7.82632 32.5303 7.81532 32.5312 7.80452 32.5333C7.6118 32.5708 7.42916 32.5297 7.2038 32.5752L6.36988 32.6035L6.34028 32.1339C6.34028 31.4064 6.24564 31.5408 6.19908 30.9174C6.18236 30.6931 6.13348 30.669 6.12668 30.4865C6.1258 30.4542 6.12348 30.4082 6.11572 30.3868C6.08428 30.3034 6.07612 30.2096 6.06148 30.1071C6.03172 30.2756 6.00244 30.2463 5.98636 30.297C5.91764 30.5134 5.90756 30.4073 5.89116 30.4824C5.88047 30.5278 5.86892 30.5731 5.85652 30.6181C5.79572 30.4852 5.71636 30.3124 5.63612 30.1977C5.51596 30.0262 5.51052 29.9646 5.47172 29.9099C5.39508 29.8019 5.40996 29.8495 5.39884 29.725L5.30732 28.9981L5.14748 27.7862C5.0198 26.9875 4.8262 26.2222 4.67884 25.4676C4.6706 25.4216 4.65284 25.3783 4.6442 25.3332L4.49756 24.5684C4.351 24.0432 4.25676 23.3811 4.15828 22.8428C4.11596 22.6182 4.02884 22.1856 3.93964 21.9701C3.7194 21.438 3.32636 21.1777 3.00732 21.0692C2.31868 20.8352 1.64044 21.1295 0.93364 21.3234C0.56388 21.4202 0.76412 21.4339 0.76468 21.4623C0.76572 21.5124 0.70748 21.4999 0.75964 21.5448C0.71532 21.5592 0.65556 21.5698 0.63484 21.5989C0.8046 21.8108 1.13572 21.66 1.18684 21.7515C1.2234 21.8169 1.40724 21.7224 1.52756 21.7565C1.71852 21.8105 2.2754 21.8187 2.30724 21.8476C2.37012 21.9048 2.42164 21.8703 2.45572 21.8777C2.95548 21.9863 3.0022 22.2064 3.07556 22.6761C3.18332 23.4536 3.24668 24.3312 3.39252 25.0836C3.41676 25.2086 3.46524 25.3576 3.4786 25.4899C3.49044 25.6042 3.54148 25.7112 3.54012 25.8288L3.70636 26.8176C3.72364 26.9082 3.74876 26.998 3.76508 27.0885L3.98556 28.3451C3.9942 28.3947 4.0106 28.4425 4.01564 28.4926L4.16956 29.3375L4.24884 29.6216C4.25884 29.664 4.2566 29.7096 4.2762 29.7505C4.309 29.8193 4.35724 29.884 4.3586 29.9609C4.3586 29.9646 4.36092 29.9692 4.36364 29.9719C4.41036 30.0229 4.4142 30.3666 4.61548 30.405C4.67948 30.4172 4.89628 30.6461 5.08508 30.7497C5.24252 30.8362 5.3266 30.9814 5.40932 30.988C5.59076 31.0022 5.61324 31.106 5.69628 31.0886C5.7406 31.0793 5.757 31.102 5.7678 31.1072C5.70204 31.5266 5.62972 31.9783 5.59564 32.4025C5.57924 32.612 5.56468 32.8229 5.53964 33.0306C5.5146 33.2383 5.66124 33.4282 5.86892 33.4564L6.33668 33.5188C6.753 33.5498 7.17108 33.5735 7.591 33.5858L7.42388 33.9406C7.33156 34.1907 7.2854 34.5621 7.3082 34.8205C7.36356 35.4483 7.7358 36.0582 8.27604 36.3868C8.48716 36.5152 8.8878 36.6631 9.15372 36.6984C9.52236 36.7473 9.97004 36.696 10.2996 36.5184L10.6972 36.2761C11.1796 35.9053 11.4911 35.4151 11.517 34.8032C11.5352 34.3738 11.4517 34.0185 11.2351 33.6455C12.9175 33.6823 14.564 33.664 16.2413 33.6568L16.1106 33.9406C16.0181 34.1913 15.9717 34.5615 15.9954 34.8205C16.0527 35.448 16.421 36.0593 16.9636 36.3868C17.3848 36.6409 17.9181 36.7608 18.4069 36.6997L18.7872 36.6114C18.9517 36.5615 19.2447 36.376 19.3844 36.2762C20.085 35.7439 20.3314 35.0097 20.1504 34.1834C20.1328 34.1031 20.1002 34.0743 20.1036 34.0517C20.1134 33.9854 19.932 33.6578 19.8927 33.5995C20.1728 33.5972 20.4533 33.5963 20.733 33.5963C20.8687 33.5963 21.004 33.5858 21.1402 33.5849L21.7091 33.5822C22.0124 33.5817 22.2584 33.334 22.257 33.0307L22.2424 31.3018C22.236 31.0946 22.2252 30.8873 22.222 30.6796L22.2147 29.9969C22.2065 29.7236 21.9788 29.5077 21.7055 29.516C20.6206 29.546 19.4717 29.5336 18.3744 29.5396L18.3652 29.3898C18.427 29.2302 18.4252 28.8595 18.4568 28.8355C18.5145 28.7917 18.4786 28.749 18.4828 28.6993L18.4987 28.3017C18.99 28.272 18.6428 28.357 19.1804 28.263C20.0787 28.106 21.29 27.6353 22.083 27.1649C23.0356 26.5999 23.7245 26.1427 24.5247 25.3263C25.7789 24.0465 26.7732 22.4468 27.3476 20.7559C27.3632 20.7072 27.3786 20.6576 27.3968 20.6098Z" fill="black"/>
</svg>
