<svg width="39" height="28" viewBox="0 0 39 28" fill="none" xmlns="http://www.w3.org/2000/svg">
<path d="M38.0588 12.0595C36.6471 12.2948 35.1765 12.4712 33.7059 12.5301C33.7647 12.2359 33.8824 11.883 33.9412 11.5301C34.6471 8.53006 34.4118 5.29476 32.5294 3.05947C30.8235 1.05947 29.7059 0.58888 28.2353 0.294763C26.5294 -0.234649 24.7059 -0.0581786 23.1176 0.882998C21.5294 1.76535 20.1176 3.53006 19.2353 5.58888C17.7647 1.94182 13.4706 -0.0581785 10.0588 1.47123C7.94118 2.05947 6.11765 3.6477 4.88235 6.00065C3.94118 7.70653 3.41176 10.1771 3.76471 12.4712L0.470588 12.4124C0.235294 12.4124 0.0588235 12.5889 0 12.8242C0 13.0595 0.176471 13.2948 0.411765 13.2948L3.94118 13.3536C4.29412 14.883 5 16.2948 5.88235 17.4124C7.76471 19.6477 10.2353 21.0006 12.6471 22.2359C15.1176 23.5301 17.4706 24.8242 19.1765 27.0006C19.4706 27.3536 19.5882 27.5301 20.2353 27.2948C24.8235 25.4712 28.7059 21.8242 31.5294 17.4712C32.4118 16.1183 33 14.8242 33.4118 13.4712C35 13.4124 36.5882 13.2359 38.1765 13.0006C38.4118 12.9418 38.5882 12.7065 38.5294 12.4712C38.5294 12.1771 38.2941 12.0006 38.0588 12.0595ZM30.2353 16.6477C27.7059 20.4712 24 23.883 19.7059 26.1771C17.8824 24.0006 15.4706 22.7065 13.1176 21.4712C10.7647 20.2359 8.41176 18.9418 6.64706 16.8242C5.88235 15.883 5.29412 14.6477 4.94118 13.3536L10.4118 13.4124C10.5882 13.4124 10.7059 13.3536 10.7647 13.2359C11.4706 12.1771 12.1176 11.0006 12.6471 9.82417C13.0588 13.0006 13.2941 16.1771 13.2941 19.4124C13.2941 19.883 14 20.0006 14.1765 19.5301C14.9412 17.2359 15.8235 15.0006 16.8235 12.883L17.2941 15.9418C17.3529 16.3536 17.9412 16.4712 18.1176 16.0595L19.2353 13.5889L20.7059 13.5301C21.1765 14.5889 22 15.8242 22.2353 16.8242C22.3529 17.2948 22.9412 17.2359 23.0588 16.8242C23.7059 14.7654 24.4706 12.7654 25.3529 10.8242L25.4706 15.5301C25.4706 16.0595 26.2941 16.1183 26.5294 15.5889L29.4118 12.5889L30.0588 13.3536C30.1176 13.4712 30.2353 13.5301 30.4118 13.5301H31.9412C31.4706 14.4712 30.9412 15.5301 30.2353 16.6477ZM32.8823 9.70653C32.8235 10.6477 32.5882 11.5889 32.2353 12.5889H30.5882L29.7647 11.5889C29.6471 11.4124 29.2941 11.3536 29.1176 11.5889L26.3529 14.4712L26.2353 8.883C26.2353 8.41241 25.5882 8.29476 25.4118 8.70653C24.3529 10.883 23.4706 13.1183 22.6471 15.3536C22.2353 14.5301 21.7059 13.6477 21.4118 12.883C21.3529 12.7065 21.1765 12.5889 21 12.5889L18.9412 12.6477C18.7647 12.6477 18.6471 12.7654 18.5294 12.883L17.8824 14.2948L17.4118 11.2948C17.3529 10.883 16.7647 10.7654 16.5882 11.1771C15.6471 13.0595 14.8235 15.0595 14.0588 17.0595C13.9412 14.1183 13.6471 11.1771 13.2353 8.23594C13.1765 7.82418 12.5882 7.70653 12.4118 8.11829C11.7059 9.6477 11 11.2359 10.1176 12.5889L4.70588 12.5301C4.35294 10.4124 4.82353 8.00065 5.64706 6.47123C8.41176 1.23594 13.8235 1.11829 16.2353 4.11829C16.9412 5.00065 17.5294 6.47123 17.8824 7.47123C18.1765 8.29476 19.2941 8.23594 19.5294 7.35359C20.1765 4.94182 21.7647 2.70653 23.5294 1.70653C25.6471 0.530057 28.2353 0.765351 30.0588 2.35359C32 3.94182 33.0588 6.82417 32.8823 9.70653Z" fill="black"/>
</svg>
