<svg width="34" height="36" viewBox="0 0 34 36" fill="none" xmlns="http://www.w3.org/2000/svg">
<path d="M33.2198 2.04509C33.2237 1.20016 32.9913 1.06536 32.1908 1.04125C31.4346 1.02372 30.6982 1.32728 30.0417 1.38756C26.0768 1.7481 21.845 0.554678 17.7612 0.154678C13.2527 -0.288061 10.1908 0.343719 8.78585 0.508103C8.2642 0.570569 7.67242 0.640706 7.20667 0.868651C6.72502 1.10427 6.52228 1.31577 6.45927 1.59358C6.1853 1.7744 5.90639 1.96235 5.66256 2.09495C5.81105 3.54317 5.94585 4.82043 6.0368 6.40838C6.38365 12.478 7.30804 18.7448 6.76667 24.804C4.77763 24.7366 2.71078 24.7125 0.678997 24.8478C0.606202 24.8545 0.536638 24.881 0.477901 24.9245C0.420257 24.9494 0.369287 24.9876 0.329116 25.0358C0.288944 25.0841 0.2607 25.1411 0.246668 25.2024C-0.584565 29.0539 0.800093 32.3897 2.68064 33.3415C3.96393 34.1366 5.43297 34.2467 6.86256 34.4774C14.8971 35.7711 23.1672 35.8418 31.3634 34.5245C31.6993 34.4703 32.0461 34.4095 32.3354 34.2013C33.0127 33.7136 32.9858 32.7213 31.9409 32.3815C31.285 32.1678 30.6204 32.1843 29.9557 32.3223C33.4204 29.5887 33.645 24.8577 33.7037 20.4248C33.7913 13.7613 33.1941 6.23029 33.2198 2.04509ZM0.999544 25.656C2.8927 25.5437 4.81763 25.5618 6.679 25.6232C6.50475 27.0232 6.18639 28.4287 5.53763 29.7262C5.07626 30.6489 4.30859 31.1497 3.45105 31.7223C3.22639 31.8719 2.78694 32.0358 2.52283 32.2456C1.279 31.1525 0.454887 28.5706 0.999544 25.656ZM30.6713 30.4506C28.3256 33.4917 24.1858 33.7591 21.2735 33.6834C16.9404 33.5859 9.87352 34.0648 5.31023 33.1684C5.96009 32.7536 6.65817 31.9985 7.31352 30.6791C8.1316 29.0314 8.4105 27.1558 8.51297 25.2911C8.51297 25.2878 8.51461 25.2856 8.51461 25.2824C9.0127 13.5892 7.23845 1.85714 7.24502 1.80125C7.25489 1.7881 7.30749 1.7344 7.56776 1.60728C8.04228 1.3755 8.839 1.34975 9.42749 1.25221C18.9754 -0.337924 25.4932 3.31194 31.0637 2.03139C31.6784 1.89002 31.9047 1.84509 32.3974 1.87139C32.7316 18.2506 33.9568 26.1887 30.6713 30.4506Z" fill="black"/>
<path d="M29.5409 4.80739C23.451 7.54273 16.4214 0.752046 10.0378 3.96191C9.96395 3.99904 9.90297 4.05761 9.86289 4.12995C9.82281 4.20229 9.80549 4.28504 9.81319 4.36739C10.1146 7.55259 10.0998 10.9027 10.1003 14.117C10.1003 14.1907 10.1201 14.2631 10.1577 14.3265C10.1953 14.3899 10.2492 14.4421 10.3139 14.4775C10.3785 14.5129 10.4515 14.5303 10.5252 14.5278C10.5989 14.5253 10.6705 14.503 10.7326 14.4633C12.5206 13.3181 14.7398 13.8167 16.8598 14.4233C19.5502 15.1931 22.1847 16.6562 25.1041 16.6562C27.0548 16.6562 28.7047 16.0019 29.8559 14.7455C29.9211 14.6744 29.9591 14.5826 29.9633 14.4863C30.1047 11.4167 29.9798 8.2304 30.1195 5.20081C30.1226 5.13074 30.1078 5.06104 30.0764 4.99833C30.045 4.93562 29.998 4.88199 29.94 4.84256C29.882 4.80312 29.8149 4.77918 29.745 4.77303C29.6751 4.76687 29.6049 4.7787 29.5409 4.80739ZM29.1491 14.2967C27.4948 15.9986 25.1447 15.9893 23.4461 15.6742C19.7694 14.9904 14.622 11.7619 10.9222 13.4282C10.9211 10.5038 10.9151 7.48903 10.6576 4.57616C16.4033 1.96684 23.0768 7.97725 29.2729 5.79807C29.1743 8.63643 29.2702 11.5005 29.1491 14.2967Z" fill="black"/>
<path d="M15.7288 6.68942C15.6762 6.67695 15.6216 6.67506 15.5683 6.68386C15.5149 6.69265 15.4638 6.71196 15.418 6.74066C15.3722 6.76937 15.3325 6.80689 15.3013 6.85105C15.2701 6.89521 15.248 6.94513 15.2362 6.99792C15.0389 7.85162 14.9102 8.84559 14.765 9.69929C14.1968 8.83682 13.514 7.90038 13.1683 7.02531C13.0126 6.63079 12.4532 6.70751 12.3814 7.10312C12.1721 8.26148 12.1924 9.68504 12.0521 10.7557C12.0379 10.8638 12.0671 10.9732 12.1335 11.0597C12.1999 11.1462 12.2979 11.2029 12.4061 11.2171C12.5142 11.2313 12.6235 11.202 12.7101 11.1357C12.7966 11.0693 12.8532 10.9712 12.8674 10.8631C12.9557 10.1809 12.9847 9.34696 13.0406 8.56778C13.5337 9.37929 14.1924 10.2631 14.6088 11.0094C14.7913 11.3371 15.2839 11.2675 15.3677 10.9015C15.6389 9.72559 15.7732 8.33326 16.0368 7.18203C16.0612 7.07587 16.0425 6.96436 15.9847 6.87199C15.927 6.77962 15.8349 6.71395 15.7288 6.68942ZM19.3524 7.25271L17.7863 6.98093C17.7304 6.97132 17.6731 6.97336 17.6181 6.98692C17.563 7.00048 17.5113 7.02527 17.4662 7.05973C17.4212 7.0942 17.3837 7.1376 17.3562 7.18721C17.3287 7.23682 17.3117 7.29158 17.3063 7.34805C16.9447 11.2319 16.6691 11.0609 16.8861 11.359C16.9529 11.4522 17.0548 11.5124 17.1677 11.5267C17.731 11.5968 18.6894 11.8845 19.0231 11.8845C19.1274 11.8841 19.2277 11.8441 19.3037 11.7724C19.3796 11.7008 19.4254 11.603 19.4318 11.4988C19.4382 11.3946 19.4047 11.2919 19.3382 11.2115C19.2717 11.1311 19.177 11.079 19.0735 11.0659C18.5102 10.9946 18.1765 10.8713 17.7003 10.7793C17.7513 10.4922 17.7962 10.205 17.8373 9.91901C18.191 10.0187 18.554 10.0815 18.9206 10.1064C19.0266 10.108 19.1292 10.0686 19.2069 9.99648C19.2846 9.92432 19.3314 9.82494 19.3377 9.71908C19.3439 9.61322 19.309 9.50905 19.2403 9.42828C19.1715 9.34752 19.0743 9.2964 18.9688 9.28559C18.6221 9.26329 18.2792 9.20077 17.9469 9.09929C17.9984 8.67682 18.0439 8.26093 18.0828 7.86641L19.211 8.06367C19.3184 8.08169 19.4285 8.05664 19.5176 7.99397C19.6066 7.93129 19.6674 7.83604 19.6866 7.72888C19.7052 7.6215 19.6805 7.51112 19.6178 7.42195C19.5552 7.33279 19.4597 7.27157 19.3524 7.25271ZM24.9151 7.96066C24.923 7.85196 24.8873 7.74459 24.816 7.66218C24.7447 7.57977 24.6435 7.52906 24.5348 7.52121C24.4264 7.51453 24.3197 7.5506 24.2375 7.62169C24.1554 7.69277 24.1044 7.79321 24.0954 7.90148C24.0203 8.94093 24.005 9.89052 24.0488 10.7749C23.7584 10.4648 23.4757 10.1475 23.2587 9.82641C23.224 9.77547 23.1784 9.73295 23.1252 9.70198C23.0719 9.671 23.0124 9.65235 22.951 9.64741C22.8896 9.64247 22.8279 9.65136 22.7704 9.67342C22.7129 9.69549 22.661 9.73016 22.6187 9.7749C22.2652 10.1519 21.8954 10.473 21.3891 10.925C21.4372 9.96582 21.4482 9.0051 21.422 8.04504C21.4148 7.81819 21.2192 7.6297 20.9995 7.64504C20.8904 7.64805 20.787 7.69424 20.712 7.77347C20.637 7.85269 20.5965 7.95845 20.5995 8.06751C20.6351 9.3497 20.6017 10.6478 20.5009 11.925C20.4713 12.3141 20.9502 12.5179 21.2105 12.2374C21.7211 11.6944 22.3173 11.222 22.8746 10.685C23.3102 11.2253 23.8417 11.7261 24.2466 12.2012C24.3039 12.2684 24.3813 12.3153 24.4674 12.335C24.5535 12.3548 24.6436 12.3463 24.7244 12.3108C25.2833 12.0653 24.6439 11.719 24.9151 7.96011V7.96066ZM25.9195 10.102C26.3009 10.9733 27.4548 10.953 27.6735 11.433C27.7672 11.6379 27.6422 11.9607 27.4214 12.085C27.142 12.2396 26.7946 12.1513 26.5611 12.0176C26.4669 11.9672 26.3568 11.9554 26.254 11.9848C26.1513 12.0142 26.064 12.0825 26.0108 12.1752C25.9575 12.2678 25.9425 12.3776 25.9688 12.4812C25.9951 12.5847 26.0608 12.674 26.1518 12.73C26.4348 12.8955 26.7561 12.9841 27.0839 12.987C28.1924 12.987 28.7858 11.89 28.422 11.0911C28.0291 10.2319 26.8822 10.2527 26.6729 9.77271C26.474 9.32011 27.1606 8.33655 27.4718 8.61874C27.5115 8.65531 27.5581 8.68369 27.6088 8.70227C27.6594 8.72085 27.7133 8.72926 27.7672 8.72702C27.8212 8.72478 27.8741 8.71193 27.9231 8.68922C27.9721 8.6665 28.0161 8.63436 28.0526 8.59463C28.5979 7.99956 27.0099 7.03353 26.0998 8.61929C25.7968 9.14805 25.7326 9.67463 25.9195 10.1026V10.102ZM27.7852 19.3355C22.8384 19.6955 18.0658 19.6955 13.6006 19.3355C13.377 19.3261 13.1759 19.4867 13.1573 19.7124C13.1487 19.8212 13.1835 19.9289 13.2542 20.012C13.3248 20.0951 13.4256 20.1468 13.5343 20.1557C18.2614 20.536 23.1162 20.4993 27.8455 20.1557C27.8993 20.1518 27.9519 20.1373 28.0001 20.113C28.0483 20.0887 28.0913 20.0552 28.1265 20.0144C28.1618 19.9735 28.1886 19.9261 28.2056 19.8749C28.2225 19.8236 28.2292 19.7696 28.2252 19.7157C28.2163 19.6074 28.1652 19.5068 28.0829 19.4357C28.0006 19.3646 27.8938 19.3286 27.7852 19.3355ZM27.0642 24.8297C23.0828 24.1568 17.8532 24.1541 11.0768 24.8259C10.9684 24.8367 10.8687 24.8901 10.7996 24.9743C10.7306 25.0586 10.6978 25.1668 10.7085 25.2752C10.7305 25.5009 10.9277 25.6708 11.1579 25.6434C25.7732 24.1968 27.211 26.4341 27.4006 25.3037C27.4096 25.2505 27.4081 25.196 27.3961 25.1434C27.3841 25.0907 27.3618 25.041 27.3305 24.997C27.2993 24.953 27.2597 24.9156 27.214 24.8869C27.1683 24.8581 27.1174 24.8387 27.0642 24.8297ZM20.2806 29.2938C19.0324 29.7442 14.537 29.4089 12.0006 29.2702C11.7924 29.2587 11.5809 29.433 11.5694 29.6598C11.5579 29.8867 11.7321 30.0796 11.9584 30.0911L13.3244 30.1639C14.9228 30.2516 19.1874 30.5607 20.5584 30.0675C20.6566 30.0273 20.7354 29.9508 20.7785 29.8539C20.8216 29.757 20.8256 29.6472 20.7897 29.5474C20.7538 29.4476 20.6808 29.3655 20.5858 29.3182C20.4908 29.271 20.3819 29.2622 20.2806 29.2938ZM1.38525 5.5223C1.47456 5.5223 1.38306 5.52997 3.52114 5.03627C3.62312 5.00753 3.71008 4.94056 3.76392 4.84932C3.81776 4.75807 3.83433 4.64957 3.81018 4.5464C3.78603 4.44324 3.72303 4.35337 3.63428 4.2955C3.54553 4.23763 3.43788 4.21622 3.33374 4.23573L1.29265 4.71134C0.819221 4.82093 0.899769 5.5223 1.38525 5.5223ZM1.16114 2.33326C1.11357 2.43129 1.10688 2.54419 1.14254 2.64714C1.17819 2.7501 1.25328 2.83469 1.35128 2.8823C2.96771 3.65107 2.92388 3.68121 3.091 3.68121C3.52662 3.68121 3.66196 3.08942 3.27073 2.90038L1.71073 2.14312C1.6127 2.09556 1.4998 2.08887 1.39684 2.12452C1.29389 2.16018 1.20875 2.23526 1.16114 2.33326ZM4.26415 2.53381C4.35553 2.47449 4.41962 2.38132 4.44232 2.27477C4.46503 2.16822 4.4445 2.05701 4.38525 1.96559L3.50032 0.604493C3.47168 0.557672 3.43395 0.517061 3.38937 0.485057C3.34478 0.453054 3.29423 0.430305 3.24071 0.418155C3.18719 0.406005 3.13177 0.404699 3.07774 0.414315C3.0237 0.42393 2.97214 0.444272 2.92609 0.474139C2.88005 0.504007 2.84045 0.542795 2.80964 0.588216C2.77883 0.633636 2.75743 0.684768 2.7467 0.738594C2.73597 0.792419 2.73614 0.847849 2.74718 0.901611C2.75822 0.955373 2.77992 1.00638 2.811 1.05162L3.69648 2.41326C3.75589 2.50455 3.8491 2.56852 3.95564 2.59112C4.06219 2.61373 4.1728 2.59311 4.26415 2.53381Z" fill="black"/>
</svg>
