<svg width="34" height="40" viewBox="0 0 34 40" fill="none" xmlns="http://www.w3.org/2000/svg">
<path fill-rule="evenodd" clip-rule="evenodd" d="M6.38057 9.78132C6.54691 10.0402 6.4967 10.0352 6.73658 10.2411C7.02968 10.4743 6.89399 10.3174 7.08234 10.4862C7.54818 10.7635 8.16946 11.5439 8.7378 10.9663C8.83268 10.9663 8.85986 10.8203 8.85939 10.8182C8.83325 10.7729 8.79911 10.8056 8.84199 10.7059C8.73668 10.6863 8.81566 10.6943 8.74899 10.5475C8.7489 10.5474 8.71072 10.4945 8.72605 10.476C8.76451 10.4296 8.71589 10.425 8.7158 10.425C8.34944 9.90441 7.84524 9.23865 7.29025 8.92843C7.26213 8.93351 7.22076 8.94884 7.21775 8.92843C7.11544 8.94734 7.10585 8.8943 7.00269 8.88245C6.9412 8.89007 6.94881 8.82772 6.90151 8.8518C6.53281 8.92317 6.28202 9.45596 6.38057 9.78132ZM1.96183 20.1756C2.15836 21.4057 3.38239 20.7116 4.14181 20.6659C4.15084 20.6498 4.14821 20.6942 4.1735 20.6659C4.50976 20.6411 4.71636 20.1962 4.71749 19.91C4.66229 19.7098 4.64489 19.8208 4.63323 19.7976C4.58753 19.7976 4.60512 19.7249 4.58875 19.7312C4.55434 19.7446 4.57343 19.7967 4.47177 19.7108C4.4414 19.6851 4.36382 19.6863 4.35527 19.6495C4.33975 19.5827 4.33035 19.6293 4.31389 19.6239C3.98412 19.5872 3.57441 19.4429 3.22338 19.4912C2.92595 19.5338 2.44243 19.4134 2.25596 19.6751C2.24271 19.7155 2.17942 19.6796 2.1293 19.7466C2.09611 19.791 2.0552 19.743 2.04194 19.7926C2.00386 19.9355 1.99276 19.8446 1.98063 19.9306C1.97659 19.9612 1.97245 19.9663 1.96681 19.9663C1.93841 20.023 1.94546 20.1213 1.96183 20.1756ZM33.4017 20.2164C33.2486 18.9828 31.7477 19.6498 30.951 19.7056C30.9396 19.6787 30.921 19.7052 30.9065 19.7107C30.8629 19.7276 30.7264 19.6902 30.5904 19.8588C30.4914 19.9857 30.2734 20.2102 30.3391 20.3696C30.3402 20.3696 30.3412 20.3747 30.3417 20.3799C30.2712 20.4441 30.3592 20.6169 30.4024 20.5689C30.4561 20.5689 30.4436 20.6456 30.4586 20.6353C30.5561 20.5681 30.4821 20.6447 30.7119 20.7016C30.7521 20.8098 30.7394 20.7205 30.7896 20.7579C31.0193 20.7716 31.4875 20.8529 31.7131 20.906C32.1064 20.8141 32.7502 20.9741 33.0462 20.7221C33.0546 20.7221 33.0917 20.6534 33.1519 20.6608C33.2014 20.6669 33.1886 20.5995 33.297 20.5995C33.3105 20.5995 33.3121 20.5131 33.3588 20.4821L33.4201 20.3135C33.4108 20.2828 33.4108 20.2828 33.4017 20.2164ZM26.8469 10.6598C26.9262 11.094 26.9041 10.9468 27.0441 11.0939C27.06 11.1995 27.2212 11.2457 27.2163 11.1961L27.2995 11.2063C27.3045 11.1865 27.3041 11.1444 27.3276 11.1502C27.3933 11.1661 27.4867 11.0848 27.5187 11.1042C27.5768 11.1395 27.5308 11.1094 27.5887 11.0889C27.7378 10.9418 28.0813 10.7297 28.2629 10.619C28.357 10.4873 28.69 10.1292 28.8043 10.0061C28.8197 10.0024 28.9381 9.90432 28.9381 9.8069L28.9611 9.77117C28.9552 9.74512 28.9384 9.7029 28.9575 9.6997C28.9385 9.65654 28.9818 9.68324 28.955 9.63331C28.9364 9.59871 29.0021 9.5768 28.9923 9.49536C28.9849 9.43377 29.0481 9.45117 29.0173 9.39832C28.9472 9.27758 29.0127 9.3199 28.9642 9.26047C28.9463 9.24006 28.9438 9.22981 28.9463 9.22473C28.0447 8.14147 27.2581 9.73712 26.8245 10.4863C26.8243 10.4861 26.8469 10.6598 26.8469 10.6598ZM3.13866 14.5213C3.16358 15.1359 4.00631 15.2149 4.45494 15.313C4.49086 15.3157 5.06297 15.5063 5.11591 15.4765C5.13763 15.4687 5.09973 15.502 5.14656 15.4918C5.21944 15.476 5.29391 15.6087 5.57413 15.4254C5.95817 15.1742 5.82003 15.2938 5.9072 15.1139C5.96306 15.0622 5.99512 14.93 5.97152 14.8942C5.95544 14.8737 5.89498 14.89 5.91284 14.8278C5.93334 14.7565 5.85473 14.8415 5.84232 14.7921C5.40356 14.2457 4.47215 13.8803 3.78232 13.7399C3.75834 13.7552 3.72665 13.7858 3.71537 13.7654C3.7069 13.7654 3.71941 13.7868 3.68067 13.7757C3.66384 13.7709 3.63544 13.8283 3.56473 13.7961C3.52288 13.7771 3.47774 13.8343 3.45386 13.8114C3.19367 13.832 3.10264 14.294 3.13866 14.5213ZM3.06559 25.9933C3.52138 27.3154 4.77221 26.1685 5.44183 25.6614C5.46703 25.5795 5.55843 25.1948 5.52655 25.1352C5.39387 24.8837 5.54056 25.0509 5.41569 24.8747C5.35598 24.7905 5.35757 24.8986 5.29617 24.8338C5.26213 24.7682 5.26204 24.8799 5.22818 24.8542C5.16104 24.803 5.06428 24.8561 5.03974 24.8184C5.01623 24.7878 5.00758 24.7878 5.00297 24.8031L4.43962 24.9308C3.98957 24.9842 4.16128 25.0327 3.98609 25.0841L3.31902 25.4008C3.30049 25.4323 3.27285 25.4539 3.25366 25.4723C3.24755 25.4978 3.25009 25.5438 3.23072 25.5387L3.21595 25.5693C3.20091 25.5745 3.22526 25.6323 3.15671 25.6561C3.12136 25.6684 3.12916 25.7481 3.10001 25.7481C3.03165 25.7481 3.09221 25.8507 3.06268 25.8911L3.06729 25.9779C3.06559 25.978 3.06259 25.9831 3.06559 25.9933ZM29.6347 25.5745H29.6404L29.6552 25.6562C29.666 25.6562 29.7136 25.63 29.7196 25.6613C29.7322 25.7271 29.794 25.7554 29.8331 25.8043C29.8396 25.8043 29.8186 25.8775 29.8463 25.8605C30.3732 26.161 31.057 26.6629 31.6749 26.6166C31.6798 26.6166 31.6821 26.592 31.7076 26.6012C31.7181 26.6051 31.764 26.5541 31.8164 26.5808C31.8514 26.5986 31.9025 26.5461 31.9212 26.5604C32.2379 26.5183 32.2744 25.8679 32.2051 25.6665C32.2127 25.5179 31.9927 25.4118 31.9922 25.4111L31.7716 25.263L31.4676 25.1864C31.4651 25.1813 31.4636 25.1864 31.462 25.1813C30.9291 25.1889 30.4925 24.7587 29.9874 25.028C29.6216 25.2808 29.7514 25.1699 29.6681 25.3448C29.6163 25.3858 29.5533 25.5925 29.6347 25.5745ZM29.6138 15.3283L29.67 15.4406C29.6721 15.4406 29.6736 15.4457 29.6761 15.4457C29.6746 15.4531 29.6597 15.5325 29.6849 15.5325C29.8053 15.711 29.7763 15.5465 29.8539 15.6245C29.8891 15.69 29.886 15.5769 29.927 15.5989L30.0568 15.6245C30.0649 15.6245 30.068 15.6092 30.0777 15.6142C30.1084 15.6318 30.1139 15.606 30.1294 15.6296C30.3627 15.6393 30.7677 15.4602 31.0304 15.4611C31.3791 15.1968 31.8875 15.2119 32.1199 14.8123C32.1585 14.6833 32.1914 14.7668 32.224 14.6641C32.5128 14.3121 31.8609 13.5894 31.4691 13.7754C31.1166 13.8023 30.8414 14.0768 30.5641 14.2146C30.116 14.5136 29.5474 14.6861 29.6138 15.3283ZM17.4113 29.8088L17.874 30.0438C17.778 29.8983 17.6588 29.7137 17.5993 29.5535C17.5371 29.6775 17.5057 29.7062 17.4113 29.8088ZM32.0057 30.0898C32.2265 30.4761 32.074 31.0032 31.7048 31.2288C15.1275 43.4998 18.7011 36.5278 1.3949 36.6583L1.38925 30.7792C4.01834 30.4241 6.65834 30.6431 9.18531 29.7527C12.794 27.8423 14.3887 29.6325 17.8241 30.8303C18.8669 31.0212 19.5097 31.6983 19.2854 32.7099H19.2843C19.2885 32.7304 19.2869 32.7202 19.2843 32.7099H19.2859C19.8848 31.8422 19.4647 30.7263 18.5079 30.3655C18.5293 30.2594 18.4647 30.1482 18.5274 30.1153C18.5968 30.0788 18.4782 29.9805 18.5059 29.8956C18.536 29.8036 18.5345 29.4798 18.5345 29.4104C18.5345 29.3753 18.6005 29.3676 18.5692 29.298C18.4611 28.3436 18.4915 26.9288 18.2622 25.9984C18.0745 25.3195 16.9249 25.5066 16.8673 26.1822C16.7941 27.0611 16.5494 28.0627 16.6518 28.9507C16.6507 28.9507 16.6518 28.9557 16.6538 28.9557C16.7089 29.1156 16.6729 29.2232 16.7074 29.4665C16.4847 29.3627 14.6741 28.4863 14.4126 28.3582C14.5881 26.1197 14.6521 22.693 14.7169 20.3798C14.7391 19.8732 14.1929 19.5091 13.7291 19.7515C13.2886 19.9844 12.1881 20.5834 11.7759 20.8395C11.4567 20.9932 11.3241 21.2528 10.9985 20.9263C10.8986 20.8052 10.7856 20.5885 10.9193 20.4768C12.4881 19.2907 14.1397 18.0033 15.4974 16.6C16.6437 17.5501 18.4159 17.5526 19.5326 16.554C20.3337 17.1872 21.1801 17.9821 21.9914 18.6942C21.9915 18.6941 24.2767 20.5279 24.2767 20.5279C24.404 20.6641 24.3843 20.8392 24.2895 20.9774C23.9937 21.408 23.7395 21.1581 23.4467 20.9824C22.6505 20.6402 20.7243 18.8629 20.455 20.4971C20.5916 24.442 20.1464 28.7955 21.0133 32.6332C20.7696 32.719 19.2537 32.8167 20.2063 32.858C20.0999 32.9299 19.9214 32.929 20.1786 32.955C20.0779 32.9629 19.4947 33.0185 19.3773 32.9806C19.404 32.7139 19.2981 32.7814 19.2981 32.7814C19.2428 32.7814 19.2697 32.7405 19.1995 32.7405L19.1888 32.6843C19.1883 32.6843 19.1858 32.6792 19.1821 32.674C19.1817 32.674 19.1791 32.6689 19.1775 32.6689L19.1734 32.6639H19.1652L19.1611 32.6588L19.0109 32.6894C18.9826 32.7215 18.9651 32.811 18.9057 32.7916C18.832 32.7674 18.8812 32.8829 18.8189 32.8937C18.7297 32.9091 18.6135 32.9934 18.5482 33.0111C18.5372 33.0141 18.4914 32.9581 18.4726 32.9958C17.836 33.3073 17.2861 32.8111 16.6864 32.6382C15.8695 32.4686 14.6175 31.8402 13.8056 32.015C13.7537 32.0086 13.7522 32.07 13.5338 32.0457C13.4344 32.0346 13.3508 32.1115 13.282 32.0968C13.0977 32.0574 13.1496 32.1992 13.0241 32.2142C12.9704 32.2207 12.9864 32.2959 12.9465 32.2959C12.9197 32.2959 12.9502 32.302 12.8837 32.3827C13.2252 33.4443 15.4274 33.5764 16.2936 33.91C17.3416 34.2409 19.2176 34.6237 19.3746 33.016C23.1398 33.9677 31.5018 28.0558 32.0057 30.0898ZM33.0355 29.8241C34.7935 32.3821 21.4124 39.3296 19.19 39.6977C16.5911 40.5419 14.08 39.4209 11.5722 38.7371C8.07111 38.0287 4.23914 38.2464 0.669145 38.0017C0.297711 37.9804 0.0160802 37.6755 0.0148578 37.302L0 30.1614C0.00103437 29.7936 0.284547 29.4922 0.641499 29.4565C3.0103 29.2012 5.41606 29.1732 7.7592 28.8232C9.7892 28.4001 11.5461 26.9686 13.9335 28.1335C13.404 25.9956 13.5401 23.5771 13.4655 21.3861L12.3648 22.0246C10.8196 23.2921 8.63108 21.2445 9.79465 19.6597C11.2591 18.3877 13.2174 16.9017 15.0341 16.1507C15.0362 16.1456 15.0398 16.1456 15.0417 16.1456C13.8716 14.7692 14.2783 12.3576 15.9509 11.5997C16.454 11.4436 17.2455 11.2677 17.5849 11.804C17.4511 11.8793 17.5112 11.896 17.4557 11.896C17.3779 11.896 17.4065 11.9666 17.3101 11.9879C17.1108 12.0319 17.1765 12.1307 16.9786 12.182C15.3141 12.8929 15.3071 15.6519 17.2949 15.977C19.5967 16.3023 20.3107 12.9479 18.1917 12.2177C18.0158 12.0176 17.7594 12.1547 17.585 11.9267C17.6141 11.884 17.6609 11.8991 17.728 11.8706C17.6769 11.8706 17.7321 11.7975 17.7403 11.7786C17.493 11.6237 18.2549 11.6364 18.3543 11.6356C20.5776 11.69 21.2789 14.7922 19.8606 16.2377C21.1139 16.8522 22.4198 17.6864 23.5192 18.5361C23.7272 14.807 21.995 12.7304 20.3315 9.61798C12.2754 5.92199 15.2745 -2.71717 20.5705 0.842849C21.1158 0.521159 21.8559 0.370423 22.3863 0.771289C22.322 0.796866 22.2586 0.801944 22.2223 0.853005C22.2011 0.884694 22.1126 0.851594 22.039 0.924564C21.9405 1.02208 21.7261 1.00224 21.563 1.19529C21.48 1.29336 21.1838 1.36248 20.974 1.62436C20.494 2.44302 20.0729 1.67749 19.573 1.41486C18.6209 1.02386 17.4225 1.37075 16.8991 2.27818C15.9509 4.61859 18.584 7.21805 20.4857 8.26954C23.0785 7.1322 26.7121 2.12039 22.3863 0.898987C22.4281 0.864665 22.5814 0.853005 22.6386 0.853005C22.5959 0.814263 22.5551 0.855167 22.6586 0.76104C22.3231 0.625725 22.9459 0.65732 23.0467 0.674153C28.008 1.95386 23.9832 8.21387 20.9157 9.46461C23.333 11.662 26.0376 15.8098 24.2005 19.0519L24.931 19.5934C26.4994 20.7253 24.7039 23.2382 23.1054 22.234C22.6697 22.0008 22.2313 21.7727 21.7903 21.5496C21.7099 24.5966 22.4032 30.0429 21.0337 32.6284C23.8936 31.9359 27.6706 29.8115 30.4887 28.6496C31.5094 28.2129 32.6689 28.8243 33.0355 29.8241Z" fill="black"/>
</svg>
