<svg width="72" height="29" viewBox="0 0 72 29" fill="none" xmlns="http://www.w3.org/2000/svg">
<path d="M0 14.1478C0.393333 19.3333 0.958889 23.3911 1.35222 28.5767C22.6956 28.2011 43.0622 28.6522 64.33 28.6522C64.43 28.3022 64.8389 27.5578 65.14 26.9633C65.5189 26.8622 65.8178 26.5244 65.7578 25.9967C65.1756 21.2278 65.5356 18.0944 64.4622 13.7233C64.4096 13.5087 64.2739 13.3237 64.0849 13.2091C63.8959 13.0945 63.6691 13.0596 63.4544 13.1122C63.2398 13.1648 63.0548 13.3006 62.9402 13.4895C62.8256 13.6785 62.7907 13.9053 62.8433 14.12C63.7989 18.0078 63.5611 21.0567 64.0044 25.3389C49.2233 25.3411 36.8156 25.4189 4.36667 25.4556C3.99444 21.5489 3.80556 17.0911 3.41 12.9022C22.7711 12.8989 42.2489 12.8022 61.7989 12.8022C62.0199 12.8022 62.2319 12.7144 62.3881 12.5581C62.5444 12.4019 62.6322 12.1899 62.6322 11.9689C62.6322 11.7479 62.5444 11.5359 62.3881 11.3796C62.2319 11.2234 62.0199 11.1356 61.7989 11.1356C42.1211 11.1356 22.6122 11.2333 2.87556 11.2356C2.27889 10.9111 1.28222 11.4656 1.46778 12.2578C1.48 12.3122 1.50556 12.3578 1.52778 12.4067C1.01889 12.8889 0.571111 13.4622 0 14.1478Z" fill="black"/>
<path d="M15.6345 17.77C15.5535 17.5645 15.3942 17.3996 15.1917 17.3115C14.9892 17.2234 14.76 17.2192 14.5545 17.3L13.2367 17.8189L13.5522 16.3522C13.5779 16.2443 13.5817 16.1324 13.5635 16.023C13.5454 15.9136 13.5055 15.8089 13.4464 15.7151C13.3872 15.6213 13.3099 15.5402 13.219 15.4766C13.1282 15.4131 13.0255 15.3683 12.9171 15.3449C12.8087 15.3216 12.6967 15.3201 12.5877 15.3406C12.4787 15.361 12.3749 15.403 12.2823 15.4642C12.1898 15.5253 12.1103 15.6042 12.0487 15.6964C11.9871 15.7886 11.9445 15.8922 11.9234 16.0011L11.53 17.8266C11.0245 17.4166 10.5122 17.0133 10.0256 16.5866C9.94329 16.5144 9.84757 16.4591 9.7439 16.4239C9.64023 16.3886 9.53063 16.3742 9.42137 16.3813C9.2007 16.3957 8.99478 16.4971 8.84891 16.6633C8.70305 16.8295 8.62917 17.0469 8.64355 17.2675C8.65793 17.4882 8.75938 17.6941 8.92558 17.84C9.37225 18.2311 9.84225 18.5977 10.3034 18.9755L8.51891 19.6789C8.31885 19.7637 8.15985 19.9234 8.07581 20.1238C7.99178 20.3242 7.98936 20.5495 8.06907 20.7517C8.14878 20.9539 8.30431 21.1169 8.50251 21.206C8.7007 21.2952 8.92588 21.3034 9.13003 21.2289L10.9511 20.5111L10.5989 22.1444C10.571 22.253 10.5654 22.3661 10.5822 22.477C10.5991 22.5878 10.6381 22.6941 10.697 22.7895C10.7559 22.8849 10.8335 22.9674 10.925 23.0321C11.0166 23.0968 11.1202 23.1424 11.2298 23.1661C11.3394 23.1898 11.4526 23.1912 11.5628 23.1701C11.6729 23.149 11.7776 23.106 11.8707 23.0434C11.9638 22.9809 12.0433 22.9003 12.1044 22.8063C12.1656 22.7124 12.2072 22.607 12.2267 22.4966L12.6034 20.7533C13.0645 21.0911 13.5189 21.4422 13.9889 21.7622C14.0794 21.8238 14.1811 21.8671 14.2883 21.8894C14.3954 21.9117 14.506 21.9128 14.6135 21.8924C14.7211 21.872 14.8236 21.8306 14.9152 21.7706C15.0067 21.7107 15.0856 21.6332 15.1472 21.5428C15.2089 21.4523 15.2521 21.3506 15.2745 21.2434C15.2968 21.1362 15.2978 21.0257 15.2774 20.9181C15.257 20.8106 15.2157 20.7081 15.1557 20.6165C15.0957 20.5249 15.0183 20.4461 14.9278 20.3844C14.4922 20.0878 14.0722 19.7622 13.6434 19.4511L15.1656 18.8511C15.3711 18.7699 15.536 18.6104 15.6239 18.4076C15.7118 18.2049 15.7156 17.9755 15.6345 17.77ZM31.1656 17.67C31.0846 17.4645 30.9253 17.2996 30.7228 17.2115C30.5203 17.1234 30.2911 17.1192 30.0856 17.2L28.7678 17.7189L29.0834 16.2522C29.109 16.1443 29.1128 16.0324 29.0947 15.923C29.0765 15.8136 29.0366 15.7089 28.9775 15.6151C28.9183 15.5213 28.841 15.4402 28.7501 15.3766C28.6593 15.3131 28.5566 15.2683 28.4482 15.2449C28.3398 15.2216 28.2278 15.2201 28.1188 15.2406C28.0098 15.261 27.906 15.303 27.8134 15.3642C27.7209 15.4253 27.6414 15.5042 27.5798 15.5964C27.5182 15.6886 27.4756 15.7922 27.4545 15.9011L27.0611 17.7266C26.5556 17.3166 26.0434 16.9133 25.5567 16.4866C25.475 16.4109 25.379 16.3522 25.2743 16.3142C25.1697 16.2761 25.0584 16.2595 24.9471 16.2652C24.8359 16.2709 24.7269 16.2988 24.6267 16.3474C24.5264 16.3959 24.4369 16.464 24.3634 16.5478C24.29 16.6315 24.234 16.7291 24.1989 16.8348C24.1638 16.9405 24.1503 17.0522 24.159 17.1632C24.1678 17.2743 24.1988 17.3824 24.2501 17.4813C24.3014 17.5802 24.3721 17.6678 24.4578 17.7389C24.9034 18.13 25.3745 18.4978 25.8356 18.8744L24.05 19.5777C23.8443 19.6588 23.6793 19.8182 23.5911 20.021C23.503 20.2237 23.499 20.4532 23.58 20.6589C23.6611 20.8646 23.8205 21.0296 24.0232 21.1178C24.226 21.2059 24.4554 21.2099 24.6611 21.1289L26.4822 20.4111L26.13 22.0455C26.1018 22.1543 26.0958 22.2676 26.1125 22.3787C26.1291 22.4899 26.1681 22.5965 26.2271 22.6921C26.286 22.7878 26.3637 22.8706 26.4554 22.9354C26.5471 23.0003 26.651 23.046 26.7609 23.0697C26.8707 23.0934 26.9842 23.0946 27.0945 23.0733C27.2049 23.052 27.3097 23.0086 27.4029 22.9458C27.496 22.8829 27.5754 22.8018 27.6364 22.7075C27.6974 22.6131 27.7387 22.5074 27.7578 22.3966L28.1345 20.6533C28.5956 20.9911 29.05 21.3411 29.52 21.6611C29.6103 21.7253 29.7125 21.7708 29.8207 21.7951C29.9288 21.8193 30.0406 21.8217 30.1497 21.8022C30.2588 21.7827 30.3629 21.7416 30.4559 21.6814C30.5489 21.6211 30.6289 21.543 30.6913 21.4514C30.7538 21.3599 30.7973 21.2568 30.8194 21.1483C30.8416 21.0397 30.8418 20.9278 30.8202 20.8191C30.7985 20.7105 30.7554 20.6072 30.6934 20.5154C30.6314 20.4236 30.5517 20.3451 30.4589 20.2844C30.0222 19.9866 29.6034 19.6622 29.1745 19.35L30.6967 18.75C30.902 18.6688 31.0666 18.5094 31.1545 18.307C31.2424 18.1045 31.2464 17.8754 31.1656 17.67ZM44.7934 17.4689C44.7533 17.367 44.6935 17.274 44.6174 17.1953C44.5414 17.1165 44.4506 17.0535 44.3502 17.0099C44.2498 16.9662 44.1418 16.9428 44.0323 16.9409C43.9228 16.939 43.8141 16.9587 43.7122 16.9989L42.3945 17.5189L42.7111 16.0522C42.7368 15.9443 42.7406 15.8324 42.7224 15.723C42.7043 15.6136 42.6644 15.5089 42.6053 15.4151C42.5461 15.3213 42.4688 15.2402 42.3779 15.1766C42.287 15.1131 42.1844 15.0683 42.076 15.0449C41.9676 15.0216 41.8556 15.0201 41.7466 15.0406C41.6376 15.061 41.5337 15.103 41.4412 15.1642C41.3486 15.2253 41.2692 15.3042 41.2076 15.3964C41.146 15.4886 41.1033 15.5922 41.0822 15.7011L40.6889 17.5266C40.1834 17.1155 39.6711 16.7133 39.1845 16.2855C39.0183 16.1397 38.8009 16.0658 38.5803 16.0802C38.3596 16.0945 38.1537 16.196 38.0078 16.3622C37.8619 16.5284 37.7881 16.7457 37.8024 16.9664C37.8168 17.1871 37.9183 17.393 38.0845 17.5389C38.5311 17.93 39.0011 18.2978 39.4622 18.6744L37.6778 19.3778C37.576 19.4179 37.483 19.4777 37.4043 19.5537C37.3255 19.6298 37.2625 19.7206 37.2189 19.821C37.1753 19.9214 37.1518 20.0294 37.1499 20.1388C37.148 20.2483 37.1677 20.357 37.2078 20.4589C37.2479 20.5607 37.3077 20.6537 37.3838 20.7324C37.4598 20.8111 37.5506 20.8741 37.651 20.9178C37.7514 20.9614 37.8594 20.9849 37.9689 20.9868C38.0783 20.9887 38.1871 20.969 38.2889 20.9289L40.11 20.2111L39.7578 21.8444C39.7331 21.9519 39.7301 22.0633 39.7488 22.172C39.7675 22.2807 39.8076 22.3847 39.8667 22.4778C39.9259 22.5709 40.003 22.6513 40.0935 22.7144C40.184 22.7775 40.2861 22.822 40.3939 22.8453C40.5017 22.8686 40.6131 22.8703 40.7216 22.8502C40.8301 22.8301 40.9335 22.7887 41.0258 22.7284C41.1182 22.6681 41.1976 22.59 41.2596 22.4987C41.3215 22.4074 41.3647 22.3047 41.3867 22.1966L41.7622 20.4533C42.2234 20.7911 42.6778 21.1411 43.1478 21.4611C43.2383 21.5227 43.34 21.566 43.4472 21.5883C43.5543 21.6106 43.6649 21.6116 43.7724 21.5913C43.88 21.5709 43.9825 21.5295 44.074 21.4695C44.1656 21.4095 44.2445 21.3321 44.3061 21.2416C44.3678 21.1512 44.411 21.0495 44.4333 20.9423C44.4557 20.8351 44.4567 20.7246 44.4363 20.617C44.4159 20.5095 44.3746 20.407 44.3146 20.3154C44.2546 20.2238 44.1772 20.145 44.0867 20.0833C43.65 19.7866 43.23 19.4611 42.8011 19.15L44.3234 18.55C44.4252 18.5099 44.5182 18.4501 44.597 18.3741C44.6757 18.298 44.7387 18.2072 44.7824 18.1068C44.826 18.0064 44.8494 17.8984 44.8513 17.7889C44.8532 17.6795 44.8335 17.5707 44.7934 17.4689ZM58.7222 17.2689C58.6821 17.167 58.6224 17.074 58.5463 16.9953C58.4703 16.9165 58.3795 16.8535 58.2791 16.8099C58.1787 16.7662 58.0707 16.7428 57.9612 16.7409C57.8517 16.739 57.743 16.7587 57.6411 16.7989L56.3222 17.3189L56.6389 15.8522C56.6636 15.7447 56.6667 15.6333 56.648 15.5246C56.6293 15.4159 56.5892 15.312 56.53 15.2189C56.4708 15.1258 56.3937 15.0453 56.3032 14.9822C56.2127 14.9192 56.1106 14.8747 56.0028 14.8513C55.895 14.828 55.7836 14.8264 55.6751 14.8464C55.5667 14.8665 55.4632 14.9079 55.3709 14.9682C55.2785 15.0286 55.1991 15.1066 55.1371 15.1979C55.0752 15.2892 55.032 15.3919 55.01 15.5L54.6167 17.3255C54.1111 16.9155 53.6 16.5133 53.1122 16.0855C53.0299 16.0134 52.9342 15.9581 52.8306 15.923C52.727 15.8878 52.6174 15.8734 52.5082 15.8806C52.2876 15.895 52.0819 15.9965 51.9361 16.1627C51.7904 16.329 51.7167 16.5462 51.7312 16.7668C51.7456 16.9874 51.8472 17.1931 52.0134 17.3389C52.4589 17.73 52.93 18.0966 53.3911 18.4744L51.6056 19.1766C51.5037 19.2168 51.4108 19.2766 51.332 19.3526C51.2533 19.4287 51.1903 19.5195 51.1467 19.6199C51.0585 19.8226 51.0545 20.0521 51.1356 20.2577C51.2166 20.4634 51.376 20.6285 51.5788 20.7167C51.7815 20.8048 52.011 20.8088 52.2167 20.7277L54.0389 20.01L53.6856 21.6444C53.6609 21.7519 53.6578 21.8633 53.6765 21.972C53.6952 22.0807 53.7353 22.1847 53.7945 22.2778C53.8537 22.3709 53.9307 22.4513 54.0212 22.5144C54.1117 22.5775 54.2139 22.622 54.3217 22.6453C54.4295 22.6686 54.5409 22.6703 54.6494 22.6502C54.7578 22.6301 54.8613 22.5887 54.9536 22.5284C55.046 22.4681 55.1254 22.39 55.1874 22.2987C55.2493 22.2074 55.2925 22.1047 55.3145 21.9966L55.69 20.2522C56.1511 20.59 56.6056 20.9411 57.0756 21.26C57.1659 21.3242 57.2681 21.3697 57.3762 21.394C57.4843 21.4182 57.5962 21.4206 57.7053 21.4011C57.8143 21.3816 57.9184 21.3405 58.0114 21.2803C58.1044 21.22 58.1845 21.1419 58.2469 21.0503C58.3093 20.9588 58.3529 20.8557 58.375 20.7471C58.3971 20.6386 58.3974 20.5267 58.3757 20.418C58.3541 20.3093 58.311 20.2061 58.2489 20.1143C58.1869 20.0225 58.1072 19.9439 58.0145 19.8833C57.5789 19.5866 57.1589 19.2611 56.73 18.95L58.2522 18.35C58.3541 18.3099 58.4471 18.2501 58.5258 18.1741C58.6046 18.098 58.6676 18.0072 58.7112 17.9068C58.7549 17.8064 58.7783 17.6984 58.7802 17.5889C58.7821 17.4795 58.7624 17.3707 58.7222 17.2689ZM60.6556 8.27553C60.7641 8.28956 60.8744 8.28207 60.9801 8.25347C61.0857 8.22488 61.1847 8.17575 61.2714 8.10889C61.3581 8.04203 61.4307 7.95874 61.4852 7.86379C61.5397 7.76885 61.5749 7.6641 61.5889 7.55553C61.8689 5.36886 62.3689 3.19997 63.0756 1.10997C63.1122 1.00591 63.1278 0.89561 63.1215 0.785471C63.1151 0.675333 63.087 0.567546 63.0387 0.468368C62.9903 0.36919 62.9228 0.280596 62.84 0.207718C62.7572 0.134841 62.6607 0.0791316 62.5562 0.0438262C62.4517 0.00852071 62.3412 -0.00568048 62.2311 0.00204674C62.1211 0.00977395 62.0137 0.0392749 61.9151 0.0888396C61.8165 0.138404 61.7288 0.207045 61.657 0.290781C61.5852 0.374517 61.5307 0.471685 61.4967 0.576642C60.7535 2.775 60.2302 5.04165 59.9345 7.3433C59.9205 7.45203 59.928 7.56246 59.9568 7.66826C59.9855 7.77405 60.0348 7.87314 60.1019 7.95984C60.169 8.04654 60.2525 8.11916 60.3477 8.17352C60.4429 8.22788 60.5479 8.26292 60.6567 8.27664L60.6556 8.27553ZM65.4889 8.72553L70.2256 3.8422C70.3774 3.68313 70.4602 3.47049 70.4559 3.25064C70.4517 3.03078 70.3607 2.82153 70.2028 2.66848C70.0449 2.51543 69.8329 2.43098 69.613 2.43355C69.3931 2.43612 69.1832 2.52549 69.0289 2.68219L64.2922 7.56553C64.1404 7.7246 64.0576 7.93723 64.0619 8.15708C64.0662 8.37694 64.1572 8.58619 64.3151 8.73925C64.4729 8.8923 64.6849 8.97674 64.9048 8.97417C65.1247 8.9716 65.3346 8.88223 65.4889 8.72553ZM66.57 11.75C66.6212 11.8467 66.691 11.9325 66.7753 12.0022C66.8596 12.072 66.9569 12.1245 67.0615 12.1567C67.1662 12.1889 67.2761 12.2002 67.3851 12.1899C67.4941 12.1796 67.6 12.1479 67.6967 12.0966L71.5011 10.0855C71.6965 9.98209 71.8428 9.80528 71.9078 9.59399C71.9728 9.3827 71.9512 9.15424 71.8478 8.95886C71.7444 8.76349 71.5676 8.6172 71.3563 8.55219C71.145 8.48717 70.9165 8.50876 70.7211 8.6122L66.9178 10.6233C66.8209 10.6744 66.7351 10.7441 66.6652 10.8284C66.5953 10.9127 66.5427 11.0099 66.5104 11.1146C66.4781 11.2192 66.4667 11.3292 66.477 11.4382C66.4872 11.5472 66.5188 11.6532 66.57 11.75Z" fill="black"/>
</svg>
