<svg width="42" height="50" viewBox="0 0 42 50" fill="none" xmlns="http://www.w3.org/2000/svg">
<path d="M31.2508 49.5277C33.3257 49.5154 35.0094 47.8241 35.0094 45.763C35.4091 32.0894 35.4091 18.7233 35.0094 6.05526C35.0094 3.97185 33.3165 2.27668 31.2946 2.27668H31.2884C24.8199 1.59707 15.0002 1.89459 6.27064 2.2736C5.59478 2.27721 4.93249 2.4637 4.35406 2.81329C3.07634 2.86864 2.05155 4.09716 1.57182 5.27186C0.8976 6.92321 1.00062 7.63588 0.563947 20.1356C0.344074 26.4204 0.12497 32.706 0.0134965 38.9939C-0.0303243 41.5078 -0.0333989 44.1324 1.08826 46.3834C2.20992 48.6337 4.82532 50.3511 7.2247 49.5992C6.78419 49.6654 6.33368 49.6223 5.90854 49.4932C13.0506 50.1189 22.2406 50.2043 31.2508 49.5277ZM3.6437 6.05526C3.6437 4.6061 4.82148 3.42601 6.29601 3.42601C13.3404 3.1208 24.2633 2.69951 31.2285 3.42601C32.6776 3.42601 33.8562 4.6061 33.8562 6.07294C33.8785 6.77945 33.8946 7.49519 33.9146 8.20555C33.5725 7.74889 35.1785 8.06947 3.59911 7.96876C3.61679 7.33298 3.62371 6.68874 3.64293 6.05449L3.6437 6.05526ZM3.5722 9.12194C35.0885 9.00893 33.5933 9.36718 33.9323 8.85825C34.1991 18.7986 34.2244 29.1311 34.0046 39.6973C1.76094 39.7434 3.81437 39.5997 3.50993 39.7995C3.29094 29.5746 3.3117 19.3459 3.5722 9.12194ZM3.64293 45.7292C3.59373 44.0724 3.56836 42.418 3.53146 40.7621C3.82052 40.9335 1.74019 40.8105 33.9823 40.8505C33.9454 42.4772 33.9039 44.1093 33.8562 45.7469C33.8554 46.4435 33.5783 47.1114 33.0857 47.604C32.593 48.0966 31.9251 48.3738 31.2285 48.3746C30.4374 48.3746 20.2602 49.447 6.27064 48.3746C5.92439 48.3737 5.58173 48.3045 5.26222 48.1711C4.94272 48.0376 4.65266 47.8425 4.40861 47.5969C4.16456 47.3513 3.97133 47.06 3.83995 46.7397C3.70856 46.4193 3.64162 46.0754 3.64293 45.7292Z" fill="black"/>
<path d="M16.1687 4.90976C16.1009 4.87621 16.027 4.85638 15.9515 4.8514C15.8759 4.84643 15.8001 4.8564 15.7284 4.88075C15.6567 4.9051 15.5905 4.94335 15.5337 4.99331C15.4768 5.04327 15.4303 5.10397 15.3969 5.17191L15.2639 5.4433C15.1971 5.58042 15.1875 5.7384 15.2369 5.88265C15.2864 6.0269 15.391 6.14568 15.5279 6.21298C15.6647 6.28028 15.8226 6.29063 15.9671 6.24177C16.1116 6.1929 16.2308 6.08879 16.2987 5.95223L16.4317 5.68085C16.4989 5.54371 16.509 5.38549 16.4597 5.24092C16.4104 5.09635 16.3058 4.97725 16.1687 4.90976ZM21.3626 5.12117H19.237C19.084 5.12117 18.9374 5.18192 18.8292 5.29005C18.7211 5.39819 18.6604 5.54484 18.6604 5.69776C18.6604 5.85068 18.7211 5.99734 18.8292 6.10547C18.9374 6.21361 19.084 6.27435 19.237 6.27435H21.3634C21.5163 6.27435 21.663 6.21361 21.7711 6.10547C21.8793 5.99734 21.94 5.85068 21.94 5.69776C21.94 5.54484 21.8793 5.39819 21.7711 5.29005C21.663 5.18192 21.5156 5.12117 21.3626 5.12117Z" fill="black"/>
<path d="M17.8415 46.2397C18.6347 46.2397 19.2776 45.4202 19.2776 44.4092C19.2776 43.3983 18.6347 42.5788 17.8415 42.5788C17.0484 42.5788 16.4055 43.3983 16.4055 44.4092C16.4055 45.4202 17.0484 46.2397 17.8415 46.2397Z" fill="black"/>
<path d="M38.1583 0.0942436C38.0304 0.0105044 37.8745 -0.0190433 37.7249 0.0120948C37.5752 0.0432328 37.4441 0.132509 37.3603 0.260301L35.6582 2.85879C35.5807 2.98678 35.5559 3.13985 35.5891 3.28574C35.6222 3.43164 35.7107 3.55896 35.8359 3.64089C35.9611 3.72282 36.1132 3.75295 36.2602 3.72494C36.4071 3.69693 36.5375 3.61297 36.6238 3.49074L38.3235 0.892243C38.3651 0.82901 38.3939 0.758196 38.4081 0.683852C38.4223 0.609507 38.4217 0.533091 38.4063 0.458975C38.391 0.384858 38.3612 0.314495 38.3186 0.251911C38.276 0.189327 38.2215 0.13575 38.1583 0.0942436ZM37.1596 6.70503C37.2585 6.70484 37.3557 6.67916 37.4417 6.63046C38.6559 5.94554 39.8108 5.16045 40.8944 4.28335C40.9552 4.23643 41.006 4.17781 41.0439 4.11095C41.0818 4.04409 41.1059 3.97034 41.1149 3.89403C41.1238 3.81772 41.1174 3.74038 41.0961 3.66657C41.0747 3.59276 41.0388 3.52396 40.9905 3.46422C40.9422 3.40447 40.8824 3.35499 40.8147 3.31867C40.747 3.28236 40.6727 3.25994 40.5962 3.25274C40.5197 3.24555 40.4426 3.25371 40.3693 3.27676C40.296 3.2998 40.228 3.33727 40.1694 3.38695C39.1358 4.22358 38.0342 4.97241 36.8759 5.62565C36.3608 5.91472 36.5669 6.70503 37.1596 6.70503ZM37.7085 9.93546L40.8736 10.6197C41.0203 10.6448 41.1711 10.6123 41.2945 10.5289C41.4178 10.4456 41.5042 10.3177 41.5355 10.1722C41.5669 10.0267 41.5408 9.87462 41.4627 9.74785C41.3847 9.62108 41.2606 9.52937 41.1165 9.49187L37.9514 8.80765C37.8021 8.77733 37.6468 8.80658 37.5186 8.88916C37.3905 8.97175 37.2997 9.10113 37.2657 9.24971C37.2335 9.39936 37.2621 9.55567 37.3451 9.68426C37.4282 9.81286 37.5589 9.90321 37.7085 9.93546Z" fill="black"/>
</svg>
