<svg width="24" height="24" viewBox="0 0 24 24" fill="none" xmlns="http://www.w3.org/2000/svg">
<path d="M12 10C14.2091 10 16 8.20914 16 6C16 3.79086 14.2091 2 12 2C9.79086 2 8 3.79086 8 6C8 8.20914 9.79086 10 12 10Z" stroke="#99A1AF" stroke-width="1.5"/>
<path d="M18 9C19.6569 9 21 7.88071 21 6.5C21 5.11929 19.6569 4 18 4" stroke="#99A1AF" stroke-width="1.5" stroke-linecap="round"/>
<path d="M6 9C4.34315 9 3 7.88071 3 6.5C3 5.11929 4.34315 4 6 4" stroke="#99A1AF" stroke-width="1.5" stroke-linecap="round"/>
<path d="M12 21C15.3137 21 18 19.2091 18 17C18 14.7909 15.3137 13 12 13C8.68629 13 6 14.7909 6 17C6 19.2091 8.68629 21 12 21Z" stroke="#99A1AF" stroke-width="1.5"/>
<path d="M20.3954 20C21.3856 19.4022 22 18.3994 22 17.25C22 16.1006 21.3856 15.0978 20.3954 14.5" stroke="#99A1AF" stroke-width="1.5" stroke-linecap="round"/>
<path d="M3.60461 20C2.61443 19.4022 2 18.3994 2 17.25C2 16.1006 2.61443 15.0978 3.60461 14.5" stroke="#99A1AF" stroke-width="1.5" stroke-linecap="round"/>
</svg>
