<svg width="35" height="38" viewBox="0 0 35 38" fill="none" xmlns="http://www.w3.org/2000/svg">
<path d="M21.2583 29.2183C21.7759 29.1342 21.7418 28.3642 21.1983 28.3506C21.3294 27.9406 21.5536 27.5171 21.7024 27.08C23.5265 25.5095 23.733 21.2959 23.7853 17.1059C23.8083 15.3295 23.5618 13.9736 23.01 12.8389C22.3665 11.5153 20.9512 11.1036 19.8718 11.5365C19.8618 11.52 19.8583 11.5012 19.8459 11.4865C19.5259 11.0853 19.0194 10.5206 18.3242 10.2453C17.7771 10.0283 17.1942 10.0436 16.7165 10.2618C16.0194 8.85416 14.1853 8.62475 13.1306 9.28593C12.4689 8.68004 11.4271 8.43593 10.5294 8.72122C9.42298 9.07534 8.86945 9.95945 8.88592 11.3495C8.90357 12.8395 9.05416 13.9918 9.37651 15.0865C9.3871 15.1218 9.40533 15.1512 9.42298 15.1818C8.57239 16.0336 7.96416 17.11 7.82533 18.2153C7.62298 19.8271 7.90474 21.4259 8.7118 23.2483C9.41945 24.85 10.0871 26.4218 11.4512 27.5383C11.613 28.07 11.7477 28.6536 11.9165 29.2718C11.2512 29.2995 11.3242 30.1565 11.8812 30.1565C13.0165 30.1565 17.4594 29.8365 21.2583 29.2183ZM20.7359 12.2506C21.2377 12.2506 21.8447 12.5159 22.1824 13.1577C22.0483 13.3842 22.31 13.2906 21.3177 14.4442C20.5824 15.3006 20.4306 15.4936 20.3689 16.6289C20.3571 16.7065 20.3718 17.4689 20.0571 17.7242C19.7512 17.973 19.1218 17.7606 18.9159 16.843C18.8424 16.5159 18.8277 16.0189 18.8765 15.5112C19.0177 14.0377 19.2471 12.2506 20.7359 12.2506ZM17.1418 18.1659C16.8524 17.9553 16.3712 17.2777 16.4053 17.04C16.4536 16.7006 16.7053 16.3653 16.9783 16.2777C17.0171 16.2659 17.0477 16.2424 17.08 16.2206C17.45 16.5206 18.0918 16.9995 18.0218 17.4747C17.9683 17.8406 17.5059 18.0589 17.1418 18.1659ZM17.9994 11.0659C18.373 11.213 18.7347 11.5159 19.1347 12.0112C18.2489 12.8483 18.0236 14.5895 17.9724 15.8124C17.4959 15.4053 16.7647 14.8353 16.1783 14.4565C16.0094 13.6018 16.3253 11.7247 16.8536 11.2153C17.1606 10.9206 17.65 10.9271 17.9994 11.0659ZM15.2406 9.98004C15.5324 10.0977 15.8818 10.473 15.9747 10.7665C15.9842 10.7971 16.0042 10.8206 16.0195 10.8477C15.5118 11.563 15.2465 12.8995 15.2547 13.9442C14.5595 13.6147 13.8383 13.4147 13.0659 13.4447C12.9736 12.533 13.0306 11.5883 13.2424 10.7018C13.2965 10.4706 13.3789 10.19 13.5312 10.0689C13.8247 9.83593 14.5442 9.6971 15.2406 9.98004ZM9.76827 11.3389C9.75651 10.3412 10.0742 9.79357 10.7977 9.5624C11.3947 9.37181 12.133 9.54946 12.5594 9.95651C12.2989 10.5495 12.0253 12.0071 12.1912 13.5706C11.4724 13.7447 10.7742 14.0912 10.1518 14.553C9.90651 13.6195 9.78298 12.6153 9.76827 11.3389ZM12.3542 27.4918C12.4092 27.517 12.4691 27.5299 12.5296 27.5296C12.5902 27.5293 12.6499 27.5158 12.7047 27.49C13.8133 26.982 14.7263 26.1269 15.3057 25.0539C15.8852 23.981 16.0996 22.7486 15.9165 21.543C15.9078 21.4858 15.8879 21.4309 15.8579 21.3814C15.828 21.3318 15.7885 21.2887 15.7419 21.2544C15.6953 21.2202 15.6424 21.1954 15.5862 21.1816C15.53 21.1678 15.4717 21.1651 15.4144 21.1739C15.3572 21.1826 15.3023 21.2025 15.2528 21.2325C15.2033 21.2624 15.1602 21.3018 15.1259 21.3485C15.0916 21.3951 15.0669 21.448 15.0531 21.5042C15.0392 21.5604 15.0366 21.6187 15.0453 21.6759C15.1996 22.692 15.0188 23.7307 14.5303 24.635C14.0418 25.5392 13.2721 26.2598 12.3377 26.6877C12.2851 26.7117 12.2377 26.7459 12.1983 26.7883C12.159 26.8307 12.1284 26.8805 12.1083 26.9348L12.1036 26.9295C10.8295 25.9371 10.1771 24.3812 9.51886 22.8906C8.76945 21.1983 8.51651 19.7906 8.70121 18.3259C8.97239 16.1624 11.2853 14.3995 13.0942 14.3259C14.2159 14.2765 15.2742 14.8542 16.3236 15.6318C16.1113 15.7809 15.9316 15.9716 15.7953 16.1924C15.6591 16.4132 15.5693 16.6593 15.5312 16.9159C15.4683 17.3589 15.743 17.8983 16.08 18.3265C15.2496 18.3493 14.4304 18.1307 13.7218 17.6971C13.6223 17.6354 13.5025 17.6157 13.3885 17.6424C13.2745 17.6691 13.1759 17.74 13.1142 17.8395C13.0525 17.9389 13.0328 18.0588 13.0595 18.1728C13.0862 18.2867 13.1571 18.3854 13.2565 18.4471C15.3553 19.7483 17.9424 19.2171 18.6524 18.1971C19.2577 18.8218 20.0959 18.8289 20.6124 18.4095C21.2406 17.8995 21.2165 16.9924 21.25 16.6765C21.2971 15.7959 21.3436 15.7683 21.9871 15.0195C22.203 14.7689 22.4224 14.5136 22.603 14.2612C22.8206 15.0565 22.9177 15.9818 22.903 17.0947C22.8542 20.9742 22.6671 25.2183 21.0524 26.473C20.9805 26.5287 20.9276 26.6054 20.9012 26.6924C20.7724 27.1142 20.4912 27.6383 20.3412 28.13C20.3083 28.2388 20.3188 28.356 20.3706 28.4571C17.8684 28.8375 15.3488 29.0931 12.8212 29.223C12.6259 28.5383 12.5536 28.1877 12.3542 27.4918ZM20.0506 9.33122C20.1591 9.331 20.2637 9.29081 20.3445 9.21832C20.4252 9.14583 20.4764 9.04613 20.4883 8.93828L20.7977 6.09122C20.8065 6.03244 20.8033 5.97249 20.7884 5.91497C20.7734 5.85744 20.747 5.80353 20.7107 5.75647C20.6744 5.70941 20.629 5.67016 20.5772 5.64109C20.5253 5.61202 20.4681 5.59373 20.4091 5.5873C20.35 5.58088 20.2902 5.58646 20.2333 5.60371C20.1764 5.62096 20.1236 5.64952 20.0781 5.68769C20.0325 5.72585 19.9951 5.77282 19.9682 5.82579C19.9412 5.87876 19.9253 5.93663 19.9212 5.99593L19.6112 8.84298C19.6046 8.9046 19.611 8.96692 19.6301 9.02588C19.6492 9.08484 19.6805 9.13911 19.722 9.18518C19.7634 9.23124 19.8141 9.26805 19.8707 9.29321C19.9274 9.31838 19.9887 9.33133 20.0506 9.33122ZM21.973 10.0253C22.0527 10.0254 22.131 10.0038 22.1995 9.96287C22.268 9.92196 22.324 9.86324 22.3618 9.79298L23.5177 7.63887C23.5731 7.53574 23.5852 7.41485 23.5515 7.30276C23.5177 7.19068 23.4408 7.0966 23.3377 7.04122C23.2346 6.98584 23.1137 6.97369 23.0016 7.00744C22.8895 7.0412 22.7954 7.1181 22.74 7.22122L21.5842 9.37593C21.5482 9.44309 21.5302 9.51842 21.532 9.59459C21.5338 9.67075 21.5553 9.74515 21.5944 9.81054C21.6335 9.87593 21.6889 9.93008 21.7551 9.96773C21.8214 10.0054 21.8968 10.0252 21.973 10.0253ZM24.0647 11.3077L26.1436 10.85C26.2578 10.8248 26.3574 10.7551 26.4203 10.6565C26.4833 10.5578 26.5044 10.4381 26.4792 10.3239C26.4539 10.2096 26.3842 10.11 26.2856 10.0471C26.1869 9.98416 26.0673 9.96301 25.953 9.98828L23.8747 10.4459C23.3142 10.5695 23.483 11.4324 24.0647 11.3077Z" fill="black"/>
<path d="M18.6248 0.717059L16.4925 0.162941C16.4854 0.155294 16.4778 0.148824 16.4713 0.141177C16.4312 0.0980735 16.383 0.0633888 16.3293 0.039149C16.2757 0.0149093 16.2178 0.00160038 16.1589 0C16.041 0.00173832 15.9277 0.0457872 15.8395 0.124118C12.0748 3.78471 6.5407 5.40412 1.39659 4.35118C1.28542 4.32757 1.16943 4.34813 1.07315 4.40851C0.976875 4.46889 0.907859 4.56435 0.880704 4.67471C-2.30812 17.3229 3.31776 30.97 15.2407 37.3494C15.2654 37.3629 15.2936 37.3612 15.3207 37.37C16.8013 38.2753 18.6472 37.2794 20.1031 36.3788C30.406 30.0041 35.6313 17.9429 33.7454 6.29235L31.9825 4.99353C31.9468 4.89457 31.8765 4.81186 31.7846 4.76071C31.6927 4.70957 31.5854 4.69343 31.4825 4.71529C30.7054 4.88412 29.9195 4.98588 29.1319 5.03647C25.1478 4.77177 21.2972 3.67176 18.6248 0.717059ZM1.63776 5.29471C6.79953 6.21235 12.2748 4.61235 16.1307 1.06294C19.9189 4.92882 25.7566 6.70706 31.2384 5.66529C32.4578 11.5429 31.5131 18.4576 28.7401 23.8224C25.8331 29.4494 20.8842 34.1635 15.4725 36.4718C4.09247 30.2712 -1.18988 17.3053 1.63718 5.29529L1.63776 5.29471Z" fill="black"/>
</svg>
