<svg width="72" height="51" viewBox="0 0 72 51" fill="none" xmlns="http://www.w3.org/2000/svg">
<path d="M70.57 17.1811C68.2078 16.7244 65.3789 16.5689 62.7089 16.7178C64.5856 14.3678 66.6522 11.01 67.1378 8.02889C67.3844 6.63 67.3856 5.97333 66.9011 5.49778C66.2889 4.89111 65.2822 5.06444 64.0722 5.98111C63.6111 6.32889 63.2833 6.81111 63.0433 7.24667C60.5378 5.60889 57.6367 3.83556 54.8656 2.66222C51.8267 1.36778 48.7733 0 45.4556 0C42.2489 0.0255556 35.7222 0.377778 33.2222 2.20444C32.2489 2.91556 31.3744 4.29222 31.6711 5.44444C32.1356 7.25111 34.5267 6.95 36.2667 6.70667C38.3911 6.41222 43.6889 6.30667 46.0489 6.99111C47.2711 7.34667 48.5189 8.05778 48.9878 8.53889C48.3889 8.82444 47.8267 9.02778 47.3322 9.18333C45.1511 7.70889 42.44 7.16333 39.7189 8.03667C39.3478 8.10581 38.9813 8.19709 38.6211 8.31C38.6211 8.32778 36.9767 9.04556 36.6133 9.23111C35.6933 6.85556 32.3222 6.36222 30.9822 8.85556C30.7876 9.21984 30.6632 9.6175 30.6156 10.0278C20.9689 5.5 9.13333 19.3344 24.7567 32.7833C20.7633 34.6489 18.7122 33.55 15.6144 33.8944C14.7211 33.99 13.7478 34.18 12.7244 34.3833C12.7289 34.1678 12.7022 33.9767 12.7044 33.6467C12.71 32.6422 12.7211 30.7722 11.4222 30.4578C10.95 30.3422 10.44 30.4956 9.94667 30.7689C9.64222 30.8289 9.71667 30.8489 8.58889 31.2944C5.95556 32.3878 5.79889 32.4522 2.28667 32.6144C2.17562 32.617 2.06619 32.6416 1.96482 32.6871C1.86345 32.7325 1.77218 32.7977 1.69637 32.8789C1.62057 32.9601 1.56176 33.0556 1.52341 33.1598C1.48506 33.2641 1.46794 33.375 1.47305 33.4859C1.47816 33.5969 1.5054 33.7057 1.55317 33.806C1.60095 33.9062 1.66828 33.996 1.75123 34.0698C1.83418 34.1437 1.93106 34.2003 2.03617 34.2362C2.14129 34.2721 2.25252 34.2866 2.36333 34.2789C5.1 34.1533 6.01222 34.0567 7.43778 33.5456C5.52222 37.56 3.87111 42.74 4.51111 47.1789C3.03333 47.3322 1.45556 47.4533 0 47.6133C0.0822222 48.4689 -0.0777777 49.7378 0.144445 50.0044C0.218889 50.0922 0.551111 50.1456 0.618889 50.0533C1.40889 49.9767 2.13222 49.8689 2.92333 49.7922C5.63778 51.4533 9.21 50.07 10.1156 47.0078C24.0722 53.63 38.1956 51.2344 46.9322 42.93C48.6033 41.7978 50.2767 40.1956 49.2522 38.4578C48.7078 37.5711 47.6411 37.2767 46.0722 37.5867C34.2967 39.8144 36.0922 39.7311 32.0656 40.1356C31.2956 40.2133 30.5244 40.2922 29.7567 40.4022C27.8467 40.6778 26.7322 40.2444 26.2933 39.8444C27.6578 38.69 29.0589 37.9544 30.19 37.2978C30.2233 37.3356 30.2456 37.3789 30.2878 37.41C32.8489 39.3733 33.9467 40.7167 37.4433 38.4411C39.5478 38.4267 41.0611 37.0444 42.5544 35.5522C47.3067 30.8444 51.9533 25.5056 51.8833 18.7744C51.8761 17.3803 51.6257 15.9981 51.1433 14.69C52.5133 14.5422 53.4289 15.1178 54.7289 15.3044C55.88 15.4711 57.0333 15.7711 58.1844 15.9856C57.9056 17.1789 57.8622 18.4878 59.1056 18.7122L59.0767 18.7267C59.6842 19.0107 60.2388 19.3962 60.7167 19.8667C60.7744 19.9244 61.3722 19.7689 61.4722 19.7544C68.1233 18.8122 69.5611 20.1989 70.3344 19.7122C70.6422 19.5189 70.8844 18.9644 70.9522 18.6311C71.0714 18.5296 71.1595 18.3964 71.2064 18.2469C71.2532 18.0975 71.2568 17.9379 71.2169 17.7864C71.177 17.635 71.095 17.4979 70.9806 17.391C70.8661 17.2841 70.7238 17.2118 70.57 17.1822V17.1811ZM52.7133 13.7633L52.6778 13.76L52.7156 13.5267L52.7133 13.7633ZM61.0667 16.1044L61.0544 16.12C60.7622 16.4722 60.06 16.8922 59.69 17.0478C59.7056 16.88 59.7511 16.6067 59.8456 16.21C60.3211 16.24 60.6078 16.2411 61.0667 16.1044ZM65.6189 6.96C65.5811 7.29889 65.4456 8.10444 65.2711 8.72667C64.9933 8.53778 64.7156 8.35222 64.4389 8.16667C64.7411 7.57778 64.99 7.29556 65.6189 6.96ZM46.5133 5.39C43.9578 4.64889 38.4733 4.71778 36.0378 5.05556C35.2356 5.16667 34.4033 5.28333 33.7433 5.19667C33.4467 5.16 33.2978 5.07667 33.2844 5.02889C33.2156 4.76 33.6011 3.99111 34.2056 3.54889C34.84 3.08556 35.6556 2.84 36.3678 2.66222C39.55 1.86778 42.2089 1.69222 45.4678 1.66556C48.3933 1.63222 51.4678 3.02 54.2122 4.19556C57.7289 5.67889 61.5867 8.24222 64.6678 10.3278C64.0913 11.6721 63.3783 12.9536 62.54 14.1522C61.81 13.8467 59.5122 13.77 58.7678 13.7411C56.3022 13.6456 56.0078 13.57 54.3856 13.1011C49.6522 11.7289 47.7 13.26 46.5667 13.4978C45.7889 13.6633 44.0333 13.8422 43.3867 13.3767C43.2356 13.2667 43.1944 13.1967 43.19 13.1967C43.2144 12.96 43.8711 12.4078 44.1867 12.1433C44.6644 11.74 45.4133 11.4933 46.2044 11.2567L46.2033 11.2556C47.3133 10.9222 48.8189 10.58 50.4333 9.66667C50.5445 9.55556 50.6733 9.51444 50.7778 9.26333C50.8956 8.99 50.8344 8.93222 50.8444 8.82111C50.7867 6.66222 46.6933 5.44222 46.5133 5.39ZM32.4511 9.64222C32.8644 8.87222 33.6689 8.64556 34.4189 9.08889C35.1033 9.48889 35.0389 9.93778 35.2422 10.2389C34.6689 10.7367 33.8911 11.4833 33.4889 12.1233C33.1406 11.7357 32.7587 11.3795 32.3478 11.0589C32.3689 10.6756 32.0689 10.3533 32.4511 9.64222ZM10.9378 34.72C10.1111 34.8689 9.31444 34.9789 8.59 35.0144C8.75667 34.6478 8.92556 34.2789 9.10778 33.9044C9.44111 33.2256 10.4633 32.2889 10.9122 32.1067C10.9733 32.2989 11.0433 32.72 11.0378 33.6378C11.0344 34.4511 11.1322 34.2367 10.9378 34.72ZM7.13667 46.3622C6.77444 46.8033 6.43556 47.1 6.21444 47.2444C6.07556 46.65 6.00444 44.98 6.05889 44.1689C6.62889 44.3822 7.19889 44.5922 7.76778 44.8022C7.65889 45.3033 7.48111 45.9422 7.13667 46.3622ZM24.6778 39.0289C24.6589 39.0467 24.6522 39.07 24.6356 39.0878C24.563 39.1687 24.5072 39.2632 24.4713 39.3658C24.4355 39.4684 24.4203 39.5771 24.4267 39.6856C24.4278 39.7111 24.4189 39.7344 24.4222 39.76C24.4278 39.7967 24.4478 39.8311 24.4556 39.8678C25.0589 41.9633 27.8189 42.3656 29.9944 42.0489C30.7389 41.9433 31.4867 41.8678 32.2333 41.7922C36.4811 41.3644 34.8367 41.4 46.3956 39.22C47.3267 39.0367 48.2256 39.0678 47.7756 39.8978C47.16 41.0456 44.7622 42.3122 43.8089 42.8367C37.0167 46.5989 29.1711 48.3667 21.4067 47.0589C16.4956 46.2544 10.8222 44.1744 6.26889 42.47C6.57778 40.5467 7.11333 38.6311 7.90444 36.6289C8.59333 36.9289 12.1289 36.1978 12.8489 36.0544C17.5489 35.1178 16.7889 35.6189 20.2378 35.5756C21.4911 35.6011 23.86 35.1111 25.7711 34.1556C26.6411 33.7222 27.3289 33.0689 28.09 32.7033C29.0844 32.2267 31.2678 31.4744 32.2767 31.8922C32.5256 31.9956 32.6911 32.1178 32.7189 32.2178C32.7622 32.3733 32.7456 32.6844 31.7589 34.0189C30.5067 35.7222 27.53 36.3567 24.6778 39.0289ZM34.87 37.8633C33.8433 38.1689 33.63 37.86 31.6678 36.3633C32.7667 35.5744 33.0689 35.0256 33.17 34.9144C33.7922 34.0722 34.6433 32.92 34.3256 31.7722C34.1511 31.1456 33.6756 30.6678 32.9144 30.3522C31.3633 29.71 28.8589 30.4856 27.37 31.2011C26.9589 31.3978 26.6011 31.6367 26.2544 31.8778C23.9622 29.9178 22.43 28.4911 20.7778 25.7222C19.0222 22.8 18.4222 19.5833 19.1344 16.9C19.9789 13.7378 22.7533 11.2467 25.8844 10.8411C29.0956 10.4278 32.4478 12.43 33.5433 15.2211C33.6767 15.5622 34.0056 15.7944 34.3833 15.7489C35.1644 15.6878 35.1478 14.8911 35.2011 14.78C36.0022 11.1911 40.5789 7.95222 45.1156 9.85333C44.3711 10.1011 43.6656 10.4022 43.0467 10.9244C42.3889 11.4767 41.4889 12.2333 41.5244 13.2533C41.5578 14.2378 42.4778 14.95 43.4467 15.1911C44.6622 15.6678 46.3856 15.6067 47.6267 15.4889C48.1733 15.4367 48.7856 15.26 49.4033 15.0822C50.0178 17.9922 49.1644 20.8111 47.9533 23.5156C44.3278 31.52 37.4756 37.0733 34.87 37.8633Z" fill="#242424"/>
</svg>
