<svg width="14" height="17" viewBox="0 0 14 17" fill="none" xmlns="http://www.w3.org/2000/svg">
<path d="M12.5999 11.1683V7.42328C12.5999 4.20677 12.5999 2.59854 11.7213 1.59932C10.8426 0.600098 9.42836 0.600098 6.59996 0.600098C3.77157 0.600098 2.35733 0.600098 1.47866 1.59932C0.599975 2.59854 0.599976 4.20677 0.599976 7.42328V11.1683C0.599976 13.4906 0.599976 14.6519 1.08938 15.1594C1.32278 15.4013 1.61741 15.5533 1.93125 15.5938C2.58932 15.6784 3.35779 14.9138 4.89477 13.3844C5.57412 12.7084 5.91386 12.3704 6.30686 12.2813C6.50036 12.2375 6.69956 12.2375 6.89306 12.2813C7.28606 12.3704 7.62581 12.7084 8.30516 13.3844C9.84221 14.9138 10.6107 15.6784 11.2687 15.5938C11.5825 15.5533 11.8771 15.4013 12.1105 15.1594C12.6 14.6519 12.5999 13.4906 12.5999 11.1683Z" stroke="#C4C4C4" stroke-width="1.2"/>
</svg>
