<svg width="17" height="17" viewBox="0 0 17 17" fill="none" xmlns="http://www.w3.org/2000/svg">
<path d="M15.5625 9.56093C15.5408 12.1214 15.3986 13.533 14.4678 14.4639C13.3691 15.5625 11.6009 15.5625 8.06445 15.5625C4.528 15.5625 2.75977 15.5625 1.66114 14.4639C0.5625 13.3652 0.5625 11.597 0.5625 8.06055C0.5625 4.52409 0.5625 2.75586 1.66114 1.65722C2.59199 0.72636 4.00355 0.584213 6.56407 0.5625" stroke="#C4C4C4" stroke-width="1.125" stroke-linecap="round"/>
<path d="M15.5625 4.3125H9.5625C8.1993 4.3125 7.37752 4.98152 7.0728 5.28772C6.97845 5.38255 6.93127 5.42997 6.9306 5.43061C6.93 5.43126 6.88252 5.47844 6.78772 5.57281C6.48151 5.87753 5.8125 6.6993 5.8125 8.0625V10.3125M11.8125 8.0625L15.5625 4.3125L11.8125 0.5625" stroke="#C4C4C4" stroke-width="1.125" stroke-linecap="round" stroke-linejoin="round"/>
</svg>
