<svg width="41" height="43" viewBox="0 0 41 43" fill="none" xmlns="http://www.w3.org/2000/svg">
<path fill-rule="evenodd" clip-rule="evenodd" d="M21.6427 26.4098C21.778 26.2428 21.8585 26.0367 21.859 25.8237C21.8595 24.7582 21.8537 23.8576 21.8123 22.7868L21.792 20.4305C21.7903 20.2904 21.7785 20.1514 21.7785 20.0113L21.7699 18.7323C21.7476 17.6168 22.724 17.3789 22.7033 17.1736L22.2353 14.199C22.1704 13.7827 22.1477 13.4218 21.8382 13.0945C21.4126 12.6444 20.932 12.7002 20.3927 12.6957L19.3739 12.6774C18.9719 12.6833 18.4896 12.9565 18.2828 13.3194C18.0372 13.7501 18.0367 14.3229 17.8567 14.8308C17.7079 15.2502 17.6372 15.7351 17.4852 16.192L17.1943 17.1082C17.1637 17.1914 17.1353 17.2795 17.1331 17.3771C17.1306 17.4595 17.0595 17.4584 17.1197 17.6595C17.1503 17.7618 17.1027 17.7881 17.2437 17.9541C17.1428 17.9079 17.0585 17.8355 16.9759 17.8049C16.9242 17.7882 16.8225 17.581 16.7536 17.5C16.5888 17.3063 16.6981 16.9051 16.6425 16.5237C16.6232 16.3916 16.69 15.9731 16.714 15.8378C16.7812 15.4578 16.7672 15.0288 16.8343 14.5914L16.9513 13.5678C16.9557 13.2349 17.0528 13.1043 17.1456 12.8046C17.1895 12.6627 17.5267 12.1733 17.6506 12.0344C17.7934 11.8744 18.0213 11.729 18.2137 11.6265L17.8567 11.1188C17.6883 10.8417 17.6398 10.2987 17.6527 9.96745C17.6761 9.44012 17.8927 8.89955 18.2287 8.49088C18.5421 8.10976 18.7058 7.9936 19.1492 7.77222C19.1492 7.77222 19.1492 7.77116 19.1481 7.77116C19.0128 7.63331 18.9685 7.27772 18.5443 6.92531C18.4064 6.81078 18.2607 6.61379 18.0751 6.46C17.6798 6.13206 17.5541 6.08262 17.1241 5.92864C16.9324 5.86 16.4372 5.74499 16.2385 5.74451C16.0408 5.74403 15.5249 5.72963 15.3314 5.76323C15.0224 5.81699 14.769 5.76899 14.4973 5.81257C14.4328 5.82294 14.122 5.80211 13.8125 5.86307C13.5676 5.91126 13.0597 5.99247 12.8748 6.07081C12.3151 6.30793 11.9935 6.52691 11.5491 7.01171C10.9883 7.62352 10.4665 8.63564 10.058 9.38464L7.89924 13.3253C7.72395 13.6459 7.55153 13.9672 7.79134 14.2899C7.98094 14.545 8.47937 14.7129 8.78753 14.3511C8.8722 14.2517 9.42468 13.2075 9.52395 13.0479C9.77403 12.6464 9.96679 12.2191 10.2024 11.8123C10.4856 11.3218 10.7356 10.8098 11.0059 10.3169L11.9018 8.68518C10.6356 8.37654 13.6284 9.10384 13.3198 9.02924L13.4159 15.8989L13.4422 18.1178L13.3987 24.1185L13.3927 24.7518C13.4184 25.319 13.2773 25.2605 13.3708 25.8994C13.3946 26.0618 13.5754 26.342 13.6783 26.4511C14.0498 26.8455 14.4884 26.8923 14.9923 26.8843C14.9802 26.8418 14.9378 26.7939 14.9391 26.7173C14.9707 25.0141 14.7257 23.3074 14.8457 21.233C14.823 21.1709 14.8922 21.169 14.8956 21.1433C14.9065 21.0758 14.9437 20.8012 14.988 20.7263C15.0274 20.6594 14.9175 20.5562 14.9944 20.5352C15.0564 20.5182 15.0214 20.4065 15.0363 20.342C15.0467 20.2963 15.1617 20.2268 15.1736 20.2266L15.2375 20.2969C15.2952 20.2681 15.2692 20.2995 15.3346 20.2995C15.3696 20.2995 15.3857 20.1879 15.4983 20.394C15.652 20.6753 15.8704 20.9216 15.9095 21.249L15.946 21.6264C15.9739 21.6954 15.9299 21.6827 15.9449 21.7059C16.0105 22.377 16.3731 26.3712 15.9852 26.7335C15.9428 26.7732 15.9229 26.814 15.9036 26.8559C16.0982 26.8527 16.0565 26.9265 16.4387 26.9095C16.8024 26.8934 17.1346 26.7194 17.4682 26.5853C17.3461 26.2634 17.324 26.0056 17.3276 25.6707L17.3566 23.2259C17.3609 23.0246 17.3207 22.8345 17.3877 22.6478C17.4113 22.5821 17.4498 20.6955 17.4945 20.2867C17.5292 19.9726 17.4288 19.3635 17.5015 19.2561C17.5397 19.1998 17.5484 18.7443 17.5439 18.7134C17.4929 18.3579 17.2888 18.2753 17.1681 18.0603C17.2478 18.0704 17.4271 18.1771 17.4998 18.2212C17.4346 18.1238 17.463 18.1759 17.5723 18.1547C17.569 18.1107 17.3841 17.9603 17.5321 18.0265C17.9939 18.2329 18.0087 18.5312 18.0516 18.9367C18.2075 20.3702 18.3918 21.6845 18.416 23.1254L18.4467 24.9573C18.4495 25.1262 18.474 25.3761 18.4525 25.5139C18.4403 25.592 18.4768 26.0027 18.5175 26.1113C18.6472 26.4575 18.8945 26.6646 19.2442 26.7554C19.389 26.7929 20.6881 26.7628 20.9194 26.7527C21.1986 26.7404 21.4599 26.6292 21.6427 26.4098ZM14.3747 2.97356C14.3747 3.4142 14.43 3.38473 14.4354 3.53017C14.4381 3.6038 14.6707 3.99145 14.7177 4.05779L15.1225 4.58108C15.6051 4.60249 16.3078 4.60777 16.7611 4.73564C16.98 4.52166 17.4869 3.81952 17.5168 3.55052C17.529 3.4408 17.5584 3.46623 17.5539 3.4335C17.5369 3.31215 17.6642 3.10931 17.5023 2.56076C17.3929 2.18982 17.0907 1.76416 16.752 1.57964C16.4463 1.41308 15.9421 1.36076 15.7236 1.3982L15.3967 1.48144C14.9202 1.6742 14.5405 2.1278 14.4312 2.62844L14.3747 2.97356ZM19.5473 9.19763C19.699 9.05459 19.8805 8.97721 20.0836 8.93996C20.1554 8.93296 20.4409 8.92297 20.506 8.95926C20.5752 8.99776 20.9054 8.90627 21.2977 9.50569C21.3927 9.65094 21.4309 9.79619 21.4791 9.95545C21.5412 10.1612 21.4808 10.4351 21.4903 10.4744C21.4972 10.5024 21.4627 10.481 21.4619 10.5651C21.4605 10.7113 21.1793 11.131 21.0905 11.2699C21.0443 11.2678 20.9977 11.2666 20.9515 11.2678L19.5517 11.2753C19.5042 11.1486 19.4062 11.0402 19.3306 10.9312L19.1299 10.5329C19.1367 10.4823 19.0767 10.3563 19.0961 10.1201C19.1245 9.77008 19.2659 9.42236 19.5473 9.19763ZM20.7163 7.44841C20.7715 7.3767 20.8256 7.30405 20.8783 7.23049C21.1894 6.81577 21.4932 6.61312 21.9046 6.32819C22.1788 6.1383 22.4378 6.0688 22.7516 5.99382C23.1353 5.90204 23.1201 5.91472 23.4687 5.88054C23.6555 5.8622 25.5997 5.92604 25.6505 5.92777C25.9115 5.9367 26.3949 6.00284 26.622 6.10864C27.5142 6.52432 27.8455 6.86358 28.4346 7.65606L30.9316 10.957L32.3378 12.7707C32.4835 12.9627 32.4857 13.2168 32.392 13.4555C32.2287 13.8717 31.954 13.9396 31.6245 13.6428C31.4435 13.4798 30.6688 12.5332 30.4544 12.264L29.8517 11.5678L28.6015 10.0649L28.5962 10.0225L28.5742 10.0316C28.3642 9.77622 28.1956 9.4864 27.8061 9.54582C27.4867 9.59468 27.2661 9.89257 27.3155 10.2124L27.3681 10.5634L27.3445 10.5742L27.3762 10.615L27.7385 13.0131L28.7165 19.0069C28.1917 19.0175 27.7589 19.0213 27.2173 19.0643C25.6309 19.1903 24.7615 19.3749 23.1819 19.1154C23.2243 18.1916 23.0218 18.7779 23.4907 18.4422C23.9058 18.1451 24.161 17.6792 24.153 17.1616C24.1488 16.8822 24.005 16.151 23.9678 15.9164L23.6662 13.8983C23.5853 13.3591 23.5232 12.9545 23.1917 12.4635C22.9009 12.033 22.6058 11.8016 22.1659 11.5651C22.1804 11.55 22.1955 11.5345 22.2083 11.5168C22.553 11.0317 22.728 10.4241 22.6667 9.83094C22.6284 9.46 22.5298 9.22364 22.4037 8.9174C22.3235 8.72281 22.1945 8.5504 22.0591 8.39084C21.6817 7.94617 21.2109 7.65961 20.6335 7.56592C20.6621 7.5278 20.6911 7.48921 20.7163 7.44841ZM27.0492 20.0912C27.0648 20.0622 27.0772 20.0328 27.0906 20.0027C26.1938 19.9817 24.5194 19.8086 23.6941 19.8819C23.5181 19.8981 23.3454 20.0036 23.1682 19.9971C23.1726 20.2199 23.1831 20.3285 23.1773 20.5507C23.1663 20.9695 23.1952 21.3929 23.1977 21.8067C23.1976 22.4222 23.1924 25.6458 23.1199 26.1451C23.107 26.2428 23.0796 26.3373 23.0533 26.4322C23.1966 26.5519 23.5446 26.707 23.7247 26.7725C24.0248 26.8817 24.2408 26.7956 24.3071 26.8251L24.4391 26.8107C24.27 26.1269 24.5993 24.632 24.3581 22.9547C24.3359 22.9105 24.405 22.9098 24.409 22.8897C24.4169 22.8489 24.4587 22.6406 24.5002 22.5908C24.5403 22.5427 24.4299 22.4694 24.5072 22.4545C24.5681 22.4427 24.5354 22.3631 24.5497 22.3155C24.5595 22.2828 24.674 22.2326 24.6871 22.2328L24.7504 22.2833C24.7857 22.2622 24.7991 22.2858 24.848 22.2849C24.8838 22.2843 24.8962 22.205 25.0112 22.3526C25.1469 22.5267 25.3936 22.7406 25.4218 22.9666C25.5582 23.9604 25.8084 25.8354 25.5898 26.7571C25.9219 26.7379 26.081 26.7137 26.3789 26.4963C26.5363 26.3812 26.6863 26.0976 26.7406 25.8436C26.7871 25.6256 26.7543 25.6813 26.7583 25.5747C26.7697 25.2704 26.7318 24.9648 26.7138 24.6611C26.6722 23.9441 26.6631 23.2256 26.6864 22.5077C26.6881 22.4669 26.6977 22.4267 26.6993 22.3859C26.702 22.2734 26.6967 22.0442 26.7229 21.9484L26.7272 21.5802C26.7384 21.3567 26.7925 20.7122 26.8807 20.5587C26.9696 20.4041 26.9556 20.2743 27.0492 20.0912ZM21.3249 27.9539C20.7986 28.0261 20.5356 27.9722 19.9643 27.977C19.274 27.9828 18.7575 27.9878 18.1443 27.5057C17.9394 27.3447 17.7762 27.1605 17.6392 26.9394C17.2305 27.2403 16.7246 27.4159 16.2152 27.4595C15.8431 27.4914 14.5911 27.6207 14.3308 27.6028C13.5641 27.5502 12.9236 27.1469 12.5687 26.4435C12.2914 25.894 12.3371 25.2518 12.3298 24.6319L12.2982 22.1592C12.2964 21.9287 12.2703 21.6021 12.2934 21.4083C12.2977 21.3718 12.2966 21.3283 12.2934 21.2912C12.2671 20.988 12.2848 20.6793 12.2772 20.3734C12.2484 19.2668 12.2651 18.1475 12.2252 17.0284L12.04 11.3406L10.0975 14.9201C9.69387 15.6572 8.96158 16.0756 8.12878 15.9882C6.7363 15.842 5.86404 14.5206 6.37255 13.1618C6.50484 12.8082 6.82375 12.267 7.00539 11.9331L9.21031 7.92102C9.62772 7.1823 10.2819 6.13532 10.9735 5.61356C11.009 5.58563 11.0444 5.55452 11.0792 5.52448C11.7556 4.95558 12.6026 4.66537 13.4661 4.58732C13.414 4.48297 13.2321 4.29731 13.1263 4.03552C12.7298 3.05449 12.9357 1.91046 13.6003 1.091C13.9563 0.652091 14.3263 0.379451 14.8616 0.186107C15.3172 0.0215634 16.0606 -0.0636846 16.5271 0.0562193C17.0255 0.184283 17.258 0.291419 17.6655 0.618203C18.2874 1.11692 18.6529 1.86486 18.7417 2.639C18.8185 3.3086 18.6069 4.05664 18.2151 4.59923C18.171 4.66028 18.1342 4.67632 18.0804 4.76934C18.008 4.89462 17.9368 4.85987 17.8937 4.90355L17.6489 5.10745C18.2584 5.42857 18.703 5.8359 19.0686 6.41065C19.2279 6.66121 19.4436 7.11424 19.4893 7.40473L19.5253 7.63878L20.0047 7.55718C20.0444 7.55881 20.0852 7.55555 20.1254 7.55238C20.1396 7.40108 20.3848 6.83305 20.4459 6.63942C20.5594 6.27894 21.4121 5.50422 21.8097 5.26057C22.0475 5.11484 22.0908 5.10304 22.3363 5.0008C21.8883 4.54451 21.5933 3.92704 21.5387 3.28806C21.5079 2.92748 21.5644 2.43625 21.6912 2.08844L21.9365 1.56188C22.1202 1.26025 22.3862 0.962075 22.6804 0.767003C22.7734 0.705275 22.9925 0.589403 23.1135 0.573755C23.5059 0.523259 23.3838 0.444251 23.9428 0.494843C24.0335 0.503099 24.3005 0.567419 24.3265 0.632795C24.3586 0.713243 24.4004 0.718427 24.4327 0.772859C24.4752 0.841595 24.4741 0.841595 24.5181 0.872699C24.3895 0.960635 24.4643 0.964379 24.4038 0.969275C24.3342 0.975035 24.365 1.03782 24.2776 1.06585C24.1043 1.12144 24.1202 1.2136 24.0704 1.228C23.7385 1.32409 23.8597 1.33715 23.6195 1.48883C23.3653 1.64944 23.4201 1.71328 23.3662 1.76204C23.2882 1.83241 23.3296 1.83683 23.3136 1.84739C23.261 1.88502 23.2523 1.95692 23.24 2.01971L23.1628 2.14748C23.1137 2.32086 23.0117 2.57305 23.0001 2.74115C22.99 2.81468 22.9856 2.88928 22.9728 2.96387C22.9663 3.00198 22.9825 3.04009 22.983 3.0782C22.9957 3.36764 23.1404 3.73494 23.3393 3.96006C23.4861 4.12614 23.8502 4.37574 24.0763 4.427C24.1934 4.4536 24.1451 4.47798 24.2749 4.48124C24.4587 4.48585 24.5174 4.51206 24.7124 4.46032L24.9727 4.40233C25.4663 4.2303 25.5841 4.1295 25.8991 3.73734C26.036 3.56704 26.1234 3.19129 26.1272 2.97673C26.1343 2.5862 26.0444 2.3175 25.8337 1.98217C25.7995 1.92774 25.7406 1.92054 25.7558 1.84153C25.7717 1.75897 25.3342 1.41654 25.2819 1.36172C25.2006 1.27648 25.0133 1.32937 25.0022 1.25065C24.9955 1.20265 24.8622 1.17164 24.8557 1.1728C24.7416 1.19372 24.5794 1.10233 24.5181 1.00316C24.5376 0.971387 24.5971 0.960059 24.6437 0.945755C24.5945 0.896603 24.6529 0.901115 24.6555 0.849179C24.6569 0.820955 24.4872 0.790235 24.7354 0.723611L25.2127 0.682235C25.598 0.667355 26.0826 0.826523 26.4026 1.06336C26.6709 1.26188 26.9603 1.69494 27.0783 1.99619C27.1181 2.09776 27.168 2.15056 27.162 2.23072L27.2238 2.41321C27.3265 2.87881 27.3322 3.44684 27.1782 3.90054C27.0611 4.24518 26.9824 4.39532 26.7654 4.69062C27.7428 4.9287 28.7045 5.62595 29.303 6.41411L32.21 10.2427L33.2078 11.5373C33.3486 11.7233 33.5873 12.0171 33.6915 12.2496C34.2019 13.3887 33.5786 14.9504 32.2895 15.1899C31.2195 15.3886 30.5195 14.5384 29.9279 13.8179L28.9327 12.6006L29.878 19.3942C29.8895 19.4721 29.8856 19.5516 29.8663 19.628C29.8471 19.7044 29.8129 19.7763 29.7659 19.8394C29.7188 19.9026 29.6597 19.9559 29.592 19.9962C29.5243 20.0365 29.4493 20.063 29.3713 20.0742C29.2116 20.0976 28.7212 20.0591 28.4835 20.0737C28.1055 20.0969 28.171 20.0272 27.8598 20.0211C27.8694 20.1695 27.8505 20.2175 27.8877 20.3447C27.9492 20.5557 27.9219 20.8732 27.9623 20.9303C28.0172 21.0075 27.9662 21.0696 28.0106 21.1364C28.0133 21.1407 28.0149 21.145 28.0138 21.1482C28.0014 21.2255 28.0445 21.2984 28.0691 21.3731L28.0766 21.5637C28.1323 21.8103 28.1447 22.4148 28.1238 22.6715L28.1383 24.1137C28.14 24.2066 28.1523 24.3 28.1539 24.3934L28.1528 25.4078C28.1322 25.5048 28.1785 25.7593 28.0981 26.1275C28.0257 26.4592 27.9797 26.6009 27.8019 26.8902C27.4322 27.4918 26.6946 27.9379 25.9866 27.9788C25.7792 27.9908 24.1558 27.9556 23.9265 27.9235L23.444 27.8118L23.2417 27.7195C23.0784 27.6605 23.1236 27.6054 23.0678 27.5649L22.6583 27.1709C22.3273 27.5827 21.8413 27.8695 21.3249 27.9539ZM39.705 14.9762C40.0039 15.3154 40.1676 15.7807 40.1247 16.2348C40.0545 16.98 40.0825 17.7916 40.0373 18.5756C40.0264 18.7638 39.9496 20.2791 39.9637 20.5057C39.9898 20.925 39.916 21.315 39.9337 21.6747C39.9347 21.6951 39.9347 21.7187 39.9332 21.7396C39.8864 22.1755 39.8967 22.5915 39.8806 23.0155C39.8677 23.3725 39.8004 23.7584 39.7727 24.1029C39.6371 25.7836 39.2359 28.0225 38.514 29.5508C38.2902 30.0247 37.8812 30.7278 37.5823 31.1245C36.4726 32.5967 35.5371 33.2493 34.2239 34.4201C33.3226 35.2236 32.1843 36.4642 31.6641 37.4876C31.1803 38.4395 31.1821 39.2583 31.144 40.2775C31.1124 41.125 30.5993 41.8291 29.7963 42.0735C29.4192 42.1882 28.9183 42.1657 28.5569 42.1518C27.8994 42.1272 27.2483 42.1653 26.5941 42.1556C26.2001 42.1508 25.8051 42.1566 25.41 42.161L23.1966 42.1776C22.1161 42.1784 21.2426 41.3356 21.2471 40.2045L21.2895 36.3094C21.3024 34.7605 21.8229 33.3308 22.9362 32.2167C23.4848 31.6677 24.719 30.7435 25.3054 30.2646L28.9767 27.3217C29.6976 26.7425 30.6714 26.6403 31.4773 27.1665L32.9888 25.6947L33.3634 25.3405C33.6138 25.0933 33.769 24.8467 34.0112 24.6084C34.0461 24.5736 34.0831 24.5225 34.1154 24.4758C34.4327 24.0009 34.6038 23.5318 34.7525 22.9864C34.9605 22.2236 35.1845 21.3504 35.4148 20.6151C35.5405 20.2143 35.7871 18.8899 35.8914 18.7349C36.0635 18.4792 36.3833 16.5144 36.8286 15.7265C36.8336 15.8594 36.7468 16.272 36.7175 16.4323C36.8067 16.2222 36.7582 16.3101 36.8055 16.4833C36.8565 16.4226 36.8768 16.2739 36.9225 16.1929C36.998 16.1248 36.76 17.3048 36.7303 17.4575L35.8361 22.1942C35.5063 23.8928 35.3498 24.8394 34.0423 26.1645L32.0816 28.1177C32.156 28.2504 32.1252 28.2533 32.2045 28.3625C32.3314 28.5369 32.3213 28.8133 32.3607 28.8584C32.4181 28.9242 32.3671 28.9898 32.4063 29.0457C32.409 29.0495 32.4101 29.0527 32.409 29.0559C32.3935 29.1262 32.4267 29.196 32.4401 29.2695L32.3773 29.6758C32.3417 29.8871 32.114 30.2552 31.9539 30.3971C31.9174 30.4299 31.8927 30.475 31.8557 30.5082L31.1596 31.0927C31.1129 31.1325 31.0721 31.1802 31.0254 31.221L30.5042 31.6413L30.1263 31.9789C29.8955 32.1867 29.3684 32.5179 29.0888 32.7153L27.8297 33.631C27.7864 33.6603 27.7879 33.7113 27.7111 33.6868C27.678 33.6763 27.549 33.7753 27.5409 33.7803C27.1706 34.0068 27.2983 33.8359 27.1045 34.069C27.0561 34.1272 27.117 34.0088 26.9537 34.0996C26.9314 34.112 26.884 34.2113 26.7669 34.1887C26.6428 34.1648 26.6323 34.1812 26.6838 34.0599L26.6456 34.0218C26.6121 33.937 26.5929 33.989 26.5694 33.9708C26.5158 33.9292 26.6625 33.6891 26.7009 33.5828L26.9698 33.0348C27.0804 32.8367 27.4351 32.5682 27.4722 32.5093C27.5182 32.4363 27.5367 32.4787 27.5478 32.4503L28.2097 31.8196C28.5341 31.5323 28.7924 31.3685 29.0872 31.0387L29.4779 30.6963C29.5005 30.6753 29.5165 30.6463 29.5413 30.6275C29.7444 30.4687 29.8 30.3922 29.9712 30.2234L30.7113 29.5653L30.9609 29.3624C31.092 29.2302 31.1296 29.0492 31.1907 28.8831C31.3007 28.6287 31.2629 28.8105 31.3645 28.472C31.1241 28.4054 31.1117 28.2482 30.8831 28.1118C30.7753 28.0475 30.5108 27.9465 30.3764 27.9513C30.1367 27.96 29.906 28.0397 29.721 28.1912L24.5479 32.454C23.9617 32.9355 23.5328 33.3136 23.1465 34.0149C22.4876 35.2109 22.5864 36.2289 22.5889 37.5064L22.5916 38.4575C22.6114 39.0044 22.6039 39.5524 22.6092 40.1004C22.612 40.328 22.6152 40.5012 22.8411 40.6715C23.0049 40.795 23.1289 40.7809 23.1727 40.7928L29.0045 40.7552C29.1718 40.7546 29.3438 40.773 29.4854 40.6871C29.7447 40.5297 29.7239 40.3147 29.727 40.0805C29.7436 38.8103 29.8346 37.7769 30.4789 36.6186C30.9547 35.7633 31.7802 34.7927 32.474 34.0847C33.3439 33.1969 34.3081 32.4422 35.1367 31.6688C36.5371 30.3619 37.3042 29.1222 37.7995 27.2896L38.1398 25.8774C38.5697 23.5975 38.717 21.0813 38.9477 18.7673C38.9616 18.6272 38.9804 18.4876 39.0013 18.3545C39.1073 17.6931 39.1772 16.8965 39.2745 16.1845C39.4157 15.1519 38.3176 14.8749 37.7427 15.1094C37.5405 15.1919 37.658 15.0379 37.2382 15.3686C37.0941 15.4821 37.0336 15.5703 36.9553 15.7578C36.9822 15.5624 37.0642 15.3816 37.1007 15.2479C37.1371 15.124 37.4652 14.8373 37.5339 14.7697C37.9675 14.3411 39.2121 14.4023 39.705 14.9762ZM18.7073 40.1003C18.7106 40.4091 18.7029 40.6179 18.5839 40.9258C18.3069 41.6419 17.6761 42.0288 16.9414 42.0552L14.9216 42.0734L11.0936 42.0938C10.6743 42.0941 10.3643 42.0941 9.95201 41.8613C9.35028 41.5216 9.0331 40.9576 8.99767 40.2822C8.93691 39.1244 8.91963 38.3369 8.35467 37.3301C7.91729 36.5507 6.95988 35.4991 6.26513 34.8279C4.89838 33.5074 3.60843 32.7571 2.41668 31.0633C1.76513 30.1372 1.40321 29.3215 1.06462 28.2292C0.885963 27.6529 0.692139 26.8747 0.610539 26.3007C0.603051 26.246 0.591243 26.1901 0.579915 26.1349C0.157707 23.9641 0.0189869 21.0513 0.000266943 18.8299C-0.00093363 18.6913 0.00191565 18.5528 0.00881101 18.4144C0.047019 17.6627 -0.00222906 16.9777 0.000266943 16.253C0.00554694 14.7051 1.63371 14.1815 2.4907 14.8821C2.51537 14.9025 2.546 14.9272 2.55185 14.9422C2.64526 15.1571 2.77707 15.18 2.83198 15.5272L2.87979 15.8235C2.76708 15.535 2.70084 15.5559 2.59745 15.4423C2.5051 15.341 2.43262 15.255 2.29044 15.2277C1.96155 15.1644 1.85892 15.087 1.50468 15.1778C1.28676 15.2335 1.17963 15.388 1.04791 15.5433C0.900363 15.7156 0.835947 15.94 0.848811 16.167C0.868107 16.4902 0.906219 16.8272 0.942699 17.1498C1.06039 18.1899 1.08238 19.1143 1.16974 20.1234C1.19777 20.4471 1.24385 20.6293 1.269 20.9811C1.2835 21.1861 1.29204 21.3938 1.33179 21.5886C1.33626 21.6096 1.33877 21.631 1.33927 21.6525C1.35857 22.084 1.43537 22.4855 1.49863 22.8945C1.54932 23.2247 1.56795 23.6282 1.6194 23.9487C1.8858 25.6098 2.18206 27.4539 2.86999 28.9608C3.99559 31.4261 5.97127 32.3773 7.83319 34.348C8.49703 35.0506 9.28894 35.9775 9.72948 36.8224C10.3063 37.9285 10.4042 39.0499 10.417 40.2537C10.4194 40.4762 10.5831 40.6694 10.8078 40.689C11.4812 40.7223 16.9286 40.6706 17.0049 40.6621C17.2269 40.6145 17.3432 40.4295 17.3441 40.2043L17.3828 36.5963C17.3922 35.8779 17.375 35.3416 17.1118 34.6346C16.8018 33.802 16.3255 33.2002 15.653 32.6454L10.3355 28.2919C10.0701 28.074 9.73726 27.9849 9.40059 28.1341C9.04337 28.2924 9.08542 28.4845 8.77265 28.578C8.76862 28.6377 8.80568 28.6774 8.78984 28.7428C8.78897 28.7463 8.77985 28.8739 8.81076 28.8932C8.86231 28.9252 8.81335 28.9517 8.86068 28.9769C8.86337 28.9785 8.86443 28.9806 8.86443 28.9823C8.85051 29.0144 8.89879 29.0392 8.92779 29.0628L8.95092 29.1304C9.0451 29.2288 9.12142 29.4175 9.21713 29.4884L9.83547 29.9849C9.88481 30.0224 9.94011 30.052 9.98897 30.0885L10.5085 30.5104L11.1569 30.9983L11.9669 31.7776L13.0468 32.7357C13.1201 32.7661 13.0751 32.8187 13.0994 32.8425C13.123 32.8678 13.1498 32.8893 13.1681 32.922C13.1685 32.9227 13.3734 33.1097 13.4279 33.2284C13.4642 33.3075 13.6295 33.3002 13.6013 33.3755C13.5778 33.438 13.7029 33.493 13.7548 33.5543C13.7881 33.5936 13.7841 33.7354 13.7746 33.7469L13.67 33.7443C13.67 33.798 13.6337 33.7815 13.605 33.8178C13.5845 33.8437 13.6796 33.9415 13.4155 33.8741C13.0534 33.7817 12.6799 33.7622 12.3624 33.5505L11.9893 33.2961C11.9129 33.2705 11.9444 33.2401 11.9158 33.2349L11.3383 32.8409L10.5246 32.2178L10.18 31.9988L9.79841 31.7116C9.77316 31.694 9.74148 31.6837 9.71796 31.6644C9.47816 31.4682 9.44081 31.4703 9.22039 31.3193C8.95131 31.1349 8.51316 30.8168 8.27201 30.5947C8.10334 30.4393 7.79979 30.0517 7.75831 29.8127C7.74583 29.7407 7.5666 29.4502 7.62094 28.9474C7.63236 28.8412 7.69428 28.5939 7.76743 28.5261C7.84548 28.4539 7.89041 28.3371 7.98593 28.2416C7.19825 27.4595 6.39147 26.6964 5.62644 25.8917C5.23073 25.4756 5.27537 25.4034 5.06014 25.0517C4.51131 24.1549 4.31979 23.2153 4.10311 22.2075C4.00385 21.7497 3.89268 21.2924 3.80628 20.8346C3.73419 20.4521 3.50062 19.6594 3.38763 19.2517C3.29988 18.935 3.37908 19.0197 3.31035 18.7129L3.13486 17.9475C3.00843 17.5351 2.85185 16.8605 2.80529 16.4301C2.78619 16.2538 2.74846 16.024 2.75268 15.8552C2.8195 15.9699 2.93777 16.3754 2.98721 16.531C2.96753 16.3007 2.96552 16.4075 3.08916 16.5342C3.10136 16.4773 3.00305 16.0235 3.10961 16.3039C3.24699 16.6614 3.36401 17.0468 3.48161 17.4294C4.03227 19.2188 4.61508 20.9937 5.15086 22.792C5.45758 23.8215 5.77879 24.5042 6.52702 25.3008L7.3386 26.086L8.60743 27.3055C8.99902 27.0085 9.25755 26.9836 9.68897 26.9422C10.2063 26.8923 10.6701 27.0931 11.063 27.4091L14.8384 30.4106C15.4456 30.8956 16.1633 31.439 16.7492 31.9451C17.8533 32.8989 18.5517 34.3097 18.661 35.7608C18.7203 36.5467 18.673 37.6334 18.689 38.4574C18.7088 39.0043 18.7014 39.5523 18.7073 40.1003Z" fill="black"/>
</svg>
