<svg width="39" height="40" viewBox="0 0 39 40" fill="none" xmlns="http://www.w3.org/2000/svg">
<path d="M38.5874 34.2688C38.5617 34.1109 38.4743 33.9698 38.3445 33.8763C38.2147 33.7829 38.0531 33.7447 37.8953 33.7703C37.7124 33.8 37.5289 33.8297 37.346 33.8664C36.9843 33.936 36.6249 34.0141 36.2703 34.1125C36.1726 33.4164 36.0562 32.7242 35.8874 32.0391C35.8414 31.8446 35.5538 31.8446 35.5078 32.0391C35.3617 32.6289 35.2585 33.2219 35.1671 33.8188C33.4867 33.6946 31.7968 33.6117 30.1046 33.5633V32.8172C30.1046 32.343 29.9773 31.8781 29.7374 31.4696C31.9335 31.4891 34.1288 31.468 36.3234 31.3805C36.8718 31.3617 37.4203 31.3383 37.9687 31.3149C38.3976 31.2953 38.7296 30.9313 38.7101 30.5024L38.6648 29.5071L38.6156 28.5117L38.5054 26.5219L38.5015 26.4586C38.4851 26.1399 38.2132 25.8946 37.8937 25.911C37.3695 25.9383 36.846 25.9735 36.3218 26.0063C35.2867 26.0703 33.971 26.1594 32.7898 26.2446C32.5078 25.3188 32.2039 24.3328 32.0031 23.7711C30.9976 20.9617 29.5671 18.2867 27.7445 15.9227C26.5515 14.3571 25.1656 12.893 23.6703 11.6156C22.821 10.8805 21.9039 10.2149 20.9851 9.56799C21.2226 9.49611 21.457 9.41486 21.6882 9.31252C21.8476 9.24768 21.8484 9.00158 21.6882 8.93518C21.3343 8.79064 20.9484 8.66564 20.5406 8.56096C21.1226 7.47502 21.6703 6.37268 22.2062 5.26486C22.6718 4.30939 23.1585 3.24533 23.6062 2.27424L24.057 1.27111C24.0984 1.17736 24.1249 1.06955 24.1281 0.960175C24.1398 0.5133 23.7867 0.142206 23.3398 0.130487C23.0882 0.121112 22.8249 0.142206 22.5515 0.234394C22.3007 0.317987 22.0718 0.460956 21.9062 0.592987C21.6773 0.767987 21.5296 0.953925 21.3515 1.03752C21.2796 1.06017 21.1671 1.06018 21.0906 1.03674C21.057 1.02424 21.0476 1.01799 21.0062 0.986737C20.8117 0.8258 20.6281 0.585956 20.3343 0.3883C19.6906 -0.0663876 18.7796 -0.128106 18.0671 0.236737C17.7046 0.416425 17.4359 0.717987 17.2054 0.915644C17.1429 0.966425 17.1234 0.971113 17.1054 0.978144C17.0882 0.983613 17.0585 0.989863 16.9976 0.990644C16.9367 0.989863 16.907 0.984394 16.8898 0.978144C16.8718 0.971113 16.8523 0.966425 16.7898 0.915644C16.5593 0.717206 16.2906 0.416425 15.9288 0.236737C15.2156 -0.127325 14.3062 -0.0663876 13.6617 0.3883C13.3663 0.585956 13.1874 0.826581 12.989 0.987519C12.9101 1.05236 12.8429 1.05705 12.7492 1.05471C12.6179 1.04611 12.6093 1.03361 12.4656 0.91955C12.2109 0.6883 11.8468 0.358613 11.4437 0.235175C11.1929 0.150019 10.9367 0.124237 10.7117 0.129706C10.5867 0.128925 10.464 0.147675 10.3453 0.201581C9.93822 0.384394 9.75697 0.862519 9.93979 1.26877C11.0413 3.72189 12.1882 6.18205 13.4578 8.55705C13.0492 8.66252 12.6617 8.78752 12.307 8.93283C12.146 8.99846 12.1453 9.24611 12.307 9.31252C12.5382 9.41486 12.7726 9.49689 13.0101 9.56799C12.1921 10.143 11.3757 10.7336 10.6085 11.3758C9.94525 11.9289 9.30854 12.5164 8.69291 13.1227C8.51713 13.3133 8.08979 13.7383 7.9226 13.9266C7.76557 14.1071 7.34526 14.5742 7.18354 14.761C7.03119 14.95 6.62416 15.4422 6.47729 15.625C5.64369 16.6977 4.85385 17.8383 4.1851 19.0203C3.43666 20.3047 2.78979 21.6781 2.25619 23.0672C1.74057 24.3758 1.10151 26.6133 0.674943 27.9836C0.611662 28.1992 0.414787 28.8305 0.356974 29.0328C-1.06959 33.5641 1.93432 38.4578 6.61088 39.2813C7.13822 39.3742 7.69526 39.4164 8.22963 39.4133C13.5867 39.4438 20.4093 39.443 25.7671 39.4141C26.0257 39.4125 26.3109 39.4063 26.5671 39.386C26.8937 39.3641 27.2148 39.3211 27.5304 39.2586C30.457 39.4266 33.3953 39.4672 36.3234 39.4156C36.8476 39.4086 37.371 39.3922 37.8953 39.3766C38.4031 39.3867 38.8242 38.9719 38.8101 38.4617C38.7632 37.0633 38.6999 35.6641 38.5874 34.2688ZM29.3851 31.6399C29.5999 31.9946 29.7132 32.4016 29.7132 32.8164V33.5524C27.8218 33.5039 25.9296 33.4969 24.0445 33.5219C24.0351 33.1781 24.0242 32.8352 24.0109 32.4914C23.9984 32.1625 23.9765 31.6141 23.9546 31.1367C24.1601 31.0883 24.364 31.0336 24.5663 30.9711C24.721 31.2227 25.0039 31.3891 25.321 31.3805C25.7109 31.3946 26.5031 31.4156 26.8929 31.4227C27.6882 31.4414 28.4835 31.4555 29.2789 31.4649L29.3851 31.6399ZM29.7093 35.411C29.6687 35.8953 29.2617 36.2766 28.7671 36.2766H25.7539C25.7226 36.0016 25.689 35.7274 25.6531 35.4539C25.8695 35.4547 26.0773 35.4563 26.2671 35.4578C27.4117 35.4547 28.5601 35.4399 29.7093 35.411ZM26.1687 29.5071C26.1414 28.7617 26.1054 27.9571 26.0664 27.1875C26.5523 27.1578 27.0382 27.1266 27.5242 27.0922C27.5242 27.1164 27.5249 27.1399 27.5249 27.1641V27.9344C27.5249 28.3477 27.6382 28.7539 27.8523 29.1078L28.1234 29.5563C27.4851 29.5664 26.821 29.5805 26.171 29.5977C26.1695 29.5414 26.1687 29.5071 26.1687 29.5071ZM37.2499 27.0953C37.2054 27.886 37.1593 28.8336 37.1195 29.6539C36.8538 29.643 36.5882 29.6328 36.3226 29.6242C33.7414 29.5219 31.1585 29.5078 28.5757 29.55L28.1859 28.9055C28.0086 28.6126 27.9148 28.2768 27.9148 27.9344V27.1641C27.9148 27.1305 27.9132 27.0969 27.9132 27.0641C29.1468 26.9727 30.3796 26.861 31.6078 26.711C33.3921 26.85 35.4156 26.9852 37.2499 27.0953ZM23.1874 12.1446C24.2078 13.143 25.1695 14.2516 26.0437 15.3821C26.1804 15.5735 26.546 16.0672 26.6781 16.2531C26.8163 16.4571 27.1382 16.9328 27.2781 17.1461C27.7882 17.9508 28.2789 18.775 28.7101 19.6242C29.314 20.7766 29.8281 21.9992 30.2734 23.2219C30.5718 24.061 30.8937 25.1906 31.1913 26.2828C30.0874 26.1571 28.9773 26.0586 27.8679 25.9766C27.7179 24.0719 27.2117 22.1899 26.3781 20.4727C25.3718 18.4 23.8835 16.5508 22.0734 15.125L18.9742 12.6844C18.4476 12.2696 18.1453 11.6469 18.1453 10.9766V10.0594C18.9148 10.0071 19.682 9.89924 20.4351 9.71643C20.6328 9.88205 20.8296 10.0485 21.0281 10.2125C21.7742 10.8336 22.496 11.4688 23.1874 12.1446ZM19.9585 2.52736C20.0578 2.59455 20.1726 2.65705 20.2937 2.70939L18.1453 4.85783V4.50939C18.1453 4.37814 18.1351 4.24768 18.1156 4.11877L19.8117 2.42268C19.8578 2.45783 19.9062 2.49377 19.9585 2.52736ZM21.2304 4.41564L18.1453 7.5008V6.72893C18.1492 6.7258 18.1538 6.72268 18.1578 6.71877L21.6117 3.26486C21.4835 3.64768 21.3554 4.03127 21.2304 4.41564ZM18.1453 8.05314L20.9679 5.23049C20.8492 5.60236 20.7328 5.97502 20.6195 6.34846L18.7312 8.23674C18.5374 8.21564 18.3421 8.19768 18.146 8.18361V8.05314H18.1453ZM19.221 8.29924L20.382 7.1383C20.2546 7.57111 20.132 8.00471 20.0124 8.4383C19.7554 8.38439 19.4913 8.3383 19.221 8.29924ZM21.4624 2.86174L18.1445 6.17971V5.40783C18.1484 5.40471 18.1531 5.40158 18.157 5.39768L20.7148 2.83986C20.9679 2.88908 21.2203 2.89533 21.4624 2.86174ZM18.4437 2.41721C18.6742 2.23049 18.7992 2.05939 18.964 1.95393C18.9953 1.93049 19.0742 1.92033 19.1234 1.92189C19.1828 1.9258 19.2062 1.92033 19.2671 1.95705C19.3484 2.01408 19.4288 2.08752 19.5156 2.16564L18.0093 3.67189C17.9124 3.38283 17.7648 3.11096 17.5718 2.86955C17.6382 2.85236 17.7062 2.83205 17.7749 2.80939C18.0382 2.71486 18.2765 2.55861 18.4437 2.41721ZM13.5507 6.92736C13.139 5.55471 12.6921 4.16955 12.2273 2.79689C12.8351 2.97189 13.5203 2.8758 14.039 2.5258C14.3304 2.33674 14.5296 2.09924 14.7312 1.95627C14.8007 1.91408 14.8468 1.92111 14.9179 1.92268C14.9632 1.92346 15.0078 1.93596 15.0343 1.95393C15.0562 1.96564 15.1015 1.99689 15.1843 2.07502C15.4351 2.3258 15.8046 2.67033 16.2249 2.81096C16.5406 2.91643 16.8288 2.95939 17.1218 2.94221L17.2281 3.06721C17.5686 3.47031 17.7554 3.98094 17.7554 4.50861V8.16174C16.4734 8.10158 15.1578 8.19299 13.9859 8.43674C13.846 7.93127 13.7023 7.42814 13.5507 6.92736ZM8.0476 37.511C7.68276 37.5071 7.30151 37.4828 6.93901 37.4203C3.28744 36.8196 0.926505 33.05 1.93822 29.4891C1.98666 29.2985 2.18041 28.6149 2.22651 28.4313C2.63354 26.95 3.21244 24.6477 3.7226 23.2211C3.92026 22.7039 4.14526 22.0641 4.37416 21.5617C4.71401 20.7406 5.12182 19.9344 5.53119 19.1461C6.13432 18.0586 6.79526 16.9672 7.52885 15.961L7.95151 15.3805L8.3976 14.8164C8.64838 14.4883 9.04994 14.0313 9.32104 13.7125C9.95854 12.9953 10.6249 12.2953 11.3328 11.6453C11.8632 11.1469 12.4062 10.6797 12.9687 10.2117C13.1663 10.0477 13.3624 9.88283 13.5593 9.71799C14.6874 9.99143 15.8476 10.0992 16.9992 10.1C17.2507 10.0992 17.5031 10.093 17.7546 10.0813V10.9766C17.7546 11.7672 18.1109 12.5016 18.7328 12.9914L21.832 15.4321C23.596 16.8211 25.0468 18.6235 26.0273 20.643C26.8304 22.2985 27.3234 24.1117 27.4749 25.9477L26.8945 25.9078C26.3703 25.8711 25.8468 25.8414 25.3226 25.8117C24.9187 25.7844 24.6015 26.1242 24.6132 26.5211C24.5484 27.6414 24.4999 28.8516 24.4601 29.9992C24.3812 29.9766 24.3023 29.9539 24.2234 29.9321C23.8367 29.8336 23.4507 29.7446 23.0562 29.6938C22.6742 29.675 22.3499 29.9696 22.3312 30.3516L22.3242 30.5008C22.2796 31.4242 22.2242 32.5664 22.2046 33.486C22.196 33.818 22.1843 34.1508 22.1789 34.4828C22.1703 35.0071 22.6007 35.4344 23.1242 35.4258C23.6609 35.4399 24.3374 35.4453 24.9914 35.4492C24.9554 35.7242 24.9226 36 24.8906 36.275H22.5476C21.771 36.275 21.1015 36.7664 20.8617 37.4899C19.3453 37.486 17.8913 37.4836 16.9984 37.4836C14.9812 37.4883 10.0031 37.4977 8.0476 37.511ZM24.7656 37.4672C24.764 37.4797 24.7632 37.4922 24.7624 37.5047C23.7664 37.5008 22.5179 37.4961 21.2804 37.493C21.3883 37.2467 21.5657 37.0374 21.791 36.8906C22.0163 36.7439 22.2795 36.6663 22.5484 36.6672H24.8468C24.8187 36.9281 24.7835 37.2735 24.7656 37.4672ZM33.9656 37.486C31.2781 37.4914 28.5874 37.5719 25.9062 37.7727C25.8726 37.4047 25.8367 37.036 25.7976 36.6672H28.7679C29.482 36.6672 30.0648 36.1047 30.1015 35.3992C31.9718 35.3461 33.8421 35.2539 35.6976 35.1055L35.8265 35.0953C36.0039 35.0813 36.1531 34.9821 36.2414 34.843C36.5398 34.9266 36.8421 34.9961 37.146 35.0578C37.0921 35.8789 37.0476 36.7008 37.0148 37.5227C36.0007 37.4977 34.9562 37.4875 33.9656 37.486Z" fill="black"/>
<path d="M15.2876 21.6147C15.1782 21.6304 15.0892 21.7054 15.0556 21.8108C15.0212 21.9155 15.0493 22.0288 15.1282 22.1062L16.5899 23.5272L16.2446 25.5421C16.2259 25.6507 16.2696 25.7585 16.3587 25.8233C16.4478 25.8882 16.5642 25.8968 16.6618 25.8452L18.4649 24.8937L20.2743 25.8452C20.3218 25.8705 20.3754 25.8819 20.429 25.878C20.4827 25.8741 20.5341 25.8552 20.5774 25.8233C20.6665 25.7585 20.7103 25.6507 20.6915 25.5421L20.3439 23.5327L21.8079 22.1054C21.8868 22.028 21.9149 21.9155 21.8806 21.8101C21.8462 21.7046 21.7571 21.6304 21.6485 21.614L19.6306 21.3233L18.7259 19.4897C18.6767 19.3905 18.5782 19.3296 18.4681 19.3296C18.3579 19.3296 18.2587 19.3913 18.2103 19.4897L17.3103 21.3194L15.2876 21.6147ZM17.6564 21.4976L18.4689 19.8507L19.2814 21.4976C19.3089 21.5534 19.3496 21.6017 19.4 21.6383C19.4503 21.6749 19.5088 21.6987 19.5704 21.7077L21.3876 21.9718L20.0728 23.253C20.0282 23.2965 19.9948 23.3501 19.9755 23.4093C19.9561 23.4685 19.9515 23.5315 19.9618 23.5929L20.272 25.4022L18.647 24.5476C18.5918 24.5187 18.5304 24.5036 18.4681 24.5036C18.4058 24.5036 18.3444 24.5187 18.2892 24.5476L16.6642 25.4022L16.9743 23.5921C16.9847 23.5308 16.9801 23.4678 16.9609 23.4087C16.9418 23.3495 16.9086 23.2958 16.8642 23.2522L15.5493 21.971L17.3665 21.7069C17.4282 21.6984 17.4869 21.6748 17.5375 21.6383C17.588 21.6018 17.6288 21.5535 17.6564 21.4976Z" fill="black"/>
<path d="M21.6634 29.0147C22.8352 27.8226 23.4806 26.2452 23.4806 24.5671C23.4806 24.4343 23.3845 24.3249 23.2524 24.3069C23.1196 24.2897 22.9985 24.3702 22.9634 24.4983C22.3876 26.6093 20.3774 28.0554 18.1868 27.9335C15.8102 27.8022 13.9165 25.9116 13.7829 23.5351C13.6595 21.3397 15.104 19.3288 17.2188 18.7522C17.347 18.7171 17.4282 18.596 17.4102 18.464C17.3923 18.3319 17.2829 18.2358 17.1438 18.2358C15.472 18.2358 13.8946 18.8812 12.7024 20.053C11.5118 21.2233 10.8391 22.7866 10.8087 24.4546C10.7774 26.1851 11.4376 27.8163 12.6688 29.0468C13.872 30.2499 15.4563 30.9077 17.1431 30.9077C17.1821 30.9077 17.222 30.9077 17.261 30.9069C18.9298 30.878 20.4931 30.2054 21.6634 29.0147ZM12.9454 28.7718C11.7899 27.6163 11.1704 26.0866 11.2001 24.4624C11.2282 22.8976 11.8595 21.4304 12.9766 20.3319C13.8845 19.4397 15.0306 18.8726 16.272 18.6905C14.4516 19.5632 13.2766 21.4851 13.3938 23.5577C13.5391 26.1327 15.5907 28.1819 18.1665 28.3241C19.3407 28.389 20.5063 28.0437 21.4477 27.353C22.1233 26.8564 22.6659 26.2009 23.0274 25.4444C22.8462 26.6843 22.279 27.8319 21.3852 28.7405C20.2868 29.8577 18.8204 30.489 17.2548 30.5171C15.6298 30.5483 14.1009 29.9272 12.9454 28.7718Z" fill="black"/>
</svg>
