<svg preserveAspectRatio="none" overflow="visible" style="display: block;" width="24" height="24" viewBox="0 0 24 24" fill="none" xmlns="http://www.w3.org/2000/svg">
<g id="Play Button">
<circle id="Ellipse 1" cx="12" cy="12" r="12" fill="#F2F3F7"/>
<g id="Linear / Hands / Hand Heart">
<path id="Vector" d="M11.9999 7.55346L11.7461 7.82955C11.8896 7.96144 12.1102 7.96144 12.2536 7.82955L11.9999 7.55346ZM11.2956 10.0984C10.9505 9.84688 10.5824 9.54095 10.3043 9.21852C10.0171 8.88565 9.87488 8.59155 9.87488 8.35777H9.12488C9.12488 8.86653 9.4141 9.33481 9.7364 9.70842C10.0677 10.0925 10.4871 10.4371 10.8538 10.7045L11.2956 10.0984ZM9.87488 8.35777C9.87488 7.82845 10.1349 7.52654 10.4476 7.4213C10.7736 7.31158 11.2598 7.38256 11.7461 7.82955L12.2536 7.27738C11.615 6.69033 10.8511 6.49417 10.2084 6.71047C9.55239 6.93124 9.12488 7.5485 9.12488 8.35777H9.87488ZM13.1459 10.7045C13.5127 10.4371 13.932 10.0925 14.2634 9.70843C14.5857 9.33482 14.8749 8.86653 14.8749 8.35776H14.1249C14.1249 8.59156 13.9826 8.88566 13.6955 9.21853C13.4173 9.54095 13.0492 9.84688 12.7041 10.0985L13.1459 10.7045ZM14.8749 8.35776C14.8749 7.5485 14.4474 6.93124 13.7913 6.71047C13.1486 6.49417 12.3848 6.69033 11.7461 7.27738L12.2536 7.82955C12.7399 7.38256 13.2261 7.31158 13.5521 7.42129C13.8649 7.52654 14.1249 7.82845 14.1249 8.35776H14.8749ZM10.8538 10.7045C11.2314 10.9797 11.5308 11.2134 11.9999 11.2134V10.4634C11.8174 10.4634 11.7172 10.4058 11.2956 10.0984L10.8538 10.7045ZM12.7041 10.0985C12.2825 10.4058 12.1824 10.4634 11.9999 10.4634V11.2134C12.469 11.2134 12.7684 10.9797 13.1459 10.7045L12.7041 10.0985Z" fill="#00A54F"/>
<path id="Vector_2" d="M8.50012 16.1941H9.63009C10.1355 16.1941 10.6464 16.2468 11.1383 16.3481C12.0084 16.5274 12.9245 16.5491 13.8036 16.4068C14.237 16.3366 14.6631 16.2294 15.0489 16.0432C15.3971 15.8751 15.8236 15.6382 16.1101 15.3729C16.3962 15.1079 16.6941 14.6743 16.9056 14.3353C17.0869 14.0446 16.9992 13.688 16.7124 13.4714C16.3938 13.2309 15.921 13.2309 15.6024 13.4716L14.6988 14.1541C14.3486 14.4187 13.9661 14.6622 13.5104 14.7349C13.4556 14.7436 13.3982 14.7516 13.3383 14.7585M13.3383 14.7585C13.3203 14.7606 13.302 14.7626 13.2835 14.7645M13.3383 14.7585C13.4112 14.7429 13.4836 14.6979 13.5515 14.6387C13.8731 14.358 13.8934 13.8849 13.6144 13.5715C13.5497 13.4988 13.4739 13.4381 13.3897 13.3879C11.991 12.5536 9.81483 13.189 8.50012 14.1214M13.3383 14.7585C13.3201 14.7624 13.3018 14.7645 13.2835 14.7645M13.2835 14.7645C13.0218 14.7914 12.7157 14.7983 12.376 14.7662" stroke="#00A54F" stroke-width="0.75" stroke-linecap="round"/>
<path id="Vector_3" d="M8.50012 13.7499C8.50012 13.3357 8.16434 12.9999 7.75012 12.9999C7.33591 12.9999 7.00012 13.3357 7.00012 13.7499V16.2499C7.00012 16.6642 7.33591 16.9999 7.75012 16.9999C8.16434 16.9999 8.50012 16.6642 8.50012 16.2499V13.7499Z" stroke="#00A54F" stroke-width="0.75"/>
</g>
</g>
</svg>
